M48
;DRILL file {KiCad (5.0.2)-1} date 18-Jul-19 11:35:48
;FORMAT={-:-/ absolute / metric / decimal}
FMAT,2
METRIC,TZ
T1C0.400
T2C1.000
T3C1.200
%
G90
G05
T1
X121.666Y-80.01
X123.444Y-79.629
X124.206Y-77.724
X130.193Y-72.124
X130.195Y-74.38
X136.652Y-70.866
X141.986Y-64.77
X142.24Y-81.28
X142.24Y-83.82
X142.494Y-72.39
T2
X116.84Y-60.96
X139.7Y-68.58
X140.97Y-86.36
X116.84Y-88.9
X119.38Y-63.5
X119.38Y-66.04
X119.38Y-68.58
X119.38Y-71.12
X119.38Y-73.66
X119.38Y-76.2
X119.38Y-78.74
X119.38Y-81.28
X119.38Y-83.82
X119.38Y-86.36
X144.78Y-63.5
X144.78Y-66.04
X144.78Y-68.58
X144.78Y-71.12
X144.78Y-73.66
X144.78Y-76.2
X144.78Y-78.74
X144.78Y-81.28
X144.78Y-83.82
X144.78Y-86.36
X139.7Y-66.04
X147.32Y-88.9
X147.32Y-60.96
X139.7Y-63.5
T3
X128.62Y-61.63
X128.62Y-66.13
X135.12Y-61.63
X135.12Y-66.13
X126.87Y-83.38
X126.87Y-87.88
X133.37Y-83.38
X133.37Y-87.88
T0
M30
