G04 #@! TF.GenerationSoftware,KiCad,Pcbnew,(5.0.2)-1*
G04 #@! TF.CreationDate,2019-07-18T11:35:20+03:00*
G04 #@! TF.ProjectId,Breakout Board STM32L041x6 - TSSOP20,42726561-6b6f-4757-9420-426f61726420,rev?*
G04 #@! TF.SameCoordinates,Original*
G04 #@! TF.FileFunction,Legend,Bot*
G04 #@! TF.FilePolarity,Positive*
%FSLAX46Y46*%
G04 Gerber Fmt 4.6, Leading zero omitted, Abs format (unit mm)*
G04 Created by KiCad (PCBNEW (5.0.2)-1) date 18-Jul-19 11:35:20*
%MOMM*%
%LPD*%
G01*
G04 APERTURE LIST*
%ADD10C,0.150000*%
%ADD11C,0.100000*%
%ADD12C,0.130000*%
%ADD13C,0.200000*%
%ADD14C,0.120000*%
G04 APERTURE END LIST*
D10*
X138233333Y-61918809D02*
X138309523Y-61956904D01*
X138461904Y-61956904D01*
X138538095Y-61918809D01*
X138576190Y-61842619D01*
X138576190Y-61804523D01*
X138538095Y-61728333D01*
X138461904Y-61690238D01*
X138347619Y-61690238D01*
X138271428Y-61652142D01*
X138233333Y-61575952D01*
X138233333Y-61537857D01*
X138271428Y-61461666D01*
X138347619Y-61423571D01*
X138461904Y-61423571D01*
X138538095Y-61461666D01*
X138842857Y-61423571D02*
X138995238Y-61956904D01*
X139147619Y-61575952D01*
X139300000Y-61956904D01*
X139452380Y-61423571D01*
X140100000Y-61918809D02*
X140023809Y-61956904D01*
X139871428Y-61956904D01*
X139795238Y-61918809D01*
X139757142Y-61880714D01*
X139719047Y-61804523D01*
X139719047Y-61575952D01*
X139757142Y-61499761D01*
X139795238Y-61461666D01*
X139871428Y-61423571D01*
X140023809Y-61423571D01*
X140100000Y-61461666D01*
X140557142Y-61956904D02*
X140480952Y-61918809D01*
X140442857Y-61842619D01*
X140442857Y-61156904D01*
X140861904Y-61956904D02*
X140861904Y-61156904D01*
X140938095Y-61652142D02*
X141166666Y-61956904D01*
X141166666Y-61423571D02*
X140861904Y-61728333D01*
D11*
X138068571Y-71623333D02*
X137830476Y-71623333D01*
X138116190Y-71766190D02*
X137949523Y-71266190D01*
X137782857Y-71766190D01*
X137687619Y-71266190D02*
X137401904Y-71266190D01*
X137544761Y-71766190D02*
X137544761Y-71266190D01*
X137306666Y-71266190D02*
X137020952Y-71266190D01*
X137163809Y-71766190D02*
X137163809Y-71266190D01*
X136854285Y-71504285D02*
X136687619Y-71504285D01*
X136616190Y-71766190D02*
X136854285Y-71766190D01*
X136854285Y-71266190D01*
X136616190Y-71266190D01*
X136401904Y-71766190D02*
X136401904Y-71266190D01*
X136116190Y-71766190D01*
X136116190Y-71266190D01*
X135949523Y-71266190D02*
X135663809Y-71266190D01*
X135806666Y-71766190D02*
X135806666Y-71266190D01*
X135497142Y-71766190D02*
X135497142Y-71266190D01*
X135163809Y-71266190D02*
X135068571Y-71266190D01*
X135020952Y-71290000D01*
X134973333Y-71337619D01*
X134949523Y-71432857D01*
X134949523Y-71599523D01*
X134973333Y-71694761D01*
X135020952Y-71742380D01*
X135068571Y-71766190D01*
X135163809Y-71766190D01*
X135211428Y-71742380D01*
X135259047Y-71694761D01*
X135282857Y-71599523D01*
X135282857Y-71432857D01*
X135259047Y-71337619D01*
X135211428Y-71290000D01*
X135163809Y-71266190D01*
X134735238Y-71766190D02*
X134735238Y-71266190D01*
X134449523Y-71766190D01*
X134449523Y-71266190D01*
X134211428Y-71718571D02*
X134187619Y-71742380D01*
X134211428Y-71766190D01*
X134235238Y-71742380D01*
X134211428Y-71718571D01*
X134211428Y-71766190D01*
X134211428Y-71575714D02*
X134235238Y-71290000D01*
X134211428Y-71266190D01*
X134187619Y-71290000D01*
X134211428Y-71575714D01*
X134211428Y-71266190D01*
X133973333Y-71718571D02*
X133949523Y-71742380D01*
X133973333Y-71766190D01*
X133997142Y-71742380D01*
X133973333Y-71718571D01*
X133973333Y-71766190D01*
X133973333Y-71575714D02*
X133997142Y-71290000D01*
X133973333Y-71266190D01*
X133949523Y-71290000D01*
X133973333Y-71575714D01*
X133973333Y-71266190D01*
X133735238Y-71718571D02*
X133711428Y-71742380D01*
X133735238Y-71766190D01*
X133759047Y-71742380D01*
X133735238Y-71718571D01*
X133735238Y-71766190D01*
X133735238Y-71575714D02*
X133759047Y-71290000D01*
X133735238Y-71266190D01*
X133711428Y-71290000D01*
X133735238Y-71575714D01*
X133735238Y-71266190D01*
X137949523Y-72616190D02*
X137949523Y-72116190D01*
X137663809Y-72616190D01*
X137663809Y-72116190D01*
X137330476Y-72116190D02*
X137235238Y-72116190D01*
X137187619Y-72140000D01*
X137140000Y-72187619D01*
X137116190Y-72282857D01*
X137116190Y-72449523D01*
X137140000Y-72544761D01*
X137187619Y-72592380D01*
X137235238Y-72616190D01*
X137330476Y-72616190D01*
X137378095Y-72592380D01*
X137425714Y-72544761D01*
X137449523Y-72449523D01*
X137449523Y-72282857D01*
X137425714Y-72187619D01*
X137378095Y-72140000D01*
X137330476Y-72116190D01*
X136259047Y-72616190D02*
X136544761Y-72616190D01*
X136401904Y-72616190D02*
X136401904Y-72116190D01*
X136449523Y-72187619D01*
X136497142Y-72235238D01*
X136544761Y-72259047D01*
X136068571Y-72163809D02*
X136044761Y-72140000D01*
X135997142Y-72116190D01*
X135878095Y-72116190D01*
X135830476Y-72140000D01*
X135806666Y-72163809D01*
X135782857Y-72211428D01*
X135782857Y-72259047D01*
X135806666Y-72330476D01*
X136092380Y-72616190D01*
X135782857Y-72616190D01*
X135568571Y-72568571D02*
X135544761Y-72592380D01*
X135568571Y-72616190D01*
X135592380Y-72592380D01*
X135568571Y-72568571D01*
X135568571Y-72616190D01*
X135092380Y-72116190D02*
X135330476Y-72116190D01*
X135354285Y-72354285D01*
X135330476Y-72330476D01*
X135282857Y-72306666D01*
X135163809Y-72306666D01*
X135116190Y-72330476D01*
X135092380Y-72354285D01*
X135068571Y-72401904D01*
X135068571Y-72520952D01*
X135092380Y-72568571D01*
X135116190Y-72592380D01*
X135163809Y-72616190D01*
X135282857Y-72616190D01*
X135330476Y-72592380D01*
X135354285Y-72568571D01*
X134473333Y-72282857D02*
X134473333Y-72782857D01*
X134473333Y-72306666D02*
X134425714Y-72282857D01*
X134330476Y-72282857D01*
X134282857Y-72306666D01*
X134259047Y-72330476D01*
X134235238Y-72378095D01*
X134235238Y-72520952D01*
X134259047Y-72568571D01*
X134282857Y-72592380D01*
X134330476Y-72616190D01*
X134425714Y-72616190D01*
X134473333Y-72592380D01*
X133854285Y-72354285D02*
X134020952Y-72354285D01*
X134020952Y-72616190D02*
X134020952Y-72116190D01*
X133782857Y-72116190D01*
X138497142Y-72966190D02*
X138163809Y-73466190D01*
X138163809Y-72966190D02*
X138497142Y-73466190D01*
X138044761Y-72966190D02*
X137759047Y-72966190D01*
X137901904Y-73466190D02*
X137901904Y-72966190D01*
X137616190Y-73323333D02*
X137378095Y-73323333D01*
X137663809Y-73466190D02*
X137497142Y-72966190D01*
X137330476Y-73466190D01*
X136925714Y-73466190D02*
X137163809Y-73466190D01*
X137163809Y-72966190D01*
X136401904Y-73323333D02*
X136163809Y-73323333D01*
X136449523Y-73466190D02*
X136282857Y-72966190D01*
X136116190Y-73466190D01*
X135711428Y-73466190D02*
X135949523Y-73466190D01*
X135949523Y-72966190D01*
X135306666Y-73466190D02*
X135544761Y-73466190D01*
X135544761Y-72966190D01*
X135044761Y-72966190D02*
X134949523Y-72966190D01*
X134901904Y-72990000D01*
X134854285Y-73037619D01*
X134830476Y-73132857D01*
X134830476Y-73299523D01*
X134854285Y-73394761D01*
X134901904Y-73442380D01*
X134949523Y-73466190D01*
X135044761Y-73466190D01*
X135092380Y-73442380D01*
X135140000Y-73394761D01*
X135163809Y-73299523D01*
X135163809Y-73132857D01*
X135140000Y-73037619D01*
X135092380Y-72990000D01*
X135044761Y-72966190D01*
X134663809Y-72966190D02*
X134544761Y-73466190D01*
X134449523Y-73109047D01*
X134354285Y-73466190D01*
X134235238Y-72966190D01*
X134044761Y-73204285D02*
X133878095Y-73204285D01*
X133806666Y-73466190D02*
X134044761Y-73466190D01*
X134044761Y-72966190D01*
X133806666Y-72966190D01*
X133592380Y-73466190D02*
X133592380Y-72966190D01*
X133473333Y-72966190D01*
X133401904Y-72990000D01*
X133354285Y-73037619D01*
X133330476Y-73085238D01*
X133306666Y-73180476D01*
X133306666Y-73251904D01*
X133330476Y-73347142D01*
X133354285Y-73394761D01*
X133401904Y-73442380D01*
X133473333Y-73466190D01*
X133592380Y-73466190D01*
D10*
X139078571Y-84440476D02*
X139611904Y-84630952D01*
X139078571Y-84821428D01*
X139611904Y-85469047D02*
X138811904Y-85469047D01*
X139573809Y-85469047D02*
X139611904Y-85392857D01*
X139611904Y-85240476D01*
X139573809Y-85164285D01*
X139535714Y-85126190D01*
X139459523Y-85088095D01*
X139230952Y-85088095D01*
X139154761Y-85126190D01*
X139116666Y-85164285D01*
X139078571Y-85240476D01*
X139078571Y-85392857D01*
X139116666Y-85469047D01*
X139611904Y-86192857D02*
X138811904Y-86192857D01*
X139573809Y-86192857D02*
X139611904Y-86116666D01*
X139611904Y-85964285D01*
X139573809Y-85888095D01*
X139535714Y-85850000D01*
X139459523Y-85811904D01*
X139230952Y-85811904D01*
X139154761Y-85850000D01*
X139116666Y-85888095D01*
X139078571Y-85964285D01*
X139078571Y-86116666D01*
X139116666Y-86192857D01*
X139573809Y-86878571D02*
X139611904Y-86802380D01*
X139611904Y-86650000D01*
X139573809Y-86573809D01*
X139497619Y-86535714D01*
X139192857Y-86535714D01*
X139116666Y-86573809D01*
X139078571Y-86650000D01*
X139078571Y-86802380D01*
X139116666Y-86878571D01*
X139192857Y-86916666D01*
X139269047Y-86916666D01*
X139345238Y-86535714D01*
X139611904Y-87183333D02*
X139078571Y-87602380D01*
X139078571Y-87183333D02*
X139611904Y-87602380D01*
X139078571Y-87792857D02*
X139078571Y-88097619D01*
X138811904Y-87907142D02*
X139497619Y-87907142D01*
X139573809Y-87945238D01*
X139611904Y-88021428D01*
X139611904Y-88097619D01*
X141433571Y-68027619D02*
X142081190Y-68027619D01*
X142157380Y-67989523D01*
X142195476Y-67951428D01*
X142233571Y-67875238D01*
X142233571Y-67760952D01*
X142195476Y-67684761D01*
X141928809Y-68027619D02*
X141966904Y-67951428D01*
X141966904Y-67799047D01*
X141928809Y-67722857D01*
X141890714Y-67684761D01*
X141814523Y-67646666D01*
X141585952Y-67646666D01*
X141509761Y-67684761D01*
X141471666Y-67722857D01*
X141433571Y-67799047D01*
X141433571Y-67951428D01*
X141471666Y-68027619D01*
X141433571Y-68408571D02*
X141966904Y-68408571D01*
X141509761Y-68408571D02*
X141471666Y-68446666D01*
X141433571Y-68522857D01*
X141433571Y-68637142D01*
X141471666Y-68713333D01*
X141547857Y-68751428D01*
X141966904Y-68751428D01*
X141966904Y-69475238D02*
X141166904Y-69475238D01*
X141928809Y-69475238D02*
X141966904Y-69399047D01*
X141966904Y-69246666D01*
X141928809Y-69170476D01*
X141890714Y-69132380D01*
X141814523Y-69094285D01*
X141585952Y-69094285D01*
X141509761Y-69132380D01*
X141471666Y-69170476D01*
X141433571Y-69246666D01*
X141433571Y-69399047D01*
X141471666Y-69475238D01*
X141928809Y-63900238D02*
X141966904Y-63976428D01*
X141966904Y-64128809D01*
X141928809Y-64205000D01*
X141852619Y-64243095D01*
X141814523Y-64243095D01*
X141738333Y-64205000D01*
X141700238Y-64128809D01*
X141700238Y-64014523D01*
X141662142Y-63938333D01*
X141585952Y-63900238D01*
X141547857Y-63900238D01*
X141471666Y-63938333D01*
X141433571Y-64014523D01*
X141433571Y-64128809D01*
X141471666Y-64205000D01*
X141433571Y-64509761D02*
X141966904Y-64662142D01*
X141585952Y-64814523D01*
X141966904Y-64966904D01*
X141433571Y-65119285D01*
X141966904Y-65766904D02*
X141166904Y-65766904D01*
X141928809Y-65766904D02*
X141966904Y-65690714D01*
X141966904Y-65538333D01*
X141928809Y-65462142D01*
X141890714Y-65424047D01*
X141814523Y-65385952D01*
X141585952Y-65385952D01*
X141509761Y-65424047D01*
X141471666Y-65462142D01*
X141433571Y-65538333D01*
X141433571Y-65690714D01*
X141471666Y-65766904D01*
X141966904Y-66147857D02*
X141433571Y-66147857D01*
X141166904Y-66147857D02*
X141205000Y-66109761D01*
X141243095Y-66147857D01*
X141205000Y-66185952D01*
X141166904Y-66147857D01*
X141243095Y-66147857D01*
X141966904Y-66643095D02*
X141928809Y-66566904D01*
X141890714Y-66528809D01*
X141814523Y-66490714D01*
X141585952Y-66490714D01*
X141509761Y-66528809D01*
X141471666Y-66566904D01*
X141433571Y-66643095D01*
X141433571Y-66757380D01*
X141471666Y-66833571D01*
X141509761Y-66871666D01*
X141585952Y-66909761D01*
X141814523Y-66909761D01*
X141890714Y-66871666D01*
X141928809Y-66833571D01*
X141966904Y-66757380D01*
X141966904Y-66643095D01*
D12*
X134083333Y-78270000D02*
X133850000Y-78270000D01*
X133750000Y-78636666D02*
X134083333Y-78636666D01*
X134083333Y-77936666D01*
X133750000Y-77936666D01*
X133050000Y-78570000D02*
X133083333Y-78603333D01*
X133183333Y-78636666D01*
X133250000Y-78636666D01*
X133350000Y-78603333D01*
X133416666Y-78536666D01*
X133450000Y-78470000D01*
X133483333Y-78336666D01*
X133483333Y-78236666D01*
X133450000Y-78103333D01*
X133416666Y-78036666D01*
X133350000Y-77970000D01*
X133250000Y-77936666D01*
X133183333Y-77936666D01*
X133083333Y-77970000D01*
X133050000Y-78003333D01*
X132383333Y-78636666D02*
X132783333Y-78636666D01*
X132583333Y-78636666D02*
X132583333Y-77936666D01*
X132650000Y-78036666D01*
X132716666Y-78103333D01*
X132783333Y-78136666D01*
X131983333Y-78236666D02*
X132050000Y-78203333D01*
X132083333Y-78170000D01*
X132116666Y-78103333D01*
X132116666Y-78070000D01*
X132083333Y-78003333D01*
X132050000Y-77970000D01*
X131983333Y-77936666D01*
X131850000Y-77936666D01*
X131783333Y-77970000D01*
X131750000Y-78003333D01*
X131716666Y-78070000D01*
X131716666Y-78103333D01*
X131750000Y-78170000D01*
X131783333Y-78203333D01*
X131850000Y-78236666D01*
X131983333Y-78236666D01*
X132050000Y-78270000D01*
X132083333Y-78303333D01*
X132116666Y-78370000D01*
X132116666Y-78503333D01*
X132083333Y-78570000D01*
X132050000Y-78603333D01*
X131983333Y-78636666D01*
X131850000Y-78636666D01*
X131783333Y-78603333D01*
X131750000Y-78570000D01*
X131716666Y-78503333D01*
X131716666Y-78370000D01*
X131750000Y-78303333D01*
X131783333Y-78270000D01*
X131850000Y-78236666D01*
X131483333Y-77936666D02*
X131050000Y-77936666D01*
X131283333Y-78203333D01*
X131183333Y-78203333D01*
X131116666Y-78236666D01*
X131083333Y-78270000D01*
X131050000Y-78336666D01*
X131050000Y-78503333D01*
X131083333Y-78570000D01*
X131116666Y-78603333D01*
X131183333Y-78636666D01*
X131383333Y-78636666D01*
X131450000Y-78603333D01*
X131483333Y-78570000D01*
X130783333Y-78003333D02*
X130750000Y-77970000D01*
X130683333Y-77936666D01*
X130516666Y-77936666D01*
X130450000Y-77970000D01*
X130416666Y-78003333D01*
X130383333Y-78070000D01*
X130383333Y-78136666D01*
X130416666Y-78236666D01*
X130816666Y-78636666D01*
X130383333Y-78636666D01*
X137050000Y-79116666D02*
X136650000Y-79116666D01*
X136850000Y-79816666D02*
X136850000Y-79116666D01*
X136150000Y-79783333D02*
X136216666Y-79816666D01*
X136350000Y-79816666D01*
X136416666Y-79783333D01*
X136450000Y-79716666D01*
X136450000Y-79450000D01*
X136416666Y-79383333D01*
X136350000Y-79350000D01*
X136216666Y-79350000D01*
X136150000Y-79383333D01*
X136116666Y-79450000D01*
X136116666Y-79516666D01*
X136450000Y-79583333D01*
X135816666Y-79350000D02*
X135816666Y-80050000D01*
X135816666Y-79383333D02*
X135750000Y-79350000D01*
X135616666Y-79350000D01*
X135550000Y-79383333D01*
X135516666Y-79416666D01*
X135483333Y-79483333D01*
X135483333Y-79683333D01*
X135516666Y-79750000D01*
X135550000Y-79783333D01*
X135616666Y-79816666D01*
X135750000Y-79816666D01*
X135816666Y-79783333D01*
X135183333Y-79816666D02*
X135183333Y-79350000D01*
X134983333Y-79716666D01*
X134783333Y-79350000D01*
X134783333Y-79816666D01*
X134450000Y-79350000D02*
X134450000Y-79816666D01*
X134116666Y-79350000D01*
X134116666Y-79816666D01*
X133783333Y-79583333D02*
X133483333Y-79583333D01*
X133783333Y-79350000D02*
X133783333Y-79816666D01*
X133483333Y-79350000D02*
X133483333Y-79816666D01*
X132850000Y-79816666D02*
X132850000Y-79450000D01*
X132883333Y-79383333D01*
X132950000Y-79350000D01*
X133083333Y-79350000D01*
X133150000Y-79383333D01*
X132850000Y-79783333D02*
X132916666Y-79816666D01*
X133083333Y-79816666D01*
X133150000Y-79783333D01*
X133183333Y-79716666D01*
X133183333Y-79650000D01*
X133150000Y-79583333D01*
X133083333Y-79550000D01*
X132916666Y-79550000D01*
X132850000Y-79516666D01*
X132250000Y-79816666D02*
X132250000Y-79350000D01*
X132350000Y-79350000D01*
X132416666Y-79383333D01*
X132450000Y-79450000D01*
X132483333Y-79716666D01*
X132516666Y-79783333D01*
X132583333Y-79816666D01*
X131650000Y-79783333D02*
X131716666Y-79816666D01*
X131850000Y-79816666D01*
X131916666Y-79783333D01*
X131950000Y-79716666D01*
X131950000Y-79450000D01*
X131916666Y-79383333D01*
X131850000Y-79350000D01*
X131716666Y-79350000D01*
X131650000Y-79383333D01*
X131616666Y-79450000D01*
X131616666Y-79516666D01*
X131950000Y-79583333D01*
X131316666Y-79583333D02*
X131016666Y-79583333D01*
X131316666Y-79350000D02*
X131316666Y-79816666D01*
X131016666Y-79350000D02*
X131016666Y-79816666D01*
X129983333Y-79583333D02*
X129883333Y-79616666D01*
X129850000Y-79683333D01*
X129850000Y-79716666D01*
X129883333Y-79783333D01*
X129950000Y-79816666D01*
X130150000Y-79816666D01*
X130150000Y-79350000D01*
X129983333Y-79350000D01*
X129916666Y-79383333D01*
X129883333Y-79450000D01*
X129883333Y-79483333D01*
X129916666Y-79550000D01*
X129983333Y-79583333D01*
X130150000Y-79583333D01*
X129650000Y-79350000D02*
X129516666Y-79350000D01*
X129516666Y-79816666D01*
X129350000Y-79816666D01*
X129283333Y-79783333D01*
X129250000Y-79716666D01*
X129250000Y-79616666D01*
X129283333Y-79550000D01*
X129350000Y-79516666D01*
X129516666Y-79516666D01*
X128883333Y-79583333D02*
X128816666Y-79583333D01*
X129016666Y-79383333D02*
X128950000Y-79350000D01*
X128816666Y-79350000D01*
X128750000Y-79383333D01*
X128716666Y-79450000D01*
X128716666Y-79483333D01*
X128750000Y-79550000D01*
X128816666Y-79583333D01*
X128750000Y-79616666D01*
X128716666Y-79683333D01*
X128716666Y-79716666D01*
X128750000Y-79783333D01*
X128816666Y-79816666D01*
X128950000Y-79816666D01*
X129016666Y-79783333D01*
X128150000Y-79783333D02*
X128216666Y-79816666D01*
X128350000Y-79816666D01*
X128416666Y-79783333D01*
X128450000Y-79716666D01*
X128450000Y-79450000D01*
X128416666Y-79383333D01*
X128350000Y-79350000D01*
X128216666Y-79350000D01*
X128150000Y-79383333D01*
X128116666Y-79450000D01*
X128116666Y-79516666D01*
X128450000Y-79583333D01*
X127550000Y-79816666D02*
X127550000Y-79350000D01*
X127650000Y-79350000D01*
X127716666Y-79383333D01*
X127750000Y-79450000D01*
X127783333Y-79716666D01*
X127816666Y-79783333D01*
X127883333Y-79816666D01*
X135033333Y-80996666D02*
X135433333Y-80996666D01*
X135233333Y-80996666D02*
X135233333Y-80296666D01*
X135300000Y-80396666D01*
X135366666Y-80463333D01*
X135433333Y-80496666D01*
X134633333Y-80596666D02*
X134700000Y-80563333D01*
X134733333Y-80530000D01*
X134766666Y-80463333D01*
X134766666Y-80430000D01*
X134733333Y-80363333D01*
X134700000Y-80330000D01*
X134633333Y-80296666D01*
X134500000Y-80296666D01*
X134433333Y-80330000D01*
X134400000Y-80363333D01*
X134366666Y-80430000D01*
X134366666Y-80463333D01*
X134400000Y-80530000D01*
X134433333Y-80563333D01*
X134500000Y-80596666D01*
X134633333Y-80596666D01*
X134700000Y-80630000D01*
X134733333Y-80663333D01*
X134766666Y-80730000D01*
X134766666Y-80863333D01*
X134733333Y-80930000D01*
X134700000Y-80963333D01*
X134633333Y-80996666D01*
X134500000Y-80996666D01*
X134433333Y-80963333D01*
X134400000Y-80930000D01*
X134366666Y-80863333D01*
X134366666Y-80730000D01*
X134400000Y-80663333D01*
X134433333Y-80630000D01*
X134500000Y-80596666D01*
X133933333Y-80296666D02*
X133866666Y-80296666D01*
X133800000Y-80330000D01*
X133766666Y-80363333D01*
X133733333Y-80430000D01*
X133700000Y-80563333D01*
X133700000Y-80730000D01*
X133733333Y-80863333D01*
X133766666Y-80930000D01*
X133800000Y-80963333D01*
X133866666Y-80996666D01*
X133933333Y-80996666D01*
X134000000Y-80963333D01*
X134033333Y-80930000D01*
X134066666Y-80863333D01*
X134100000Y-80730000D01*
X134100000Y-80563333D01*
X134066666Y-80430000D01*
X134033333Y-80363333D01*
X134000000Y-80330000D01*
X133933333Y-80296666D01*
X133466666Y-80296666D02*
X133000000Y-80296666D01*
X133300000Y-80996666D01*
X132766666Y-80363333D02*
X132733333Y-80330000D01*
X132666666Y-80296666D01*
X132500000Y-80296666D01*
X132433333Y-80330000D01*
X132400000Y-80363333D01*
X132366666Y-80430000D01*
X132366666Y-80496666D01*
X132400000Y-80596666D01*
X132800000Y-80996666D01*
X132366666Y-80996666D01*
X131933333Y-80296666D02*
X131866666Y-80296666D01*
X131800000Y-80330000D01*
X131766666Y-80363333D01*
X131733333Y-80430000D01*
X131700000Y-80563333D01*
X131700000Y-80730000D01*
X131733333Y-80863333D01*
X131766666Y-80930000D01*
X131800000Y-80963333D01*
X131866666Y-80996666D01*
X131933333Y-80996666D01*
X132000000Y-80963333D01*
X132033333Y-80930000D01*
X132066666Y-80863333D01*
X132100000Y-80730000D01*
X132100000Y-80563333D01*
X132066666Y-80430000D01*
X132033333Y-80363333D01*
X132000000Y-80330000D01*
X131933333Y-80296666D01*
X131033333Y-80996666D02*
X131433333Y-80996666D01*
X131233333Y-80996666D02*
X131233333Y-80296666D01*
X131300000Y-80396666D01*
X131366666Y-80463333D01*
X131433333Y-80496666D01*
X130700000Y-80996666D02*
X130566666Y-80996666D01*
X130500000Y-80963333D01*
X130466666Y-80930000D01*
X130400000Y-80830000D01*
X130366666Y-80696666D01*
X130366666Y-80430000D01*
X130400000Y-80363333D01*
X130433333Y-80330000D01*
X130500000Y-80296666D01*
X130633333Y-80296666D01*
X130700000Y-80330000D01*
X130733333Y-80363333D01*
X130766666Y-80430000D01*
X130766666Y-80596666D01*
X130733333Y-80663333D01*
X130700000Y-80696666D01*
X130633333Y-80730000D01*
X130500000Y-80730000D01*
X130433333Y-80696666D01*
X130400000Y-80663333D01*
X130366666Y-80596666D01*
X129766666Y-80996666D02*
X129766666Y-80630000D01*
X129800000Y-80563333D01*
X129866666Y-80530000D01*
X130000000Y-80530000D01*
X130066666Y-80563333D01*
X129766666Y-80963333D02*
X129833333Y-80996666D01*
X130000000Y-80996666D01*
X130066666Y-80963333D01*
X130100000Y-80896666D01*
X130100000Y-80830000D01*
X130066666Y-80763333D01*
X130000000Y-80730000D01*
X129833333Y-80730000D01*
X129766666Y-80696666D01*
X129300000Y-80296666D02*
X129233333Y-80296666D01*
X129166666Y-80330000D01*
X129133333Y-80363333D01*
X129100000Y-80430000D01*
X129066666Y-80563333D01*
X129066666Y-80730000D01*
X129100000Y-80863333D01*
X129133333Y-80930000D01*
X129166666Y-80963333D01*
X129233333Y-80996666D01*
X129300000Y-80996666D01*
X129366666Y-80963333D01*
X129400000Y-80930000D01*
X129433333Y-80863333D01*
X129466666Y-80730000D01*
X129466666Y-80563333D01*
X129433333Y-80430000D01*
X129400000Y-80363333D01*
X129366666Y-80330000D01*
X129300000Y-80296666D01*
D10*
X146005476Y-90531904D02*
X145586428Y-89998571D01*
X146005476Y-89998571D02*
X145586428Y-90531904D01*
X144938809Y-89998571D02*
X144938809Y-90531904D01*
X145129285Y-89693809D02*
X145319761Y-90265238D01*
X144824523Y-90265238D01*
X119335476Y-90531904D02*
X118916428Y-89998571D01*
X119335476Y-89998571D02*
X118916428Y-90531904D01*
X118687857Y-89731904D02*
X118192619Y-89731904D01*
X118459285Y-90036666D01*
X118345000Y-90036666D01*
X118268809Y-90074761D01*
X118230714Y-90112857D01*
X118192619Y-90189047D01*
X118192619Y-90379523D01*
X118230714Y-90455714D01*
X118268809Y-90493809D01*
X118345000Y-90531904D01*
X118573571Y-90531904D01*
X118649761Y-90493809D01*
X118687857Y-90455714D01*
X146005476Y-60051904D02*
X145586428Y-59518571D01*
X146005476Y-59518571D02*
X145586428Y-60051904D01*
X145319761Y-59328095D02*
X145281666Y-59290000D01*
X145205476Y-59251904D01*
X145015000Y-59251904D01*
X144938809Y-59290000D01*
X144900714Y-59328095D01*
X144862619Y-59404285D01*
X144862619Y-59480476D01*
X144900714Y-59594761D01*
X145357857Y-60051904D01*
X144862619Y-60051904D01*
X119335476Y-60051904D02*
X118916428Y-59518571D01*
X119335476Y-59518571D02*
X118916428Y-60051904D01*
X118192619Y-60051904D02*
X118649761Y-60051904D01*
X118421190Y-60051904D02*
X118421190Y-59251904D01*
X118497380Y-59366190D01*
X118573571Y-59442380D01*
X118649761Y-59480476D01*
D13*
X118110000Y-81280000D02*
X117475000Y-81280000D01*
X118110000Y-73660000D02*
X117475000Y-73660000D01*
X118110000Y-78740000D02*
X117475000Y-78740000D01*
X118110000Y-71120000D02*
X117475000Y-71120000D01*
X118110000Y-66040000D02*
X117475000Y-66040000D01*
X118110000Y-83820000D02*
X117475000Y-83820000D01*
X118110000Y-68580000D02*
X117475000Y-68580000D01*
X118110000Y-76200000D02*
X117475000Y-76200000D01*
X118110000Y-86360000D02*
X117475000Y-86360000D01*
D10*
X117119285Y-76028571D02*
X117119285Y-76828571D01*
X117119285Y-76066666D02*
X117043095Y-76028571D01*
X116890714Y-76028571D01*
X116814523Y-76066666D01*
X116776428Y-76104761D01*
X116738333Y-76180952D01*
X116738333Y-76409523D01*
X116776428Y-76485714D01*
X116814523Y-76523809D01*
X116890714Y-76561904D01*
X117043095Y-76561904D01*
X117119285Y-76523809D01*
X116052619Y-76561904D02*
X116052619Y-76142857D01*
X116090714Y-76066666D01*
X116166904Y-76028571D01*
X116319285Y-76028571D01*
X116395476Y-76066666D01*
X116052619Y-76523809D02*
X116128809Y-76561904D01*
X116319285Y-76561904D01*
X116395476Y-76523809D01*
X116433571Y-76447619D01*
X116433571Y-76371428D01*
X116395476Y-76295238D01*
X116319285Y-76257142D01*
X116128809Y-76257142D01*
X116052619Y-76219047D01*
X115519285Y-75761904D02*
X115443095Y-75761904D01*
X115366904Y-75800000D01*
X115328809Y-75838095D01*
X115290714Y-75914285D01*
X115252619Y-76066666D01*
X115252619Y-76257142D01*
X115290714Y-76409523D01*
X115328809Y-76485714D01*
X115366904Y-76523809D01*
X115443095Y-76561904D01*
X115519285Y-76561904D01*
X115595476Y-76523809D01*
X115633571Y-76485714D01*
X115671666Y-76409523D01*
X115709761Y-76257142D01*
X115709761Y-76066666D01*
X115671666Y-75914285D01*
X115633571Y-75838095D01*
X115595476Y-75800000D01*
X115519285Y-75761904D01*
X117119285Y-81108571D02*
X117119285Y-81908571D01*
X117119285Y-81146666D02*
X117043095Y-81108571D01*
X116890714Y-81108571D01*
X116814523Y-81146666D01*
X116776428Y-81184761D01*
X116738333Y-81260952D01*
X116738333Y-81489523D01*
X116776428Y-81565714D01*
X116814523Y-81603809D01*
X116890714Y-81641904D01*
X117043095Y-81641904D01*
X117119285Y-81603809D01*
X116052619Y-81641904D02*
X116052619Y-81222857D01*
X116090714Y-81146666D01*
X116166904Y-81108571D01*
X116319285Y-81108571D01*
X116395476Y-81146666D01*
X116052619Y-81603809D02*
X116128809Y-81641904D01*
X116319285Y-81641904D01*
X116395476Y-81603809D01*
X116433571Y-81527619D01*
X116433571Y-81451428D01*
X116395476Y-81375238D01*
X116319285Y-81337142D01*
X116128809Y-81337142D01*
X116052619Y-81299047D01*
X115709761Y-80918095D02*
X115671666Y-80880000D01*
X115595476Y-80841904D01*
X115405000Y-80841904D01*
X115328809Y-80880000D01*
X115290714Y-80918095D01*
X115252619Y-80994285D01*
X115252619Y-81070476D01*
X115290714Y-81184761D01*
X115747857Y-81641904D01*
X115252619Y-81641904D01*
X117119285Y-78568571D02*
X117119285Y-79368571D01*
X117119285Y-78606666D02*
X117043095Y-78568571D01*
X116890714Y-78568571D01*
X116814523Y-78606666D01*
X116776428Y-78644761D01*
X116738333Y-78720952D01*
X116738333Y-78949523D01*
X116776428Y-79025714D01*
X116814523Y-79063809D01*
X116890714Y-79101904D01*
X117043095Y-79101904D01*
X117119285Y-79063809D01*
X116052619Y-79101904D02*
X116052619Y-78682857D01*
X116090714Y-78606666D01*
X116166904Y-78568571D01*
X116319285Y-78568571D01*
X116395476Y-78606666D01*
X116052619Y-79063809D02*
X116128809Y-79101904D01*
X116319285Y-79101904D01*
X116395476Y-79063809D01*
X116433571Y-78987619D01*
X116433571Y-78911428D01*
X116395476Y-78835238D01*
X116319285Y-78797142D01*
X116128809Y-78797142D01*
X116052619Y-78759047D01*
X115252619Y-79101904D02*
X115709761Y-79101904D01*
X115481190Y-79101904D02*
X115481190Y-78301904D01*
X115557380Y-78416190D01*
X115633571Y-78492380D01*
X115709761Y-78530476D01*
X117119285Y-73488571D02*
X116928809Y-74021904D01*
X116738333Y-73488571D01*
X116090714Y-74021904D02*
X116090714Y-73221904D01*
X116090714Y-73983809D02*
X116166904Y-74021904D01*
X116319285Y-74021904D01*
X116395476Y-73983809D01*
X116433571Y-73945714D01*
X116471666Y-73869523D01*
X116471666Y-73640952D01*
X116433571Y-73564761D01*
X116395476Y-73526666D01*
X116319285Y-73488571D01*
X116166904Y-73488571D01*
X116090714Y-73526666D01*
X115366904Y-74021904D02*
X115366904Y-73221904D01*
X115366904Y-73983809D02*
X115443095Y-74021904D01*
X115595476Y-74021904D01*
X115671666Y-73983809D01*
X115709761Y-73945714D01*
X115747857Y-73869523D01*
X115747857Y-73640952D01*
X115709761Y-73564761D01*
X115671666Y-73526666D01*
X115595476Y-73488571D01*
X115443095Y-73488571D01*
X115366904Y-73526666D01*
X117709761Y-63861904D02*
X117709761Y-63061904D01*
X117709761Y-63366666D02*
X117633571Y-63328571D01*
X117481190Y-63328571D01*
X117405000Y-63366666D01*
X117366904Y-63404761D01*
X117328809Y-63480952D01*
X117328809Y-63709523D01*
X117366904Y-63785714D01*
X117405000Y-63823809D01*
X117481190Y-63861904D01*
X117633571Y-63861904D01*
X117709761Y-63823809D01*
X116871666Y-63861904D02*
X116947857Y-63823809D01*
X116985952Y-63785714D01*
X117024047Y-63709523D01*
X117024047Y-63480952D01*
X116985952Y-63404761D01*
X116947857Y-63366666D01*
X116871666Y-63328571D01*
X116757380Y-63328571D01*
X116681190Y-63366666D01*
X116643095Y-63404761D01*
X116605000Y-63480952D01*
X116605000Y-63709523D01*
X116643095Y-63785714D01*
X116681190Y-63823809D01*
X116757380Y-63861904D01*
X116871666Y-63861904D01*
X116147857Y-63861904D02*
X116224047Y-63823809D01*
X116262142Y-63785714D01*
X116300238Y-63709523D01*
X116300238Y-63480952D01*
X116262142Y-63404761D01*
X116224047Y-63366666D01*
X116147857Y-63328571D01*
X116033571Y-63328571D01*
X115957380Y-63366666D01*
X115919285Y-63404761D01*
X115881190Y-63480952D01*
X115881190Y-63709523D01*
X115919285Y-63785714D01*
X115957380Y-63823809D01*
X116033571Y-63861904D01*
X116147857Y-63861904D01*
X115652619Y-63328571D02*
X115347857Y-63328571D01*
X115538333Y-63061904D02*
X115538333Y-63747619D01*
X115500238Y-63823809D01*
X115424047Y-63861904D01*
X115347857Y-63861904D01*
X114928809Y-63061904D02*
X114852619Y-63061904D01*
X114776428Y-63100000D01*
X114738333Y-63138095D01*
X114700238Y-63214285D01*
X114662142Y-63366666D01*
X114662142Y-63557142D01*
X114700238Y-63709523D01*
X114738333Y-63785714D01*
X114776428Y-63823809D01*
X114852619Y-63861904D01*
X114928809Y-63861904D01*
X115005000Y-63823809D01*
X115043095Y-63785714D01*
X115081190Y-63709523D01*
X115119285Y-63557142D01*
X115119285Y-63366666D01*
X115081190Y-63214285D01*
X115043095Y-63138095D01*
X115005000Y-63100000D01*
X114928809Y-63061904D01*
X116909761Y-86046904D02*
X116909761Y-85627857D01*
X116947857Y-85551666D01*
X117024047Y-85513571D01*
X117176428Y-85513571D01*
X117252619Y-85551666D01*
X116909761Y-86008809D02*
X116985952Y-86046904D01*
X117176428Y-86046904D01*
X117252619Y-86008809D01*
X117290714Y-85932619D01*
X117290714Y-85856428D01*
X117252619Y-85780238D01*
X117176428Y-85742142D01*
X116985952Y-85742142D01*
X116909761Y-85704047D01*
X116185952Y-85513571D02*
X116185952Y-86046904D01*
X116376428Y-85208809D02*
X116566904Y-85780238D01*
X116071666Y-85780238D01*
X115119285Y-86046904D02*
X115157380Y-86046904D01*
X115233571Y-86008809D01*
X115347857Y-85894523D01*
X115538333Y-85665952D01*
X115614523Y-85551666D01*
X115652619Y-85437380D01*
X115652619Y-85361190D01*
X115614523Y-85285000D01*
X115538333Y-85246904D01*
X115500238Y-85246904D01*
X115424047Y-85285000D01*
X115385952Y-85361190D01*
X115385952Y-85399285D01*
X115424047Y-85475476D01*
X115462142Y-85513571D01*
X115690714Y-85665952D01*
X115728809Y-85704047D01*
X115766904Y-85780238D01*
X115766904Y-85894523D01*
X115728809Y-85970714D01*
X115690714Y-86008809D01*
X115614523Y-86046904D01*
X115500238Y-86046904D01*
X115424047Y-86008809D01*
X115385952Y-85970714D01*
X115271666Y-85818333D01*
X115233571Y-85704047D01*
X115233571Y-85627857D01*
X117919285Y-87358809D02*
X117843095Y-87396904D01*
X117690714Y-87396904D01*
X117614523Y-87358809D01*
X117576428Y-87282619D01*
X117576428Y-87244523D01*
X117614523Y-87168333D01*
X117690714Y-87130238D01*
X117805000Y-87130238D01*
X117881190Y-87092142D01*
X117919285Y-87015952D01*
X117919285Y-86977857D01*
X117881190Y-86901666D01*
X117805000Y-86863571D01*
X117690714Y-86863571D01*
X117614523Y-86901666D01*
X117309761Y-86863571D02*
X117157380Y-87396904D01*
X117005000Y-87015952D01*
X116852619Y-87396904D01*
X116700238Y-86863571D01*
X116395476Y-87396904D02*
X116395476Y-86863571D01*
X116395476Y-86596904D02*
X116433571Y-86635000D01*
X116395476Y-86673095D01*
X116357380Y-86635000D01*
X116395476Y-86596904D01*
X116395476Y-86673095D01*
X116128809Y-86863571D02*
X115824047Y-86863571D01*
X116014523Y-86596904D02*
X116014523Y-87282619D01*
X115976428Y-87358809D01*
X115900238Y-87396904D01*
X115824047Y-87396904D01*
X115214523Y-87358809D02*
X115290714Y-87396904D01*
X115443095Y-87396904D01*
X115519285Y-87358809D01*
X115557380Y-87320714D01*
X115595476Y-87244523D01*
X115595476Y-87015952D01*
X115557380Y-86939761D01*
X115519285Y-86901666D01*
X115443095Y-86863571D01*
X115290714Y-86863571D01*
X115214523Y-86901666D01*
X114871666Y-87396904D02*
X114871666Y-86596904D01*
X114528809Y-87396904D02*
X114528809Y-86977857D01*
X114566904Y-86901666D01*
X114643095Y-86863571D01*
X114757380Y-86863571D01*
X114833571Y-86901666D01*
X114871666Y-86939761D01*
X117252619Y-68266904D02*
X117252619Y-67466904D01*
X116795476Y-68266904D01*
X116795476Y-67466904D01*
X115957380Y-68190714D02*
X115995476Y-68228809D01*
X116109761Y-68266904D01*
X116185952Y-68266904D01*
X116300238Y-68228809D01*
X116376428Y-68152619D01*
X116414523Y-68076428D01*
X116452619Y-67924047D01*
X116452619Y-67809761D01*
X116414523Y-67657380D01*
X116376428Y-67581190D01*
X116300238Y-67505000D01*
X116185952Y-67466904D01*
X116109761Y-67466904D01*
X115995476Y-67505000D01*
X115957380Y-67543095D01*
X115043095Y-67428809D02*
X115728809Y-68457380D01*
X116985952Y-69616904D02*
X116985952Y-68816904D01*
X116909761Y-69312142D02*
X116681190Y-69616904D01*
X116681190Y-69083571D02*
X116985952Y-69388333D01*
X116033571Y-69578809D02*
X116109761Y-69616904D01*
X116262142Y-69616904D01*
X116338333Y-69578809D01*
X116376428Y-69502619D01*
X116376428Y-69197857D01*
X116338333Y-69121666D01*
X116262142Y-69083571D01*
X116109761Y-69083571D01*
X116033571Y-69121666D01*
X115995476Y-69197857D01*
X115995476Y-69274047D01*
X116376428Y-69350238D01*
X115728809Y-69083571D02*
X115538333Y-69616904D01*
X115347857Y-69083571D02*
X115538333Y-69616904D01*
X115614523Y-69807380D01*
X115652619Y-69845476D01*
X115728809Y-69883571D01*
X117119285Y-83648571D02*
X117119285Y-84448571D01*
X117119285Y-83686666D02*
X117043095Y-83648571D01*
X116890714Y-83648571D01*
X116814523Y-83686666D01*
X116776428Y-83724761D01*
X116738333Y-83800952D01*
X116738333Y-84029523D01*
X116776428Y-84105714D01*
X116814523Y-84143809D01*
X116890714Y-84181904D01*
X117043095Y-84181904D01*
X117119285Y-84143809D01*
X116052619Y-84181904D02*
X116052619Y-83762857D01*
X116090714Y-83686666D01*
X116166904Y-83648571D01*
X116319285Y-83648571D01*
X116395476Y-83686666D01*
X116052619Y-84143809D02*
X116128809Y-84181904D01*
X116319285Y-84181904D01*
X116395476Y-84143809D01*
X116433571Y-84067619D01*
X116433571Y-83991428D01*
X116395476Y-83915238D01*
X116319285Y-83877142D01*
X116128809Y-83877142D01*
X116052619Y-83839047D01*
X115747857Y-83381904D02*
X115252619Y-83381904D01*
X115519285Y-83686666D01*
X115405000Y-83686666D01*
X115328809Y-83724761D01*
X115290714Y-83762857D01*
X115252619Y-83839047D01*
X115252619Y-84029523D01*
X115290714Y-84105714D01*
X115328809Y-84143809D01*
X115405000Y-84181904D01*
X115633571Y-84181904D01*
X115709761Y-84143809D01*
X115747857Y-84105714D01*
X117176428Y-70948571D02*
X117176428Y-71481904D01*
X117176428Y-71024761D02*
X117138333Y-70986666D01*
X117062142Y-70948571D01*
X116947857Y-70948571D01*
X116871666Y-70986666D01*
X116833571Y-71062857D01*
X116833571Y-71481904D01*
X116452619Y-71481904D02*
X116452619Y-70948571D01*
X116452619Y-71100952D02*
X116414523Y-71024761D01*
X116376428Y-70986666D01*
X116300238Y-70948571D01*
X116224047Y-70948571D01*
X115995476Y-71443809D02*
X115919285Y-71481904D01*
X115766904Y-71481904D01*
X115690714Y-71443809D01*
X115652619Y-71367619D01*
X115652619Y-71329523D01*
X115690714Y-71253333D01*
X115766904Y-71215238D01*
X115881190Y-71215238D01*
X115957380Y-71177142D01*
X115995476Y-71100952D01*
X115995476Y-71062857D01*
X115957380Y-70986666D01*
X115881190Y-70948571D01*
X115766904Y-70948571D01*
X115690714Y-70986666D01*
X115424047Y-70948571D02*
X115119285Y-70948571D01*
X115309761Y-70681904D02*
X115309761Y-71367619D01*
X115271666Y-71443809D01*
X115195476Y-71481904D01*
X115119285Y-71481904D01*
X116757380Y-65868571D02*
X116757380Y-66516190D01*
X116795476Y-66592380D01*
X116833571Y-66630476D01*
X116909761Y-66668571D01*
X117024047Y-66668571D01*
X117100238Y-66630476D01*
X116757380Y-66363809D02*
X116833571Y-66401904D01*
X116985952Y-66401904D01*
X117062142Y-66363809D01*
X117100238Y-66325714D01*
X117138333Y-66249523D01*
X117138333Y-66020952D01*
X117100238Y-65944761D01*
X117062142Y-65906666D01*
X116985952Y-65868571D01*
X116833571Y-65868571D01*
X116757380Y-65906666D01*
X116376428Y-65868571D02*
X116376428Y-66401904D01*
X116376428Y-65944761D02*
X116338333Y-65906666D01*
X116262142Y-65868571D01*
X116147857Y-65868571D01*
X116071666Y-65906666D01*
X116033571Y-65982857D01*
X116033571Y-66401904D01*
X115309761Y-66401904D02*
X115309761Y-65601904D01*
X115309761Y-66363809D02*
X115385952Y-66401904D01*
X115538333Y-66401904D01*
X115614523Y-66363809D01*
X115652619Y-66325714D01*
X115690714Y-66249523D01*
X115690714Y-66020952D01*
X115652619Y-65944761D01*
X115614523Y-65906666D01*
X115538333Y-65868571D01*
X115385952Y-65868571D01*
X115309761Y-65906666D01*
D13*
X146685000Y-71120000D02*
X146050000Y-71120000D01*
X146050000Y-73660000D02*
X146685000Y-73660000D01*
X146050000Y-76200000D02*
X146685000Y-76200000D01*
X146685000Y-78740000D02*
X146050000Y-78740000D01*
X146050000Y-81280000D02*
X146685000Y-81280000D01*
X146050000Y-83820000D02*
X146685000Y-83820000D01*
X146685000Y-86360000D02*
X146050000Y-86360000D01*
D10*
X148869285Y-71194165D02*
X148869285Y-71994165D01*
X148869285Y-71232260D02*
X148793095Y-71194165D01*
X148640714Y-71194165D01*
X148564523Y-71232260D01*
X148526428Y-71270355D01*
X148488333Y-71346546D01*
X148488333Y-71575117D01*
X148526428Y-71651308D01*
X148564523Y-71689403D01*
X148640714Y-71727498D01*
X148793095Y-71727498D01*
X148869285Y-71689403D01*
X147802619Y-71727498D02*
X147802619Y-71308451D01*
X147840714Y-71232260D01*
X147916904Y-71194165D01*
X148069285Y-71194165D01*
X148145476Y-71232260D01*
X147802619Y-71689403D02*
X147878809Y-71727498D01*
X148069285Y-71727498D01*
X148145476Y-71689403D01*
X148183571Y-71613213D01*
X148183571Y-71537022D01*
X148145476Y-71460832D01*
X148069285Y-71422736D01*
X147878809Y-71422736D01*
X147802619Y-71384641D01*
X147383571Y-71727498D02*
X147231190Y-71727498D01*
X147155000Y-71689403D01*
X147116904Y-71651308D01*
X147040714Y-71537022D01*
X147002619Y-71384641D01*
X147002619Y-71079879D01*
X147040714Y-71003689D01*
X147078809Y-70965594D01*
X147155000Y-70927498D01*
X147307380Y-70927498D01*
X147383571Y-70965594D01*
X147421666Y-71003689D01*
X147459761Y-71079879D01*
X147459761Y-71270355D01*
X147421666Y-71346546D01*
X147383571Y-71384641D01*
X147307380Y-71422736D01*
X147155000Y-71422736D01*
X147078809Y-71384641D01*
X147040714Y-71346546D01*
X147002619Y-71270355D01*
X148659761Y-86046904D02*
X148659761Y-85627857D01*
X148697857Y-85551666D01*
X148774047Y-85513571D01*
X148926428Y-85513571D01*
X149002619Y-85551666D01*
X148659761Y-86008809D02*
X148735952Y-86046904D01*
X148926428Y-86046904D01*
X149002619Y-86008809D01*
X149040714Y-85932619D01*
X149040714Y-85856428D01*
X149002619Y-85780238D01*
X148926428Y-85742142D01*
X148735952Y-85742142D01*
X148659761Y-85704047D01*
X147897857Y-85246904D02*
X148278809Y-85246904D01*
X148316904Y-85627857D01*
X148278809Y-85589761D01*
X148202619Y-85551666D01*
X148012142Y-85551666D01*
X147935952Y-85589761D01*
X147897857Y-85627857D01*
X147859761Y-85704047D01*
X147859761Y-85894523D01*
X147897857Y-85970714D01*
X147935952Y-86008809D01*
X148012142Y-86046904D01*
X148202619Y-86046904D01*
X148278809Y-86008809D01*
X148316904Y-85970714D01*
X146869285Y-86046904D02*
X146907380Y-86046904D01*
X146983571Y-86008809D01*
X147097857Y-85894523D01*
X147288333Y-85665952D01*
X147364523Y-85551666D01*
X147402619Y-85437380D01*
X147402619Y-85361190D01*
X147364523Y-85285000D01*
X147288333Y-85246904D01*
X147250238Y-85246904D01*
X147174047Y-85285000D01*
X147135952Y-85361190D01*
X147135952Y-85399285D01*
X147174047Y-85475476D01*
X147212142Y-85513571D01*
X147440714Y-85665952D01*
X147478809Y-85704047D01*
X147516904Y-85780238D01*
X147516904Y-85894523D01*
X147478809Y-85970714D01*
X147440714Y-86008809D01*
X147364523Y-86046904D01*
X147250238Y-86046904D01*
X147174047Y-86008809D01*
X147135952Y-85970714D01*
X147021666Y-85818333D01*
X146983571Y-85704047D01*
X146983571Y-85627857D01*
X148469285Y-87396904D02*
X148850238Y-87396904D01*
X148850238Y-86596904D01*
X148202619Y-86977857D02*
X147935952Y-86977857D01*
X147821666Y-87396904D02*
X148202619Y-87396904D01*
X148202619Y-86596904D01*
X147821666Y-86596904D01*
X147478809Y-87396904D02*
X147478809Y-86596904D01*
X147288333Y-86596904D01*
X147174047Y-86635000D01*
X147097857Y-86711190D01*
X147059761Y-86787380D01*
X147021666Y-86939761D01*
X147021666Y-87054047D01*
X147059761Y-87206428D01*
X147097857Y-87282619D01*
X147174047Y-87358809D01*
X147288333Y-87396904D01*
X147478809Y-87396904D01*
X148869285Y-83648571D02*
X148869285Y-84448571D01*
X148869285Y-83686666D02*
X148793095Y-83648571D01*
X148640714Y-83648571D01*
X148564523Y-83686666D01*
X148526428Y-83724761D01*
X148488333Y-83800952D01*
X148488333Y-84029523D01*
X148526428Y-84105714D01*
X148564523Y-84143809D01*
X148640714Y-84181904D01*
X148793095Y-84181904D01*
X148869285Y-84143809D01*
X147802619Y-84181904D02*
X147802619Y-83762857D01*
X147840714Y-83686666D01*
X147916904Y-83648571D01*
X148069285Y-83648571D01*
X148145476Y-83686666D01*
X147802619Y-84143809D02*
X147878809Y-84181904D01*
X148069285Y-84181904D01*
X148145476Y-84143809D01*
X148183571Y-84067619D01*
X148183571Y-83991428D01*
X148145476Y-83915238D01*
X148069285Y-83877142D01*
X147878809Y-83877142D01*
X147802619Y-83839047D01*
X147078809Y-83381904D02*
X147231190Y-83381904D01*
X147307380Y-83420000D01*
X147345476Y-83458095D01*
X147421666Y-83572380D01*
X147459761Y-83724761D01*
X147459761Y-84029523D01*
X147421666Y-84105714D01*
X147383571Y-84143809D01*
X147307380Y-84181904D01*
X147155000Y-84181904D01*
X147078809Y-84143809D01*
X147040714Y-84105714D01*
X147002619Y-84029523D01*
X147002619Y-83839047D01*
X147040714Y-83762857D01*
X147078809Y-83724761D01*
X147155000Y-83686666D01*
X147307380Y-83686666D01*
X147383571Y-83724761D01*
X147421666Y-83762857D01*
X147459761Y-83839047D01*
X149250238Y-62899165D02*
X149250238Y-63699165D01*
X149250238Y-62937260D02*
X149174047Y-62899165D01*
X149021666Y-62899165D01*
X148945476Y-62937260D01*
X148907380Y-62975355D01*
X148869285Y-63051546D01*
X148869285Y-63280117D01*
X148907380Y-63356308D01*
X148945476Y-63394403D01*
X149021666Y-63432498D01*
X149174047Y-63432498D01*
X149250238Y-63394403D01*
X148183571Y-63432498D02*
X148183571Y-63013451D01*
X148221666Y-62937260D01*
X148297857Y-62899165D01*
X148450238Y-62899165D01*
X148526428Y-62937260D01*
X148183571Y-63394403D02*
X148259761Y-63432498D01*
X148450238Y-63432498D01*
X148526428Y-63394403D01*
X148564523Y-63318213D01*
X148564523Y-63242022D01*
X148526428Y-63165832D01*
X148450238Y-63127736D01*
X148259761Y-63127736D01*
X148183571Y-63089641D01*
X147383571Y-63432498D02*
X147840714Y-63432498D01*
X147612142Y-63432498D02*
X147612142Y-62632498D01*
X147688333Y-62746784D01*
X147764523Y-62822974D01*
X147840714Y-62861070D01*
X146697857Y-62899165D02*
X146697857Y-63432498D01*
X146888333Y-62594403D02*
X147078809Y-63165832D01*
X146583571Y-63165832D01*
X149421666Y-64744403D02*
X149345476Y-64782498D01*
X149193095Y-64782498D01*
X149116904Y-64744403D01*
X149078809Y-64668213D01*
X149078809Y-64630117D01*
X149116904Y-64553927D01*
X149193095Y-64515832D01*
X149307380Y-64515832D01*
X149383571Y-64477736D01*
X149421666Y-64401546D01*
X149421666Y-64363451D01*
X149383571Y-64287260D01*
X149307380Y-64249165D01*
X149193095Y-64249165D01*
X149116904Y-64287260D01*
X148812142Y-64249165D02*
X148659761Y-64782498D01*
X148507380Y-64401546D01*
X148355000Y-64782498D01*
X148202619Y-64249165D01*
X147555000Y-64744403D02*
X147631190Y-64782498D01*
X147783571Y-64782498D01*
X147859761Y-64744403D01*
X147897857Y-64706308D01*
X147935952Y-64630117D01*
X147935952Y-64401546D01*
X147897857Y-64325355D01*
X147859761Y-64287260D01*
X147783571Y-64249165D01*
X147631190Y-64249165D01*
X147555000Y-64287260D01*
X147097857Y-64782498D02*
X147174047Y-64744403D01*
X147212142Y-64668213D01*
X147212142Y-63982498D01*
X146793095Y-64782498D02*
X146793095Y-63982498D01*
X146716904Y-64477736D02*
X146488333Y-64782498D01*
X146488333Y-64249165D02*
X146793095Y-64553927D01*
X148869285Y-73734165D02*
X148678809Y-74267498D01*
X148488333Y-73734165D01*
X147840714Y-74267498D02*
X147840714Y-73467498D01*
X147840714Y-74229403D02*
X147916904Y-74267498D01*
X148069285Y-74267498D01*
X148145476Y-74229403D01*
X148183571Y-74191308D01*
X148221666Y-74115117D01*
X148221666Y-73886546D01*
X148183571Y-73810355D01*
X148145476Y-73772260D01*
X148069285Y-73734165D01*
X147916904Y-73734165D01*
X147840714Y-73772260D01*
X147116904Y-74267498D02*
X147116904Y-73467498D01*
X147116904Y-74229403D02*
X147193095Y-74267498D01*
X147345476Y-74267498D01*
X147421666Y-74229403D01*
X147459761Y-74191308D01*
X147497857Y-74115117D01*
X147497857Y-73886546D01*
X147459761Y-73810355D01*
X147421666Y-73772260D01*
X147345476Y-73734165D01*
X147193095Y-73734165D01*
X147116904Y-73772260D01*
X148869285Y-78814165D02*
X148869285Y-79614165D01*
X148869285Y-78852260D02*
X148793095Y-78814165D01*
X148640714Y-78814165D01*
X148564523Y-78852260D01*
X148526428Y-78890355D01*
X148488333Y-78966546D01*
X148488333Y-79195117D01*
X148526428Y-79271308D01*
X148564523Y-79309403D01*
X148640714Y-79347498D01*
X148793095Y-79347498D01*
X148869285Y-79309403D01*
X148145476Y-79347498D02*
X148145476Y-78547498D01*
X148145476Y-78852260D02*
X148069285Y-78814165D01*
X147916904Y-78814165D01*
X147840714Y-78852260D01*
X147802619Y-78890355D01*
X147764523Y-78966546D01*
X147764523Y-79195117D01*
X147802619Y-79271308D01*
X147840714Y-79309403D01*
X147916904Y-79347498D01*
X148069285Y-79347498D01*
X148145476Y-79309403D01*
X147002619Y-79347498D02*
X147459761Y-79347498D01*
X147231190Y-79347498D02*
X147231190Y-78547498D01*
X147307380Y-78661784D01*
X147383571Y-78737974D01*
X147459761Y-78776070D01*
X148869285Y-81354165D02*
X148869285Y-82154165D01*
X148869285Y-81392260D02*
X148793095Y-81354165D01*
X148640714Y-81354165D01*
X148564523Y-81392260D01*
X148526428Y-81430355D01*
X148488333Y-81506546D01*
X148488333Y-81735117D01*
X148526428Y-81811308D01*
X148564523Y-81849403D01*
X148640714Y-81887498D01*
X148793095Y-81887498D01*
X148869285Y-81849403D01*
X147802619Y-81887498D02*
X147802619Y-81468451D01*
X147840714Y-81392260D01*
X147916904Y-81354165D01*
X148069285Y-81354165D01*
X148145476Y-81392260D01*
X147802619Y-81849403D02*
X147878809Y-81887498D01*
X148069285Y-81887498D01*
X148145476Y-81849403D01*
X148183571Y-81773213D01*
X148183571Y-81697022D01*
X148145476Y-81620832D01*
X148069285Y-81582736D01*
X147878809Y-81582736D01*
X147802619Y-81544641D01*
X147497857Y-81087498D02*
X146964523Y-81087498D01*
X147307380Y-81887498D01*
X149250238Y-68654165D02*
X149250238Y-69454165D01*
X149250238Y-68692260D02*
X149174047Y-68654165D01*
X149021666Y-68654165D01*
X148945476Y-68692260D01*
X148907380Y-68730355D01*
X148869285Y-68806546D01*
X148869285Y-69035117D01*
X148907380Y-69111308D01*
X148945476Y-69149403D01*
X149021666Y-69187498D01*
X149174047Y-69187498D01*
X149250238Y-69149403D01*
X148183571Y-69187498D02*
X148183571Y-68768451D01*
X148221666Y-68692260D01*
X148297857Y-68654165D01*
X148450238Y-68654165D01*
X148526428Y-68692260D01*
X148183571Y-69149403D02*
X148259761Y-69187498D01*
X148450238Y-69187498D01*
X148526428Y-69149403D01*
X148564523Y-69073213D01*
X148564523Y-68997022D01*
X148526428Y-68920832D01*
X148450238Y-68882736D01*
X148259761Y-68882736D01*
X148183571Y-68844641D01*
X147383571Y-69187498D02*
X147840714Y-69187498D01*
X147612142Y-69187498D02*
X147612142Y-68387498D01*
X147688333Y-68501784D01*
X147764523Y-68577974D01*
X147840714Y-68616070D01*
X146888333Y-68387498D02*
X146812142Y-68387498D01*
X146735952Y-68425594D01*
X146697857Y-68463689D01*
X146659761Y-68539879D01*
X146621666Y-68692260D01*
X146621666Y-68882736D01*
X146659761Y-69035117D01*
X146697857Y-69111308D01*
X146735952Y-69149403D01*
X146812142Y-69187498D01*
X146888333Y-69187498D01*
X146964523Y-69149403D01*
X147002619Y-69111308D01*
X147040714Y-69035117D01*
X147078809Y-68882736D01*
X147078809Y-68692260D01*
X147040714Y-68539879D01*
X147002619Y-68463689D01*
X146964523Y-68425594D01*
X146888333Y-68387498D01*
X149250238Y-65439165D02*
X149250238Y-66239165D01*
X149250238Y-65477260D02*
X149174047Y-65439165D01*
X149021666Y-65439165D01*
X148945476Y-65477260D01*
X148907380Y-65515355D01*
X148869285Y-65591546D01*
X148869285Y-65820117D01*
X148907380Y-65896308D01*
X148945476Y-65934403D01*
X149021666Y-65972498D01*
X149174047Y-65972498D01*
X149250238Y-65934403D01*
X148183571Y-65972498D02*
X148183571Y-65553451D01*
X148221666Y-65477260D01*
X148297857Y-65439165D01*
X148450238Y-65439165D01*
X148526428Y-65477260D01*
X148183571Y-65934403D02*
X148259761Y-65972498D01*
X148450238Y-65972498D01*
X148526428Y-65934403D01*
X148564523Y-65858213D01*
X148564523Y-65782022D01*
X148526428Y-65705832D01*
X148450238Y-65667736D01*
X148259761Y-65667736D01*
X148183571Y-65629641D01*
X147383571Y-65972498D02*
X147840714Y-65972498D01*
X147612142Y-65972498D02*
X147612142Y-65172498D01*
X147688333Y-65286784D01*
X147764523Y-65362974D01*
X147840714Y-65401070D01*
X147116904Y-65172498D02*
X146621666Y-65172498D01*
X146888333Y-65477260D01*
X146774047Y-65477260D01*
X146697857Y-65515355D01*
X146659761Y-65553451D01*
X146621666Y-65629641D01*
X146621666Y-65820117D01*
X146659761Y-65896308D01*
X146697857Y-65934403D01*
X146774047Y-65972498D01*
X147002619Y-65972498D01*
X147078809Y-65934403D01*
X147116904Y-65896308D01*
X149459761Y-67284403D02*
X149383571Y-67322498D01*
X149231190Y-67322498D01*
X149155000Y-67284403D01*
X149116904Y-67208213D01*
X149116904Y-67170117D01*
X149155000Y-67093927D01*
X149231190Y-67055832D01*
X149345476Y-67055832D01*
X149421666Y-67017736D01*
X149459761Y-66941546D01*
X149459761Y-66903451D01*
X149421666Y-66827260D01*
X149345476Y-66789165D01*
X149231190Y-66789165D01*
X149155000Y-66827260D01*
X148850238Y-66789165D02*
X148697857Y-67322498D01*
X148545476Y-66941546D01*
X148393095Y-67322498D01*
X148240714Y-66789165D01*
X147593095Y-67322498D02*
X147593095Y-66522498D01*
X147593095Y-67284403D02*
X147669285Y-67322498D01*
X147821666Y-67322498D01*
X147897857Y-67284403D01*
X147935952Y-67246308D01*
X147974047Y-67170117D01*
X147974047Y-66941546D01*
X147935952Y-66865355D01*
X147897857Y-66827260D01*
X147821666Y-66789165D01*
X147669285Y-66789165D01*
X147593095Y-66827260D01*
X147212142Y-67322498D02*
X147212142Y-66789165D01*
X147212142Y-66522498D02*
X147250238Y-66560594D01*
X147212142Y-66598689D01*
X147174047Y-66560594D01*
X147212142Y-66522498D01*
X147212142Y-66598689D01*
X146716904Y-67322498D02*
X146793095Y-67284403D01*
X146831190Y-67246308D01*
X146869285Y-67170117D01*
X146869285Y-66941546D01*
X146831190Y-66865355D01*
X146793095Y-66827260D01*
X146716904Y-66789165D01*
X146602619Y-66789165D01*
X146526428Y-66827260D01*
X146488333Y-66865355D01*
X146450238Y-66941546D01*
X146450238Y-67170117D01*
X146488333Y-67246308D01*
X146526428Y-67284403D01*
X146602619Y-67322498D01*
X146716904Y-67322498D01*
X148507380Y-76274165D02*
X148507380Y-76921784D01*
X148545476Y-76997974D01*
X148583571Y-77036070D01*
X148659761Y-77074165D01*
X148774047Y-77074165D01*
X148850238Y-77036070D01*
X148507380Y-76769403D02*
X148583571Y-76807498D01*
X148735952Y-76807498D01*
X148812142Y-76769403D01*
X148850238Y-76731308D01*
X148888333Y-76655117D01*
X148888333Y-76426546D01*
X148850238Y-76350355D01*
X148812142Y-76312260D01*
X148735952Y-76274165D01*
X148583571Y-76274165D01*
X148507380Y-76312260D01*
X148126428Y-76274165D02*
X148126428Y-76807498D01*
X148126428Y-76350355D02*
X148088333Y-76312260D01*
X148012142Y-76274165D01*
X147897857Y-76274165D01*
X147821666Y-76312260D01*
X147783571Y-76388451D01*
X147783571Y-76807498D01*
X147059761Y-76807498D02*
X147059761Y-76007498D01*
X147059761Y-76769403D02*
X147135952Y-76807498D01*
X147288333Y-76807498D01*
X147364523Y-76769403D01*
X147402619Y-76731308D01*
X147440714Y-76655117D01*
X147440714Y-76426546D01*
X147402619Y-76350355D01*
X147364523Y-76312260D01*
X147288333Y-76274165D01*
X147135952Y-76274165D01*
X147059761Y-76312260D01*
G04 #@! TO.C,Y1*
X141745000Y-75880000D02*
X141745000Y-70380000D01*
X130245000Y-75880000D02*
X141745000Y-75880000D01*
X130245000Y-70380000D02*
X130245000Y-75880000D01*
X141745000Y-70380000D02*
X130245000Y-70380000D01*
D14*
G04 #@! TO.C,C1*
X124395000Y-71590000D02*
X121535000Y-71590000D01*
X121535000Y-71590000D02*
X121535000Y-69670000D01*
X121535000Y-69670000D02*
X124395000Y-69670000D01*
G04 #@! TO.C,C6*
X129580000Y-70105000D02*
X129580000Y-72965000D01*
X129580000Y-72965000D02*
X127660000Y-72965000D01*
X127660000Y-72965000D02*
X127660000Y-70105000D01*
G04 #@! TO.C,C7*
X127330000Y-73545000D02*
X127330000Y-76405000D01*
X125410000Y-73545000D02*
X127330000Y-73545000D01*
X125410000Y-76405000D02*
X125410000Y-73545000D01*
G04 #@! TO.C,D3*
X139620000Y-76480000D02*
X141620000Y-76480000D01*
X141620000Y-76480000D02*
X141620000Y-80380000D01*
X139620000Y-76480000D02*
X139620000Y-80380000D01*
G04 #@! TO.C,R1*
X123133748Y-62670000D02*
X123656252Y-62670000D01*
X123133748Y-64090000D02*
X123656252Y-64090000D01*
G04 #@! TO.C,R4*
X129330000Y-75143748D02*
X129330000Y-75666252D01*
X127910000Y-75143748D02*
X127910000Y-75666252D01*
G04 #@! TO.C,R5*
X121910000Y-87393748D02*
X121910000Y-87916252D01*
X123330000Y-87393748D02*
X123330000Y-87916252D01*
G04 #@! TO.C,R6*
X121910000Y-83393748D02*
X121910000Y-83916252D01*
X123330000Y-83393748D02*
X123330000Y-83916252D01*
G04 #@! TO.C,Y1*
D10*
X133730952Y-67925952D02*
X133730952Y-68306904D01*
X133997619Y-67506904D02*
X133730952Y-67925952D01*
X133464285Y-67506904D01*
X132778571Y-68306904D02*
X133235714Y-68306904D01*
X133007142Y-68306904D02*
X133007142Y-67506904D01*
X133083333Y-67621190D01*
X133159523Y-67697380D01*
X133235714Y-67735476D01*
X138008095Y-69415714D02*
X138046190Y-69453809D01*
X138160476Y-69491904D01*
X138236666Y-69491904D01*
X138350952Y-69453809D01*
X138427142Y-69377619D01*
X138465238Y-69301428D01*
X138503333Y-69149047D01*
X138503333Y-69034761D01*
X138465238Y-68882380D01*
X138427142Y-68806190D01*
X138350952Y-68730000D01*
X138236666Y-68691904D01*
X138160476Y-68691904D01*
X138046190Y-68730000D01*
X138008095Y-68768095D01*
X137665238Y-69491904D02*
X137665238Y-68958571D01*
X137665238Y-69110952D02*
X137627142Y-69034761D01*
X137589047Y-68996666D01*
X137512857Y-68958571D01*
X137436666Y-68958571D01*
X137246190Y-68958571D02*
X137055714Y-69491904D01*
X136865238Y-68958571D02*
X137055714Y-69491904D01*
X137131904Y-69682380D01*
X137170000Y-69720476D01*
X137246190Y-69758571D01*
X136598571Y-69453809D02*
X136522380Y-69491904D01*
X136370000Y-69491904D01*
X136293809Y-69453809D01*
X136255714Y-69377619D01*
X136255714Y-69339523D01*
X136293809Y-69263333D01*
X136370000Y-69225238D01*
X136484285Y-69225238D01*
X136560476Y-69187142D01*
X136598571Y-69110952D01*
X136598571Y-69072857D01*
X136560476Y-68996666D01*
X136484285Y-68958571D01*
X136370000Y-68958571D01*
X136293809Y-68996666D01*
X136027142Y-68958571D02*
X135722380Y-68958571D01*
X135912857Y-68691904D02*
X135912857Y-69377619D01*
X135874761Y-69453809D01*
X135798571Y-69491904D01*
X135722380Y-69491904D01*
X135112857Y-69491904D02*
X135112857Y-69072857D01*
X135150952Y-68996666D01*
X135227142Y-68958571D01*
X135379523Y-68958571D01*
X135455714Y-68996666D01*
X135112857Y-69453809D02*
X135189047Y-69491904D01*
X135379523Y-69491904D01*
X135455714Y-69453809D01*
X135493809Y-69377619D01*
X135493809Y-69301428D01*
X135455714Y-69225238D01*
X135379523Y-69187142D01*
X135189047Y-69187142D01*
X135112857Y-69149047D01*
X134617619Y-69491904D02*
X134693809Y-69453809D01*
X134731904Y-69377619D01*
X134731904Y-68691904D01*
X133779523Y-68691904D02*
X133284285Y-68691904D01*
X133550952Y-68996666D01*
X133436666Y-68996666D01*
X133360476Y-69034761D01*
X133322380Y-69072857D01*
X133284285Y-69149047D01*
X133284285Y-69339523D01*
X133322380Y-69415714D01*
X133360476Y-69453809D01*
X133436666Y-69491904D01*
X133665238Y-69491904D01*
X133741428Y-69453809D01*
X133779523Y-69415714D01*
X132979523Y-68768095D02*
X132941428Y-68730000D01*
X132865238Y-68691904D01*
X132674761Y-68691904D01*
X132598571Y-68730000D01*
X132560476Y-68768095D01*
X132522380Y-68844285D01*
X132522380Y-68920476D01*
X132560476Y-69034761D01*
X133017619Y-69491904D01*
X132522380Y-69491904D01*
X132255714Y-68691904D02*
X131722380Y-68691904D01*
X132065238Y-69491904D01*
X131074761Y-68691904D02*
X131227142Y-68691904D01*
X131303333Y-68730000D01*
X131341428Y-68768095D01*
X131417619Y-68882380D01*
X131455714Y-69034761D01*
X131455714Y-69339523D01*
X131417619Y-69415714D01*
X131379523Y-69453809D01*
X131303333Y-69491904D01*
X131150952Y-69491904D01*
X131074761Y-69453809D01*
X131036666Y-69415714D01*
X130998571Y-69339523D01*
X130998571Y-69149047D01*
X131036666Y-69072857D01*
X131074761Y-69034761D01*
X131150952Y-68996666D01*
X131303333Y-68996666D01*
X131379523Y-69034761D01*
X131417619Y-69072857D01*
X131455714Y-69149047D01*
X130541428Y-69034761D02*
X130617619Y-68996666D01*
X130655714Y-68958571D01*
X130693809Y-68882380D01*
X130693809Y-68844285D01*
X130655714Y-68768095D01*
X130617619Y-68730000D01*
X130541428Y-68691904D01*
X130389047Y-68691904D01*
X130312857Y-68730000D01*
X130274761Y-68768095D01*
X130236666Y-68844285D01*
X130236666Y-68882380D01*
X130274761Y-68958571D01*
X130312857Y-68996666D01*
X130389047Y-69034761D01*
X130541428Y-69034761D01*
X130617619Y-69072857D01*
X130655714Y-69110952D01*
X130693809Y-69187142D01*
X130693809Y-69339523D01*
X130655714Y-69415714D01*
X130617619Y-69453809D01*
X130541428Y-69491904D01*
X130389047Y-69491904D01*
X130312857Y-69453809D01*
X130274761Y-69415714D01*
X130236666Y-69339523D01*
X130236666Y-69187142D01*
X130274761Y-69110952D01*
X130312857Y-69072857D01*
X130389047Y-69034761D01*
G04 #@! TO.C,C1*
X123528333Y-72565714D02*
X123566428Y-72603809D01*
X123680714Y-72641904D01*
X123756904Y-72641904D01*
X123871190Y-72603809D01*
X123947380Y-72527619D01*
X123985476Y-72451428D01*
X124023571Y-72299047D01*
X124023571Y-72184761D01*
X123985476Y-72032380D01*
X123947380Y-71956190D01*
X123871190Y-71880000D01*
X123756904Y-71841904D01*
X123680714Y-71841904D01*
X123566428Y-71880000D01*
X123528333Y-71918095D01*
X122766428Y-72641904D02*
X123223571Y-72641904D01*
X122995000Y-72641904D02*
X122995000Y-71841904D01*
X123071190Y-71956190D01*
X123147380Y-72032380D01*
X123223571Y-72070476D01*
X124633095Y-69341904D02*
X125090238Y-69341904D01*
X124861666Y-69341904D02*
X124861666Y-68541904D01*
X124937857Y-68656190D01*
X125014047Y-68732380D01*
X125090238Y-68770476D01*
X124137857Y-68541904D02*
X124061666Y-68541904D01*
X123985476Y-68580000D01*
X123947380Y-68618095D01*
X123909285Y-68694285D01*
X123871190Y-68846666D01*
X123871190Y-69037142D01*
X123909285Y-69189523D01*
X123947380Y-69265714D01*
X123985476Y-69303809D01*
X124061666Y-69341904D01*
X124137857Y-69341904D01*
X124214047Y-69303809D01*
X124252142Y-69265714D01*
X124290238Y-69189523D01*
X124328333Y-69037142D01*
X124328333Y-68846666D01*
X124290238Y-68694285D01*
X124252142Y-68618095D01*
X124214047Y-68580000D01*
X124137857Y-68541904D01*
X123375952Y-68541904D02*
X123299761Y-68541904D01*
X123223571Y-68580000D01*
X123185476Y-68618095D01*
X123147380Y-68694285D01*
X123109285Y-68846666D01*
X123109285Y-69037142D01*
X123147380Y-69189523D01*
X123185476Y-69265714D01*
X123223571Y-69303809D01*
X123299761Y-69341904D01*
X123375952Y-69341904D01*
X123452142Y-69303809D01*
X123490238Y-69265714D01*
X123528333Y-69189523D01*
X123566428Y-69037142D01*
X123566428Y-68846666D01*
X123528333Y-68694285D01*
X123490238Y-68618095D01*
X123452142Y-68580000D01*
X123375952Y-68541904D01*
X122766428Y-68808571D02*
X122766428Y-69341904D01*
X122766428Y-68884761D02*
X122728333Y-68846666D01*
X122652142Y-68808571D01*
X122537857Y-68808571D01*
X122461666Y-68846666D01*
X122423571Y-68922857D01*
X122423571Y-69341904D01*
X121775952Y-68922857D02*
X122042619Y-68922857D01*
X122042619Y-69341904D02*
X122042619Y-68541904D01*
X121661666Y-68541904D01*
G04 #@! TO.C,C6*
X127155714Y-71996666D02*
X127193809Y-71958571D01*
X127231904Y-71844285D01*
X127231904Y-71768095D01*
X127193809Y-71653809D01*
X127117619Y-71577619D01*
X127041428Y-71539523D01*
X126889047Y-71501428D01*
X126774761Y-71501428D01*
X126622380Y-71539523D01*
X126546190Y-71577619D01*
X126470000Y-71653809D01*
X126431904Y-71768095D01*
X126431904Y-71844285D01*
X126470000Y-71958571D01*
X126508095Y-71996666D01*
X126431904Y-72682380D02*
X126431904Y-72530000D01*
X126470000Y-72453809D01*
X126508095Y-72415714D01*
X126622380Y-72339523D01*
X126774761Y-72301428D01*
X127079523Y-72301428D01*
X127155714Y-72339523D01*
X127193809Y-72377619D01*
X127231904Y-72453809D01*
X127231904Y-72606190D01*
X127193809Y-72682380D01*
X127155714Y-72720476D01*
X127079523Y-72758571D01*
X126889047Y-72758571D01*
X126812857Y-72720476D01*
X126774761Y-72682380D01*
X126736666Y-72606190D01*
X126736666Y-72453809D01*
X126774761Y-72377619D01*
X126812857Y-72339523D01*
X126889047Y-72301428D01*
X126431904Y-69577619D02*
X126431904Y-69425238D01*
X126470000Y-69349047D01*
X126508095Y-69310952D01*
X126622380Y-69234761D01*
X126774761Y-69196666D01*
X127079523Y-69196666D01*
X127155714Y-69234761D01*
X127193809Y-69272857D01*
X127231904Y-69349047D01*
X127231904Y-69501428D01*
X127193809Y-69577619D01*
X127155714Y-69615714D01*
X127079523Y-69653809D01*
X126889047Y-69653809D01*
X126812857Y-69615714D01*
X126774761Y-69577619D01*
X126736666Y-69501428D01*
X126736666Y-69349047D01*
X126774761Y-69272857D01*
X126812857Y-69234761D01*
X126889047Y-69196666D01*
X126698571Y-69996666D02*
X127498571Y-69996666D01*
X126736666Y-69996666D02*
X126698571Y-70072857D01*
X126698571Y-70225238D01*
X126736666Y-70301428D01*
X126774761Y-70339523D01*
X126850952Y-70377619D01*
X127079523Y-70377619D01*
X127155714Y-70339523D01*
X127193809Y-70301428D01*
X127231904Y-70225238D01*
X127231904Y-70072857D01*
X127193809Y-69996666D01*
X126812857Y-70987142D02*
X126812857Y-70720476D01*
X127231904Y-70720476D02*
X126431904Y-70720476D01*
X126431904Y-71101428D01*
G04 #@! TO.C,C7*
X123958333Y-75850714D02*
X123996428Y-75888809D01*
X124110714Y-75926904D01*
X124186904Y-75926904D01*
X124301190Y-75888809D01*
X124377380Y-75812619D01*
X124415476Y-75736428D01*
X124453571Y-75584047D01*
X124453571Y-75469761D01*
X124415476Y-75317380D01*
X124377380Y-75241190D01*
X124301190Y-75165000D01*
X124186904Y-75126904D01*
X124110714Y-75126904D01*
X123996428Y-75165000D01*
X123958333Y-75203095D01*
X123691666Y-75126904D02*
X123158333Y-75126904D01*
X123501190Y-75926904D01*
X124377380Y-73856904D02*
X124529761Y-73856904D01*
X124605952Y-73895000D01*
X124644047Y-73933095D01*
X124720238Y-74047380D01*
X124758333Y-74199761D01*
X124758333Y-74504523D01*
X124720238Y-74580714D01*
X124682142Y-74618809D01*
X124605952Y-74656904D01*
X124453571Y-74656904D01*
X124377380Y-74618809D01*
X124339285Y-74580714D01*
X124301190Y-74504523D01*
X124301190Y-74314047D01*
X124339285Y-74237857D01*
X124377380Y-74199761D01*
X124453571Y-74161666D01*
X124605952Y-74161666D01*
X124682142Y-74199761D01*
X124720238Y-74237857D01*
X124758333Y-74314047D01*
X123958333Y-74123571D02*
X123958333Y-74923571D01*
X123958333Y-74161666D02*
X123882142Y-74123571D01*
X123729761Y-74123571D01*
X123653571Y-74161666D01*
X123615476Y-74199761D01*
X123577380Y-74275952D01*
X123577380Y-74504523D01*
X123615476Y-74580714D01*
X123653571Y-74618809D01*
X123729761Y-74656904D01*
X123882142Y-74656904D01*
X123958333Y-74618809D01*
X122967857Y-74237857D02*
X123234523Y-74237857D01*
X123234523Y-74656904D02*
X123234523Y-73856904D01*
X122853571Y-73856904D01*
G04 #@! TO.C,D3*
X143236904Y-81324523D02*
X142436904Y-81324523D01*
X142436904Y-81515000D01*
X142475000Y-81629285D01*
X142551190Y-81705476D01*
X142627380Y-81743571D01*
X142779761Y-81781666D01*
X142894047Y-81781666D01*
X143046428Y-81743571D01*
X143122619Y-81705476D01*
X143198809Y-81629285D01*
X143236904Y-81515000D01*
X143236904Y-81324523D01*
X142436904Y-82048333D02*
X142436904Y-82543571D01*
X142741666Y-82276904D01*
X142741666Y-82391190D01*
X142779761Y-82467380D01*
X142817857Y-82505476D01*
X142894047Y-82543571D01*
X143084523Y-82543571D01*
X143160714Y-82505476D01*
X143198809Y-82467380D01*
X143236904Y-82391190D01*
X143236904Y-82162619D01*
X143198809Y-82086428D01*
X143160714Y-82048333D01*
X143081904Y-75971666D02*
X142281904Y-75971666D01*
X142281904Y-76162142D01*
X142320000Y-76276428D01*
X142396190Y-76352619D01*
X142472380Y-76390714D01*
X142624761Y-76428809D01*
X142739047Y-76428809D01*
X142891428Y-76390714D01*
X142967619Y-76352619D01*
X143043809Y-76276428D01*
X143081904Y-76162142D01*
X143081904Y-75971666D01*
X142548571Y-76695476D02*
X143081904Y-76885952D01*
X142548571Y-77076428D01*
X143081904Y-77724047D02*
X142281904Y-77724047D01*
X143043809Y-77724047D02*
X143081904Y-77647857D01*
X143081904Y-77495476D01*
X143043809Y-77419285D01*
X143005714Y-77381190D01*
X142929523Y-77343095D01*
X142700952Y-77343095D01*
X142624761Y-77381190D01*
X142586666Y-77419285D01*
X142548571Y-77495476D01*
X142548571Y-77647857D01*
X142586666Y-77724047D01*
X143081904Y-78447857D02*
X142281904Y-78447857D01*
X143043809Y-78447857D02*
X143081904Y-78371666D01*
X143081904Y-78219285D01*
X143043809Y-78143095D01*
X143005714Y-78105000D01*
X142929523Y-78066904D01*
X142700952Y-78066904D01*
X142624761Y-78105000D01*
X142586666Y-78143095D01*
X142548571Y-78219285D01*
X142548571Y-78371666D01*
X142586666Y-78447857D01*
X143043809Y-79133571D02*
X143081904Y-79057380D01*
X143081904Y-78905000D01*
X143043809Y-78828809D01*
X142967619Y-78790714D01*
X142662857Y-78790714D01*
X142586666Y-78828809D01*
X142548571Y-78905000D01*
X142548571Y-79057380D01*
X142586666Y-79133571D01*
X142662857Y-79171666D01*
X142739047Y-79171666D01*
X142815238Y-78790714D01*
X143081904Y-79438333D02*
X142548571Y-79857380D01*
X142548571Y-79438333D02*
X143081904Y-79857380D01*
X142548571Y-80047857D02*
X142548571Y-80352619D01*
X142281904Y-80162142D02*
X142967619Y-80162142D01*
X143043809Y-80200238D01*
X143081904Y-80276428D01*
X143081904Y-80352619D01*
G04 #@! TO.C,R1*
X123528333Y-65391904D02*
X123795000Y-65010952D01*
X123985476Y-65391904D02*
X123985476Y-64591904D01*
X123680714Y-64591904D01*
X123604523Y-64630000D01*
X123566428Y-64668095D01*
X123528333Y-64744285D01*
X123528333Y-64858571D01*
X123566428Y-64934761D01*
X123604523Y-64972857D01*
X123680714Y-65010952D01*
X123985476Y-65010952D01*
X122766428Y-65391904D02*
X123223571Y-65391904D01*
X122995000Y-65391904D02*
X122995000Y-64591904D01*
X123071190Y-64706190D01*
X123147380Y-64782380D01*
X123223571Y-64820476D01*
X124252142Y-62091904D02*
X124709285Y-62091904D01*
X124480714Y-62091904D02*
X124480714Y-61291904D01*
X124556904Y-61406190D01*
X124633095Y-61482380D01*
X124709285Y-61520476D01*
X123756904Y-61291904D02*
X123680714Y-61291904D01*
X123604523Y-61330000D01*
X123566428Y-61368095D01*
X123528333Y-61444285D01*
X123490238Y-61596666D01*
X123490238Y-61787142D01*
X123528333Y-61939523D01*
X123566428Y-62015714D01*
X123604523Y-62053809D01*
X123680714Y-62091904D01*
X123756904Y-62091904D01*
X123833095Y-62053809D01*
X123871190Y-62015714D01*
X123909285Y-61939523D01*
X123947380Y-61787142D01*
X123947380Y-61596666D01*
X123909285Y-61444285D01*
X123871190Y-61368095D01*
X123833095Y-61330000D01*
X123756904Y-61291904D01*
X122995000Y-61291904D02*
X122918809Y-61291904D01*
X122842619Y-61330000D01*
X122804523Y-61368095D01*
X122766428Y-61444285D01*
X122728333Y-61596666D01*
X122728333Y-61787142D01*
X122766428Y-61939523D01*
X122804523Y-62015714D01*
X122842619Y-62053809D01*
X122918809Y-62091904D01*
X122995000Y-62091904D01*
X123071190Y-62053809D01*
X123109285Y-62015714D01*
X123147380Y-61939523D01*
X123185476Y-61787142D01*
X123185476Y-61596666D01*
X123147380Y-61444285D01*
X123109285Y-61368095D01*
X123071190Y-61330000D01*
X122995000Y-61291904D01*
X122385476Y-62091904D02*
X122385476Y-61291904D01*
X122309285Y-61787142D02*
X122080714Y-62091904D01*
X122080714Y-61558571D02*
X122385476Y-61863333D01*
G04 #@! TO.C,R4*
X138618333Y-77196904D02*
X138885000Y-76815952D01*
X139075476Y-77196904D02*
X139075476Y-76396904D01*
X138770714Y-76396904D01*
X138694523Y-76435000D01*
X138656428Y-76473095D01*
X138618333Y-76549285D01*
X138618333Y-76663571D01*
X138656428Y-76739761D01*
X138694523Y-76777857D01*
X138770714Y-76815952D01*
X139075476Y-76815952D01*
X137932619Y-76663571D02*
X137932619Y-77196904D01*
X138123095Y-76358809D02*
X138313571Y-76930238D01*
X137818333Y-76930238D01*
X136821190Y-77196904D02*
X137087857Y-76815952D01*
X137278333Y-77196904D02*
X137278333Y-76396904D01*
X136973571Y-76396904D01*
X136897380Y-76435000D01*
X136859285Y-76473095D01*
X136821190Y-76549285D01*
X136821190Y-76663571D01*
X136859285Y-76739761D01*
X136897380Y-76777857D01*
X136973571Y-76815952D01*
X137278333Y-76815952D01*
X136554523Y-77196904D02*
X136135476Y-76663571D01*
X136554523Y-76663571D02*
X136135476Y-77196904D01*
X135945000Y-76663571D02*
X135640238Y-76663571D01*
X135830714Y-76396904D02*
X135830714Y-77082619D01*
X135792619Y-77158809D01*
X135716428Y-77196904D01*
X135640238Y-77196904D01*
X135030714Y-77196904D02*
X135030714Y-76777857D01*
X135068809Y-76701666D01*
X135145000Y-76663571D01*
X135297380Y-76663571D01*
X135373571Y-76701666D01*
X135030714Y-77158809D02*
X135106904Y-77196904D01*
X135297380Y-77196904D01*
X135373571Y-77158809D01*
X135411666Y-77082619D01*
X135411666Y-77006428D01*
X135373571Y-76930238D01*
X135297380Y-76892142D01*
X135106904Y-76892142D01*
X135030714Y-76854047D01*
X134535476Y-77196904D02*
X134611666Y-77158809D01*
X134649761Y-77082619D01*
X134649761Y-76396904D01*
G04 #@! TO.C,R5*
X124821904Y-86861666D02*
X124440952Y-86595000D01*
X124821904Y-86404523D02*
X124021904Y-86404523D01*
X124021904Y-86709285D01*
X124060000Y-86785476D01*
X124098095Y-86823571D01*
X124174285Y-86861666D01*
X124288571Y-86861666D01*
X124364761Y-86823571D01*
X124402857Y-86785476D01*
X124440952Y-86709285D01*
X124440952Y-86404523D01*
X124021904Y-87585476D02*
X124021904Y-87204523D01*
X124402857Y-87166428D01*
X124364761Y-87204523D01*
X124326666Y-87280714D01*
X124326666Y-87471190D01*
X124364761Y-87547380D01*
X124402857Y-87585476D01*
X124479047Y-87623571D01*
X124669523Y-87623571D01*
X124745714Y-87585476D01*
X124783809Y-87547380D01*
X124821904Y-87471190D01*
X124821904Y-87280714D01*
X124783809Y-87204523D01*
X124745714Y-87166428D01*
X124821904Y-88804761D02*
X124821904Y-88347619D01*
X124821904Y-88576190D02*
X124021904Y-88576190D01*
X124136190Y-88500000D01*
X124212380Y-88423809D01*
X124250476Y-88347619D01*
X124821904Y-89147619D02*
X124021904Y-89147619D01*
X124517142Y-89223809D02*
X124821904Y-89452380D01*
X124288571Y-89452380D02*
X124593333Y-89147619D01*
G04 #@! TO.C,R6*
X121331904Y-83521666D02*
X120950952Y-83255000D01*
X121331904Y-83064523D02*
X120531904Y-83064523D01*
X120531904Y-83369285D01*
X120570000Y-83445476D01*
X120608095Y-83483571D01*
X120684285Y-83521666D01*
X120798571Y-83521666D01*
X120874761Y-83483571D01*
X120912857Y-83445476D01*
X120950952Y-83369285D01*
X120950952Y-83064523D01*
X120531904Y-84207380D02*
X120531904Y-84055000D01*
X120570000Y-83978809D01*
X120608095Y-83940714D01*
X120722380Y-83864523D01*
X120874761Y-83826428D01*
X121179523Y-83826428D01*
X121255714Y-83864523D01*
X121293809Y-83902619D01*
X121331904Y-83978809D01*
X121331904Y-84131190D01*
X121293809Y-84207380D01*
X121255714Y-84245476D01*
X121179523Y-84283571D01*
X120989047Y-84283571D01*
X120912857Y-84245476D01*
X120874761Y-84207380D01*
X120836666Y-84131190D01*
X120836666Y-83978809D01*
X120874761Y-83902619D01*
X120912857Y-83864523D01*
X120989047Y-83826428D01*
X124631904Y-83178809D02*
X124631904Y-82721666D01*
X124631904Y-82950238D02*
X123831904Y-82950238D01*
X123946190Y-82874047D01*
X124022380Y-82797857D01*
X124060476Y-82721666D01*
X123831904Y-83674047D02*
X123831904Y-83750238D01*
X123870000Y-83826428D01*
X123908095Y-83864523D01*
X123984285Y-83902619D01*
X124136666Y-83940714D01*
X124327142Y-83940714D01*
X124479523Y-83902619D01*
X124555714Y-83864523D01*
X124593809Y-83826428D01*
X124631904Y-83750238D01*
X124631904Y-83674047D01*
X124593809Y-83597857D01*
X124555714Y-83559761D01*
X124479523Y-83521666D01*
X124327142Y-83483571D01*
X124136666Y-83483571D01*
X123984285Y-83521666D01*
X123908095Y-83559761D01*
X123870000Y-83597857D01*
X123831904Y-83674047D01*
X124631904Y-84283571D02*
X123831904Y-84283571D01*
X124327142Y-84359761D02*
X124631904Y-84588333D01*
X124098571Y-84588333D02*
X124403333Y-84283571D01*
G04 #@! TD*
M02*
