G04 #@! TF.GenerationSoftware,KiCad,Pcbnew,(5.0.2)-1*
G04 #@! TF.CreationDate,2019-07-18T11:35:20+03:00*
G04 #@! TF.ProjectId,Breakout Board STM32L041x6 - TSSOP20,42726561-6b6f-4757-9420-426f61726420,rev?*
G04 #@! TF.SameCoordinates,Original*
G04 #@! TF.FileFunction,Legend,Top*
G04 #@! TF.FilePolarity,Positive*
%FSLAX46Y46*%
G04 Gerber Fmt 4.6, Leading zero omitted, Abs format (unit mm)*
G04 Created by KiCad (PCBNEW (5.0.2)-1) date 18-Jul-19 11:35:20*
%MOMM*%
%LPD*%
G01*
G04 APERTURE LIST*
%ADD10C,0.150000*%
%ADD11C,0.200000*%
%ADD12C,0.120000*%
G04 APERTURE END LIST*
D10*
X122457857Y-64960238D02*
X122457857Y-64693571D01*
X122876904Y-64579285D02*
X122876904Y-64960238D01*
X122076904Y-64960238D01*
X122076904Y-64579285D01*
X122800714Y-63779285D02*
X122838809Y-63817380D01*
X122876904Y-63931666D01*
X122876904Y-64007857D01*
X122838809Y-64122142D01*
X122762619Y-64198333D01*
X122686428Y-64236428D01*
X122534047Y-64274523D01*
X122419761Y-64274523D01*
X122267380Y-64236428D01*
X122191190Y-64198333D01*
X122115000Y-64122142D01*
X122076904Y-64007857D01*
X122076904Y-63931666D01*
X122115000Y-63817380D01*
X122153095Y-63779285D01*
X122876904Y-63017380D02*
X122876904Y-63474523D01*
X122876904Y-63245952D02*
X122076904Y-63245952D01*
X122191190Y-63322142D01*
X122267380Y-63398333D01*
X122305476Y-63474523D01*
X122419761Y-62560238D02*
X122381666Y-62636428D01*
X122343571Y-62674523D01*
X122267380Y-62712619D01*
X122229285Y-62712619D01*
X122153095Y-62674523D01*
X122115000Y-62636428D01*
X122076904Y-62560238D01*
X122076904Y-62407857D01*
X122115000Y-62331666D01*
X122153095Y-62293571D01*
X122229285Y-62255476D01*
X122267380Y-62255476D01*
X122343571Y-62293571D01*
X122381666Y-62331666D01*
X122419761Y-62407857D01*
X122419761Y-62560238D01*
X122457857Y-62636428D01*
X122495952Y-62674523D01*
X122572142Y-62712619D01*
X122724523Y-62712619D01*
X122800714Y-62674523D01*
X122838809Y-62636428D01*
X122876904Y-62560238D01*
X122876904Y-62407857D01*
X122838809Y-62331666D01*
X122800714Y-62293571D01*
X122724523Y-62255476D01*
X122572142Y-62255476D01*
X122495952Y-62293571D01*
X122457857Y-62331666D01*
X122419761Y-62407857D01*
X122076904Y-61988809D02*
X122076904Y-61493571D01*
X122381666Y-61760238D01*
X122381666Y-61645952D01*
X122419761Y-61569761D01*
X122457857Y-61531666D01*
X122534047Y-61493571D01*
X122724523Y-61493571D01*
X122800714Y-61531666D01*
X122838809Y-61569761D01*
X122876904Y-61645952D01*
X122876904Y-61874523D01*
X122838809Y-61950714D01*
X122800714Y-61988809D01*
X122153095Y-61188809D02*
X122115000Y-61150714D01*
X122076904Y-61074523D01*
X122076904Y-60884047D01*
X122115000Y-60807857D01*
X122153095Y-60769761D01*
X122229285Y-60731666D01*
X122305476Y-60731666D01*
X122419761Y-60769761D01*
X122876904Y-61226904D01*
X122876904Y-60731666D01*
X124226904Y-66045952D02*
X124226904Y-66503095D01*
X124226904Y-66274523D02*
X123426904Y-66274523D01*
X123541190Y-66350714D01*
X123617380Y-66426904D01*
X123655476Y-66503095D01*
X123769761Y-65588809D02*
X123731666Y-65665000D01*
X123693571Y-65703095D01*
X123617380Y-65741190D01*
X123579285Y-65741190D01*
X123503095Y-65703095D01*
X123465000Y-65665000D01*
X123426904Y-65588809D01*
X123426904Y-65436428D01*
X123465000Y-65360238D01*
X123503095Y-65322142D01*
X123579285Y-65284047D01*
X123617380Y-65284047D01*
X123693571Y-65322142D01*
X123731666Y-65360238D01*
X123769761Y-65436428D01*
X123769761Y-65588809D01*
X123807857Y-65665000D01*
X123845952Y-65703095D01*
X123922142Y-65741190D01*
X124074523Y-65741190D01*
X124150714Y-65703095D01*
X124188809Y-65665000D01*
X124226904Y-65588809D01*
X124226904Y-65436428D01*
X124188809Y-65360238D01*
X124150714Y-65322142D01*
X124074523Y-65284047D01*
X123922142Y-65284047D01*
X123845952Y-65322142D01*
X123807857Y-65360238D01*
X123769761Y-65436428D01*
X123426904Y-64788809D02*
X123426904Y-64712619D01*
X123465000Y-64636428D01*
X123503095Y-64598333D01*
X123579285Y-64560238D01*
X123731666Y-64522142D01*
X123922142Y-64522142D01*
X124074523Y-64560238D01*
X124150714Y-64598333D01*
X124188809Y-64636428D01*
X124226904Y-64712619D01*
X124226904Y-64788809D01*
X124188809Y-64865000D01*
X124150714Y-64903095D01*
X124074523Y-64941190D01*
X123922142Y-64979285D01*
X123731666Y-64979285D01*
X123579285Y-64941190D01*
X123503095Y-64903095D01*
X123465000Y-64865000D01*
X123426904Y-64788809D01*
X123426904Y-64255476D02*
X123426904Y-63722142D01*
X124226904Y-64065000D01*
X123503095Y-63455476D02*
X123465000Y-63417380D01*
X123426904Y-63341190D01*
X123426904Y-63150714D01*
X123465000Y-63074523D01*
X123503095Y-63036428D01*
X123579285Y-62998333D01*
X123655476Y-62998333D01*
X123769761Y-63036428D01*
X124226904Y-63493571D01*
X124226904Y-62998333D01*
X123426904Y-62503095D02*
X123426904Y-62426904D01*
X123465000Y-62350714D01*
X123503095Y-62312619D01*
X123579285Y-62274523D01*
X123731666Y-62236428D01*
X123922142Y-62236428D01*
X124074523Y-62274523D01*
X124150714Y-62312619D01*
X124188809Y-62350714D01*
X124226904Y-62426904D01*
X124226904Y-62503095D01*
X124188809Y-62579285D01*
X124150714Y-62617380D01*
X124074523Y-62655476D01*
X123922142Y-62693571D01*
X123731666Y-62693571D01*
X123579285Y-62655476D01*
X123503095Y-62617380D01*
X123465000Y-62579285D01*
X123426904Y-62503095D01*
X124226904Y-61474523D02*
X124226904Y-61931666D01*
X124226904Y-61703095D02*
X123426904Y-61703095D01*
X123541190Y-61779285D01*
X123617380Y-61855476D01*
X123655476Y-61931666D01*
X124226904Y-61093571D02*
X124226904Y-60941190D01*
X124188809Y-60865000D01*
X124150714Y-60826904D01*
X124036428Y-60750714D01*
X123884047Y-60712619D01*
X123579285Y-60712619D01*
X123503095Y-60750714D01*
X123465000Y-60788809D01*
X123426904Y-60865000D01*
X123426904Y-61017380D01*
X123465000Y-61093571D01*
X123503095Y-61131666D01*
X123579285Y-61169761D01*
X123769761Y-61169761D01*
X123845952Y-61131666D01*
X123884047Y-61093571D01*
X123922142Y-61017380D01*
X123922142Y-60865000D01*
X123884047Y-60788809D01*
X123845952Y-60750714D01*
X123769761Y-60712619D01*
X124226904Y-60026904D02*
X123807857Y-60026904D01*
X123731666Y-60065000D01*
X123693571Y-60141190D01*
X123693571Y-60293571D01*
X123731666Y-60369761D01*
X124188809Y-60026904D02*
X124226904Y-60103095D01*
X124226904Y-60293571D01*
X124188809Y-60369761D01*
X124112619Y-60407857D01*
X124036428Y-60407857D01*
X123960238Y-60369761D01*
X123922142Y-60293571D01*
X123922142Y-60103095D01*
X123884047Y-60026904D01*
X123426904Y-59493571D02*
X123426904Y-59417380D01*
X123465000Y-59341190D01*
X123503095Y-59303095D01*
X123579285Y-59265000D01*
X123731666Y-59226904D01*
X123922142Y-59226904D01*
X124074523Y-59265000D01*
X124150714Y-59303095D01*
X124188809Y-59341190D01*
X124226904Y-59417380D01*
X124226904Y-59493571D01*
X124188809Y-59569761D01*
X124150714Y-59607857D01*
X124074523Y-59645952D01*
X123922142Y-59684047D01*
X123731666Y-59684047D01*
X123579285Y-59645952D01*
X123503095Y-59607857D01*
X123465000Y-59569761D01*
X123426904Y-59493571D01*
X144824523Y-60051904D02*
X145243571Y-59518571D01*
X144824523Y-59518571D02*
X145243571Y-60051904D01*
X145510238Y-59328095D02*
X145548333Y-59290000D01*
X145624523Y-59251904D01*
X145815000Y-59251904D01*
X145891190Y-59290000D01*
X145929285Y-59328095D01*
X145967380Y-59404285D01*
X145967380Y-59480476D01*
X145929285Y-59594761D01*
X145472142Y-60051904D01*
X145967380Y-60051904D01*
X118154523Y-60051904D02*
X118573571Y-59518571D01*
X118154523Y-59518571D02*
X118573571Y-60051904D01*
X119297380Y-60051904D02*
X118840238Y-60051904D01*
X119068809Y-60051904D02*
X119068809Y-59251904D01*
X118992619Y-59366190D01*
X118916428Y-59442380D01*
X118840238Y-59480476D01*
X144824523Y-90531904D02*
X145243571Y-89998571D01*
X144824523Y-89998571D02*
X145243571Y-90531904D01*
X145891190Y-89998571D02*
X145891190Y-90531904D01*
X145700714Y-89693809D02*
X145510238Y-90265238D01*
X146005476Y-90265238D01*
X118154523Y-90531904D02*
X118573571Y-89998571D01*
X118154523Y-89998571D02*
X118573571Y-90531904D01*
X118802142Y-89731904D02*
X119297380Y-89731904D01*
X119030714Y-90036666D01*
X119145000Y-90036666D01*
X119221190Y-90074761D01*
X119259285Y-90112857D01*
X119297380Y-90189047D01*
X119297380Y-90379523D01*
X119259285Y-90455714D01*
X119221190Y-90493809D01*
X119145000Y-90531904D01*
X118916428Y-90531904D01*
X118840238Y-90493809D01*
X118802142Y-90455714D01*
D11*
X146685000Y-71120000D02*
X146050000Y-71120000D01*
X146685000Y-73660000D02*
X146050000Y-73660000D01*
X146685000Y-76200000D02*
X146050000Y-76200000D01*
X146685000Y-78740000D02*
X146050000Y-78740000D01*
X146685000Y-81280000D02*
X146050000Y-81280000D01*
X146685000Y-83820000D02*
X146050000Y-83820000D01*
X146685000Y-86360000D02*
X146050000Y-86360000D01*
X117475000Y-86360000D02*
X118110000Y-86360000D01*
X117475000Y-83820000D02*
X118110000Y-83820000D01*
X117475000Y-81280000D02*
X118110000Y-81280000D01*
X117475000Y-78740000D02*
X118110000Y-78740000D01*
X117475000Y-68580000D02*
X118110000Y-68580000D01*
X117475000Y-66040000D02*
X118110000Y-66040000D01*
X117475000Y-76200000D02*
X118110000Y-76200000D01*
X117475000Y-73660000D02*
X118110000Y-73660000D01*
X117475000Y-71120000D02*
X118110000Y-71120000D01*
D10*
X146659761Y-65193571D02*
X146659761Y-65993571D01*
X146659761Y-65231666D02*
X146735952Y-65193571D01*
X146888333Y-65193571D01*
X146964523Y-65231666D01*
X147002619Y-65269761D01*
X147040714Y-65345952D01*
X147040714Y-65574523D01*
X147002619Y-65650714D01*
X146964523Y-65688809D01*
X146888333Y-65726904D01*
X146735952Y-65726904D01*
X146659761Y-65688809D01*
X147726428Y-65726904D02*
X147726428Y-65307857D01*
X147688333Y-65231666D01*
X147612142Y-65193571D01*
X147459761Y-65193571D01*
X147383571Y-65231666D01*
X147726428Y-65688809D02*
X147650238Y-65726904D01*
X147459761Y-65726904D01*
X147383571Y-65688809D01*
X147345476Y-65612619D01*
X147345476Y-65536428D01*
X147383571Y-65460238D01*
X147459761Y-65422142D01*
X147650238Y-65422142D01*
X147726428Y-65384047D01*
X148526428Y-65726904D02*
X148069285Y-65726904D01*
X148297857Y-65726904D02*
X148297857Y-64926904D01*
X148221666Y-65041190D01*
X148145476Y-65117380D01*
X148069285Y-65155476D01*
X148793095Y-64926904D02*
X149288333Y-64926904D01*
X149021666Y-65231666D01*
X149135952Y-65231666D01*
X149212142Y-65269761D01*
X149250238Y-65307857D01*
X149288333Y-65384047D01*
X149288333Y-65574523D01*
X149250238Y-65650714D01*
X149212142Y-65688809D01*
X149135952Y-65726904D01*
X148907380Y-65726904D01*
X148831190Y-65688809D01*
X148793095Y-65650714D01*
X146450238Y-67038809D02*
X146526428Y-67076904D01*
X146678809Y-67076904D01*
X146755000Y-67038809D01*
X146793095Y-66962619D01*
X146793095Y-66924523D01*
X146755000Y-66848333D01*
X146678809Y-66810238D01*
X146564523Y-66810238D01*
X146488333Y-66772142D01*
X146450238Y-66695952D01*
X146450238Y-66657857D01*
X146488333Y-66581666D01*
X146564523Y-66543571D01*
X146678809Y-66543571D01*
X146755000Y-66581666D01*
X147059761Y-66543571D02*
X147212142Y-67076904D01*
X147364523Y-66695952D01*
X147516904Y-67076904D01*
X147669285Y-66543571D01*
X148316904Y-67076904D02*
X148316904Y-66276904D01*
X148316904Y-67038809D02*
X148240714Y-67076904D01*
X148088333Y-67076904D01*
X148012142Y-67038809D01*
X147974047Y-67000714D01*
X147935952Y-66924523D01*
X147935952Y-66695952D01*
X147974047Y-66619761D01*
X148012142Y-66581666D01*
X148088333Y-66543571D01*
X148240714Y-66543571D01*
X148316904Y-66581666D01*
X148697857Y-67076904D02*
X148697857Y-66543571D01*
X148697857Y-66276904D02*
X148659761Y-66315000D01*
X148697857Y-66353095D01*
X148735952Y-66315000D01*
X148697857Y-66276904D01*
X148697857Y-66353095D01*
X149193095Y-67076904D02*
X149116904Y-67038809D01*
X149078809Y-67000714D01*
X149040714Y-66924523D01*
X149040714Y-66695952D01*
X149078809Y-66619761D01*
X149116904Y-66581666D01*
X149193095Y-66543571D01*
X149307380Y-66543571D01*
X149383571Y-66581666D01*
X149421666Y-66619761D01*
X149459761Y-66695952D01*
X149459761Y-66924523D01*
X149421666Y-67000714D01*
X149383571Y-67038809D01*
X149307380Y-67076904D01*
X149193095Y-67076904D01*
X146659761Y-68408571D02*
X146659761Y-69208571D01*
X146659761Y-68446666D02*
X146735952Y-68408571D01*
X146888333Y-68408571D01*
X146964523Y-68446666D01*
X147002619Y-68484761D01*
X147040714Y-68560952D01*
X147040714Y-68789523D01*
X147002619Y-68865714D01*
X146964523Y-68903809D01*
X146888333Y-68941904D01*
X146735952Y-68941904D01*
X146659761Y-68903809D01*
X147726428Y-68941904D02*
X147726428Y-68522857D01*
X147688333Y-68446666D01*
X147612142Y-68408571D01*
X147459761Y-68408571D01*
X147383571Y-68446666D01*
X147726428Y-68903809D02*
X147650238Y-68941904D01*
X147459761Y-68941904D01*
X147383571Y-68903809D01*
X147345476Y-68827619D01*
X147345476Y-68751428D01*
X147383571Y-68675238D01*
X147459761Y-68637142D01*
X147650238Y-68637142D01*
X147726428Y-68599047D01*
X148526428Y-68941904D02*
X148069285Y-68941904D01*
X148297857Y-68941904D02*
X148297857Y-68141904D01*
X148221666Y-68256190D01*
X148145476Y-68332380D01*
X148069285Y-68370476D01*
X149021666Y-68141904D02*
X149097857Y-68141904D01*
X149174047Y-68180000D01*
X149212142Y-68218095D01*
X149250238Y-68294285D01*
X149288333Y-68446666D01*
X149288333Y-68637142D01*
X149250238Y-68789523D01*
X149212142Y-68865714D01*
X149174047Y-68903809D01*
X149097857Y-68941904D01*
X149021666Y-68941904D01*
X148945476Y-68903809D01*
X148907380Y-68865714D01*
X148869285Y-68789523D01*
X148831190Y-68637142D01*
X148831190Y-68446666D01*
X148869285Y-68294285D01*
X148907380Y-68218095D01*
X148945476Y-68180000D01*
X149021666Y-68141904D01*
X147040714Y-70948571D02*
X147040714Y-71748571D01*
X147040714Y-70986666D02*
X147116904Y-70948571D01*
X147269285Y-70948571D01*
X147345476Y-70986666D01*
X147383571Y-71024761D01*
X147421666Y-71100952D01*
X147421666Y-71329523D01*
X147383571Y-71405714D01*
X147345476Y-71443809D01*
X147269285Y-71481904D01*
X147116904Y-71481904D01*
X147040714Y-71443809D01*
X148107380Y-71481904D02*
X148107380Y-71062857D01*
X148069285Y-70986666D01*
X147993095Y-70948571D01*
X147840714Y-70948571D01*
X147764523Y-70986666D01*
X148107380Y-71443809D02*
X148031190Y-71481904D01*
X147840714Y-71481904D01*
X147764523Y-71443809D01*
X147726428Y-71367619D01*
X147726428Y-71291428D01*
X147764523Y-71215238D01*
X147840714Y-71177142D01*
X148031190Y-71177142D01*
X148107380Y-71139047D01*
X148526428Y-71481904D02*
X148678809Y-71481904D01*
X148755000Y-71443809D01*
X148793095Y-71405714D01*
X148869285Y-71291428D01*
X148907380Y-71139047D01*
X148907380Y-70834285D01*
X148869285Y-70758095D01*
X148831190Y-70720000D01*
X148755000Y-70681904D01*
X148602619Y-70681904D01*
X148526428Y-70720000D01*
X148488333Y-70758095D01*
X148450238Y-70834285D01*
X148450238Y-71024761D01*
X148488333Y-71100952D01*
X148526428Y-71139047D01*
X148602619Y-71177142D01*
X148755000Y-71177142D01*
X148831190Y-71139047D01*
X148869285Y-71100952D01*
X148907380Y-71024761D01*
X146659761Y-62653571D02*
X146659761Y-63453571D01*
X146659761Y-62691666D02*
X146735952Y-62653571D01*
X146888333Y-62653571D01*
X146964523Y-62691666D01*
X147002619Y-62729761D01*
X147040714Y-62805952D01*
X147040714Y-63034523D01*
X147002619Y-63110714D01*
X146964523Y-63148809D01*
X146888333Y-63186904D01*
X146735952Y-63186904D01*
X146659761Y-63148809D01*
X147726428Y-63186904D02*
X147726428Y-62767857D01*
X147688333Y-62691666D01*
X147612142Y-62653571D01*
X147459761Y-62653571D01*
X147383571Y-62691666D01*
X147726428Y-63148809D02*
X147650238Y-63186904D01*
X147459761Y-63186904D01*
X147383571Y-63148809D01*
X147345476Y-63072619D01*
X147345476Y-62996428D01*
X147383571Y-62920238D01*
X147459761Y-62882142D01*
X147650238Y-62882142D01*
X147726428Y-62844047D01*
X148526428Y-63186904D02*
X148069285Y-63186904D01*
X148297857Y-63186904D02*
X148297857Y-62386904D01*
X148221666Y-62501190D01*
X148145476Y-62577380D01*
X148069285Y-62615476D01*
X149212142Y-62653571D02*
X149212142Y-63186904D01*
X149021666Y-62348809D02*
X148831190Y-62920238D01*
X149326428Y-62920238D01*
X146488333Y-64498809D02*
X146564523Y-64536904D01*
X146716904Y-64536904D01*
X146793095Y-64498809D01*
X146831190Y-64422619D01*
X146831190Y-64384523D01*
X146793095Y-64308333D01*
X146716904Y-64270238D01*
X146602619Y-64270238D01*
X146526428Y-64232142D01*
X146488333Y-64155952D01*
X146488333Y-64117857D01*
X146526428Y-64041666D01*
X146602619Y-64003571D01*
X146716904Y-64003571D01*
X146793095Y-64041666D01*
X147097857Y-64003571D02*
X147250238Y-64536904D01*
X147402619Y-64155952D01*
X147555000Y-64536904D01*
X147707380Y-64003571D01*
X148355000Y-64498809D02*
X148278809Y-64536904D01*
X148126428Y-64536904D01*
X148050238Y-64498809D01*
X148012142Y-64460714D01*
X147974047Y-64384523D01*
X147974047Y-64155952D01*
X148012142Y-64079761D01*
X148050238Y-64041666D01*
X148126428Y-64003571D01*
X148278809Y-64003571D01*
X148355000Y-64041666D01*
X148812142Y-64536904D02*
X148735952Y-64498809D01*
X148697857Y-64422619D01*
X148697857Y-63736904D01*
X149116904Y-64536904D02*
X149116904Y-63736904D01*
X149193095Y-64232142D02*
X149421666Y-64536904D01*
X149421666Y-64003571D02*
X149116904Y-64308333D01*
X115290714Y-81108571D02*
X115290714Y-81908571D01*
X115290714Y-81146666D02*
X115366904Y-81108571D01*
X115519285Y-81108571D01*
X115595476Y-81146666D01*
X115633571Y-81184761D01*
X115671666Y-81260952D01*
X115671666Y-81489523D01*
X115633571Y-81565714D01*
X115595476Y-81603809D01*
X115519285Y-81641904D01*
X115366904Y-81641904D01*
X115290714Y-81603809D01*
X116357380Y-81641904D02*
X116357380Y-81222857D01*
X116319285Y-81146666D01*
X116243095Y-81108571D01*
X116090714Y-81108571D01*
X116014523Y-81146666D01*
X116357380Y-81603809D02*
X116281190Y-81641904D01*
X116090714Y-81641904D01*
X116014523Y-81603809D01*
X115976428Y-81527619D01*
X115976428Y-81451428D01*
X116014523Y-81375238D01*
X116090714Y-81337142D01*
X116281190Y-81337142D01*
X116357380Y-81299047D01*
X116700238Y-80918095D02*
X116738333Y-80880000D01*
X116814523Y-80841904D01*
X117005000Y-80841904D01*
X117081190Y-80880000D01*
X117119285Y-80918095D01*
X117157380Y-80994285D01*
X117157380Y-81070476D01*
X117119285Y-81184761D01*
X116662142Y-81641904D01*
X117157380Y-81641904D01*
X115290714Y-78568571D02*
X115290714Y-79368571D01*
X115290714Y-78606666D02*
X115366904Y-78568571D01*
X115519285Y-78568571D01*
X115595476Y-78606666D01*
X115633571Y-78644761D01*
X115671666Y-78720952D01*
X115671666Y-78949523D01*
X115633571Y-79025714D01*
X115595476Y-79063809D01*
X115519285Y-79101904D01*
X115366904Y-79101904D01*
X115290714Y-79063809D01*
X116357380Y-79101904D02*
X116357380Y-78682857D01*
X116319285Y-78606666D01*
X116243095Y-78568571D01*
X116090714Y-78568571D01*
X116014523Y-78606666D01*
X116357380Y-79063809D02*
X116281190Y-79101904D01*
X116090714Y-79101904D01*
X116014523Y-79063809D01*
X115976428Y-78987619D01*
X115976428Y-78911428D01*
X116014523Y-78835238D01*
X116090714Y-78797142D01*
X116281190Y-78797142D01*
X116357380Y-78759047D01*
X117157380Y-79101904D02*
X116700238Y-79101904D01*
X116928809Y-79101904D02*
X116928809Y-78301904D01*
X116852619Y-78416190D01*
X116776428Y-78492380D01*
X116700238Y-78530476D01*
X115290714Y-83648571D02*
X115290714Y-84448571D01*
X115290714Y-83686666D02*
X115366904Y-83648571D01*
X115519285Y-83648571D01*
X115595476Y-83686666D01*
X115633571Y-83724761D01*
X115671666Y-83800952D01*
X115671666Y-84029523D01*
X115633571Y-84105714D01*
X115595476Y-84143809D01*
X115519285Y-84181904D01*
X115366904Y-84181904D01*
X115290714Y-84143809D01*
X116357380Y-84181904D02*
X116357380Y-83762857D01*
X116319285Y-83686666D01*
X116243095Y-83648571D01*
X116090714Y-83648571D01*
X116014523Y-83686666D01*
X116357380Y-84143809D02*
X116281190Y-84181904D01*
X116090714Y-84181904D01*
X116014523Y-84143809D01*
X115976428Y-84067619D01*
X115976428Y-83991428D01*
X116014523Y-83915238D01*
X116090714Y-83877142D01*
X116281190Y-83877142D01*
X116357380Y-83839047D01*
X116662142Y-83381904D02*
X117157380Y-83381904D01*
X116890714Y-83686666D01*
X117005000Y-83686666D01*
X117081190Y-83724761D01*
X117119285Y-83762857D01*
X117157380Y-83839047D01*
X117157380Y-84029523D01*
X117119285Y-84105714D01*
X117081190Y-84143809D01*
X117005000Y-84181904D01*
X116776428Y-84181904D01*
X116700238Y-84143809D01*
X116662142Y-84105714D01*
X147402619Y-76028571D02*
X147402619Y-76676190D01*
X147364523Y-76752380D01*
X147326428Y-76790476D01*
X147250238Y-76828571D01*
X147135952Y-76828571D01*
X147059761Y-76790476D01*
X147402619Y-76523809D02*
X147326428Y-76561904D01*
X147174047Y-76561904D01*
X147097857Y-76523809D01*
X147059761Y-76485714D01*
X147021666Y-76409523D01*
X147021666Y-76180952D01*
X147059761Y-76104761D01*
X147097857Y-76066666D01*
X147174047Y-76028571D01*
X147326428Y-76028571D01*
X147402619Y-76066666D01*
X147783571Y-76028571D02*
X147783571Y-76561904D01*
X147783571Y-76104761D02*
X147821666Y-76066666D01*
X147897857Y-76028571D01*
X148012142Y-76028571D01*
X148088333Y-76066666D01*
X148126428Y-76142857D01*
X148126428Y-76561904D01*
X148850238Y-76561904D02*
X148850238Y-75761904D01*
X148850238Y-76523809D02*
X148774047Y-76561904D01*
X148621666Y-76561904D01*
X148545476Y-76523809D01*
X148507380Y-76485714D01*
X148469285Y-76409523D01*
X148469285Y-76180952D01*
X148507380Y-76104761D01*
X148545476Y-76066666D01*
X148621666Y-76028571D01*
X148774047Y-76028571D01*
X148850238Y-76066666D01*
X147040714Y-78568571D02*
X147040714Y-79368571D01*
X147040714Y-78606666D02*
X147116904Y-78568571D01*
X147269285Y-78568571D01*
X147345476Y-78606666D01*
X147383571Y-78644761D01*
X147421666Y-78720952D01*
X147421666Y-78949523D01*
X147383571Y-79025714D01*
X147345476Y-79063809D01*
X147269285Y-79101904D01*
X147116904Y-79101904D01*
X147040714Y-79063809D01*
X147764523Y-79101904D02*
X147764523Y-78301904D01*
X147764523Y-78606666D02*
X147840714Y-78568571D01*
X147993095Y-78568571D01*
X148069285Y-78606666D01*
X148107380Y-78644761D01*
X148145476Y-78720952D01*
X148145476Y-78949523D01*
X148107380Y-79025714D01*
X148069285Y-79063809D01*
X147993095Y-79101904D01*
X147840714Y-79101904D01*
X147764523Y-79063809D01*
X148907380Y-79101904D02*
X148450238Y-79101904D01*
X148678809Y-79101904D02*
X148678809Y-78301904D01*
X148602619Y-78416190D01*
X148526428Y-78492380D01*
X148450238Y-78530476D01*
X147040714Y-73488571D02*
X147231190Y-74021904D01*
X147421666Y-73488571D01*
X148069285Y-74021904D02*
X148069285Y-73221904D01*
X148069285Y-73983809D02*
X147993095Y-74021904D01*
X147840714Y-74021904D01*
X147764523Y-73983809D01*
X147726428Y-73945714D01*
X147688333Y-73869523D01*
X147688333Y-73640952D01*
X147726428Y-73564761D01*
X147764523Y-73526666D01*
X147840714Y-73488571D01*
X147993095Y-73488571D01*
X148069285Y-73526666D01*
X148793095Y-74021904D02*
X148793095Y-73221904D01*
X148793095Y-73983809D02*
X148716904Y-74021904D01*
X148564523Y-74021904D01*
X148488333Y-73983809D01*
X148450238Y-73945714D01*
X148412142Y-73869523D01*
X148412142Y-73640952D01*
X148450238Y-73564761D01*
X148488333Y-73526666D01*
X148564523Y-73488571D01*
X148716904Y-73488571D01*
X148793095Y-73526666D01*
X147250238Y-86046904D02*
X147250238Y-85627857D01*
X147212142Y-85551666D01*
X147135952Y-85513571D01*
X146983571Y-85513571D01*
X146907380Y-85551666D01*
X147250238Y-86008809D02*
X147174047Y-86046904D01*
X146983571Y-86046904D01*
X146907380Y-86008809D01*
X146869285Y-85932619D01*
X146869285Y-85856428D01*
X146907380Y-85780238D01*
X146983571Y-85742142D01*
X147174047Y-85742142D01*
X147250238Y-85704047D01*
X148012142Y-85246904D02*
X147631190Y-85246904D01*
X147593095Y-85627857D01*
X147631190Y-85589761D01*
X147707380Y-85551666D01*
X147897857Y-85551666D01*
X147974047Y-85589761D01*
X148012142Y-85627857D01*
X148050238Y-85704047D01*
X148050238Y-85894523D01*
X148012142Y-85970714D01*
X147974047Y-86008809D01*
X147897857Y-86046904D01*
X147707380Y-86046904D01*
X147631190Y-86008809D01*
X147593095Y-85970714D01*
X149040714Y-86046904D02*
X149002619Y-86046904D01*
X148926428Y-86008809D01*
X148812142Y-85894523D01*
X148621666Y-85665952D01*
X148545476Y-85551666D01*
X148507380Y-85437380D01*
X148507380Y-85361190D01*
X148545476Y-85285000D01*
X148621666Y-85246904D01*
X148659761Y-85246904D01*
X148735952Y-85285000D01*
X148774047Y-85361190D01*
X148774047Y-85399285D01*
X148735952Y-85475476D01*
X148697857Y-85513571D01*
X148469285Y-85665952D01*
X148431190Y-85704047D01*
X148393095Y-85780238D01*
X148393095Y-85894523D01*
X148431190Y-85970714D01*
X148469285Y-86008809D01*
X148545476Y-86046904D01*
X148659761Y-86046904D01*
X148735952Y-86008809D01*
X148774047Y-85970714D01*
X148888333Y-85818333D01*
X148926428Y-85704047D01*
X148926428Y-85627857D01*
X147440714Y-87396904D02*
X147059761Y-87396904D01*
X147059761Y-86596904D01*
X147707380Y-86977857D02*
X147974047Y-86977857D01*
X148088333Y-87396904D02*
X147707380Y-87396904D01*
X147707380Y-86596904D01*
X148088333Y-86596904D01*
X148431190Y-87396904D02*
X148431190Y-86596904D01*
X148621666Y-86596904D01*
X148735952Y-86635000D01*
X148812142Y-86711190D01*
X148850238Y-86787380D01*
X148888333Y-86939761D01*
X148888333Y-87054047D01*
X148850238Y-87206428D01*
X148812142Y-87282619D01*
X148735952Y-87358809D01*
X148621666Y-87396904D01*
X148431190Y-87396904D01*
X115500238Y-86046904D02*
X115500238Y-85627857D01*
X115462142Y-85551666D01*
X115385952Y-85513571D01*
X115233571Y-85513571D01*
X115157380Y-85551666D01*
X115500238Y-86008809D02*
X115424047Y-86046904D01*
X115233571Y-86046904D01*
X115157380Y-86008809D01*
X115119285Y-85932619D01*
X115119285Y-85856428D01*
X115157380Y-85780238D01*
X115233571Y-85742142D01*
X115424047Y-85742142D01*
X115500238Y-85704047D01*
X116224047Y-85513571D02*
X116224047Y-86046904D01*
X116033571Y-85208809D02*
X115843095Y-85780238D01*
X116338333Y-85780238D01*
X117290714Y-86046904D02*
X117252619Y-86046904D01*
X117176428Y-86008809D01*
X117062142Y-85894523D01*
X116871666Y-85665952D01*
X116795476Y-85551666D01*
X116757380Y-85437380D01*
X116757380Y-85361190D01*
X116795476Y-85285000D01*
X116871666Y-85246904D01*
X116909761Y-85246904D01*
X116985952Y-85285000D01*
X117024047Y-85361190D01*
X117024047Y-85399285D01*
X116985952Y-85475476D01*
X116947857Y-85513571D01*
X116719285Y-85665952D01*
X116681190Y-85704047D01*
X116643095Y-85780238D01*
X116643095Y-85894523D01*
X116681190Y-85970714D01*
X116719285Y-86008809D01*
X116795476Y-86046904D01*
X116909761Y-86046904D01*
X116985952Y-86008809D01*
X117024047Y-85970714D01*
X117138333Y-85818333D01*
X117176428Y-85704047D01*
X117176428Y-85627857D01*
X114490714Y-87358809D02*
X114566904Y-87396904D01*
X114719285Y-87396904D01*
X114795476Y-87358809D01*
X114833571Y-87282619D01*
X114833571Y-87244523D01*
X114795476Y-87168333D01*
X114719285Y-87130238D01*
X114605000Y-87130238D01*
X114528809Y-87092142D01*
X114490714Y-87015952D01*
X114490714Y-86977857D01*
X114528809Y-86901666D01*
X114605000Y-86863571D01*
X114719285Y-86863571D01*
X114795476Y-86901666D01*
X115100238Y-86863571D02*
X115252619Y-87396904D01*
X115405000Y-87015952D01*
X115557380Y-87396904D01*
X115709761Y-86863571D01*
X116014523Y-87396904D02*
X116014523Y-86863571D01*
X116014523Y-86596904D02*
X115976428Y-86635000D01*
X116014523Y-86673095D01*
X116052619Y-86635000D01*
X116014523Y-86596904D01*
X116014523Y-86673095D01*
X116281190Y-86863571D02*
X116585952Y-86863571D01*
X116395476Y-86596904D02*
X116395476Y-87282619D01*
X116433571Y-87358809D01*
X116509761Y-87396904D01*
X116585952Y-87396904D01*
X117195476Y-87358809D02*
X117119285Y-87396904D01*
X116966904Y-87396904D01*
X116890714Y-87358809D01*
X116852619Y-87320714D01*
X116814523Y-87244523D01*
X116814523Y-87015952D01*
X116852619Y-86939761D01*
X116890714Y-86901666D01*
X116966904Y-86863571D01*
X117119285Y-86863571D01*
X117195476Y-86901666D01*
X117538333Y-87396904D02*
X117538333Y-86596904D01*
X117881190Y-87396904D02*
X117881190Y-86977857D01*
X117843095Y-86901666D01*
X117766904Y-86863571D01*
X117652619Y-86863571D01*
X117576428Y-86901666D01*
X117538333Y-86939761D01*
X147040714Y-83648571D02*
X147040714Y-84448571D01*
X147040714Y-83686666D02*
X147116904Y-83648571D01*
X147269285Y-83648571D01*
X147345476Y-83686666D01*
X147383571Y-83724761D01*
X147421666Y-83800952D01*
X147421666Y-84029523D01*
X147383571Y-84105714D01*
X147345476Y-84143809D01*
X147269285Y-84181904D01*
X147116904Y-84181904D01*
X147040714Y-84143809D01*
X148107380Y-84181904D02*
X148107380Y-83762857D01*
X148069285Y-83686666D01*
X147993095Y-83648571D01*
X147840714Y-83648571D01*
X147764523Y-83686666D01*
X148107380Y-84143809D02*
X148031190Y-84181904D01*
X147840714Y-84181904D01*
X147764523Y-84143809D01*
X147726428Y-84067619D01*
X147726428Y-83991428D01*
X147764523Y-83915238D01*
X147840714Y-83877142D01*
X148031190Y-83877142D01*
X148107380Y-83839047D01*
X148831190Y-83381904D02*
X148678809Y-83381904D01*
X148602619Y-83420000D01*
X148564523Y-83458095D01*
X148488333Y-83572380D01*
X148450238Y-83724761D01*
X148450238Y-84029523D01*
X148488333Y-84105714D01*
X148526428Y-84143809D01*
X148602619Y-84181904D01*
X148755000Y-84181904D01*
X148831190Y-84143809D01*
X148869285Y-84105714D01*
X148907380Y-84029523D01*
X148907380Y-83839047D01*
X148869285Y-83762857D01*
X148831190Y-83724761D01*
X148755000Y-83686666D01*
X148602619Y-83686666D01*
X148526428Y-83724761D01*
X148488333Y-83762857D01*
X148450238Y-83839047D01*
X115290714Y-76028571D02*
X115290714Y-76828571D01*
X115290714Y-76066666D02*
X115366904Y-76028571D01*
X115519285Y-76028571D01*
X115595476Y-76066666D01*
X115633571Y-76104761D01*
X115671666Y-76180952D01*
X115671666Y-76409523D01*
X115633571Y-76485714D01*
X115595476Y-76523809D01*
X115519285Y-76561904D01*
X115366904Y-76561904D01*
X115290714Y-76523809D01*
X116357380Y-76561904D02*
X116357380Y-76142857D01*
X116319285Y-76066666D01*
X116243095Y-76028571D01*
X116090714Y-76028571D01*
X116014523Y-76066666D01*
X116357380Y-76523809D02*
X116281190Y-76561904D01*
X116090714Y-76561904D01*
X116014523Y-76523809D01*
X115976428Y-76447619D01*
X115976428Y-76371428D01*
X116014523Y-76295238D01*
X116090714Y-76257142D01*
X116281190Y-76257142D01*
X116357380Y-76219047D01*
X116890714Y-75761904D02*
X116966904Y-75761904D01*
X117043095Y-75800000D01*
X117081190Y-75838095D01*
X117119285Y-75914285D01*
X117157380Y-76066666D01*
X117157380Y-76257142D01*
X117119285Y-76409523D01*
X117081190Y-76485714D01*
X117043095Y-76523809D01*
X116966904Y-76561904D01*
X116890714Y-76561904D01*
X116814523Y-76523809D01*
X116776428Y-76485714D01*
X116738333Y-76409523D01*
X116700238Y-76257142D01*
X116700238Y-76066666D01*
X116738333Y-75914285D01*
X116776428Y-75838095D01*
X116814523Y-75800000D01*
X116890714Y-75761904D01*
X147040714Y-81108571D02*
X147040714Y-81908571D01*
X147040714Y-81146666D02*
X147116904Y-81108571D01*
X147269285Y-81108571D01*
X147345476Y-81146666D01*
X147383571Y-81184761D01*
X147421666Y-81260952D01*
X147421666Y-81489523D01*
X147383571Y-81565714D01*
X147345476Y-81603809D01*
X147269285Y-81641904D01*
X147116904Y-81641904D01*
X147040714Y-81603809D01*
X148107380Y-81641904D02*
X148107380Y-81222857D01*
X148069285Y-81146666D01*
X147993095Y-81108571D01*
X147840714Y-81108571D01*
X147764523Y-81146666D01*
X148107380Y-81603809D02*
X148031190Y-81641904D01*
X147840714Y-81641904D01*
X147764523Y-81603809D01*
X147726428Y-81527619D01*
X147726428Y-81451428D01*
X147764523Y-81375238D01*
X147840714Y-81337142D01*
X148031190Y-81337142D01*
X148107380Y-81299047D01*
X148412142Y-80841904D02*
X148945476Y-80841904D01*
X148602619Y-81641904D01*
X115233571Y-70948571D02*
X115233571Y-71481904D01*
X115233571Y-71024761D02*
X115271666Y-70986666D01*
X115347857Y-70948571D01*
X115462142Y-70948571D01*
X115538333Y-70986666D01*
X115576428Y-71062857D01*
X115576428Y-71481904D01*
X115957380Y-71481904D02*
X115957380Y-70948571D01*
X115957380Y-71100952D02*
X115995476Y-71024761D01*
X116033571Y-70986666D01*
X116109761Y-70948571D01*
X116185952Y-70948571D01*
X116414523Y-71443809D02*
X116490714Y-71481904D01*
X116643095Y-71481904D01*
X116719285Y-71443809D01*
X116757380Y-71367619D01*
X116757380Y-71329523D01*
X116719285Y-71253333D01*
X116643095Y-71215238D01*
X116528809Y-71215238D01*
X116452619Y-71177142D01*
X116414523Y-71100952D01*
X116414523Y-71062857D01*
X116452619Y-70986666D01*
X116528809Y-70948571D01*
X116643095Y-70948571D01*
X116719285Y-70986666D01*
X116985952Y-70948571D02*
X117290714Y-70948571D01*
X117100238Y-70681904D02*
X117100238Y-71367619D01*
X117138333Y-71443809D01*
X117214523Y-71481904D01*
X117290714Y-71481904D01*
X115290714Y-73488571D02*
X115481190Y-74021904D01*
X115671666Y-73488571D01*
X116319285Y-74021904D02*
X116319285Y-73221904D01*
X116319285Y-73983809D02*
X116243095Y-74021904D01*
X116090714Y-74021904D01*
X116014523Y-73983809D01*
X115976428Y-73945714D01*
X115938333Y-73869523D01*
X115938333Y-73640952D01*
X115976428Y-73564761D01*
X116014523Y-73526666D01*
X116090714Y-73488571D01*
X116243095Y-73488571D01*
X116319285Y-73526666D01*
X117043095Y-74021904D02*
X117043095Y-73221904D01*
X117043095Y-73983809D02*
X116966904Y-74021904D01*
X116814523Y-74021904D01*
X116738333Y-73983809D01*
X116700238Y-73945714D01*
X116662142Y-73869523D01*
X116662142Y-73640952D01*
X116700238Y-73564761D01*
X116738333Y-73526666D01*
X116814523Y-73488571D01*
X116966904Y-73488571D01*
X117043095Y-73526666D01*
X115157380Y-68266904D02*
X115157380Y-67466904D01*
X115614523Y-68266904D01*
X115614523Y-67466904D01*
X116452619Y-68190714D02*
X116414523Y-68228809D01*
X116300238Y-68266904D01*
X116224047Y-68266904D01*
X116109761Y-68228809D01*
X116033571Y-68152619D01*
X115995476Y-68076428D01*
X115957380Y-67924047D01*
X115957380Y-67809761D01*
X115995476Y-67657380D01*
X116033571Y-67581190D01*
X116109761Y-67505000D01*
X116224047Y-67466904D01*
X116300238Y-67466904D01*
X116414523Y-67505000D01*
X116452619Y-67543095D01*
X117366904Y-67428809D02*
X116681190Y-68457380D01*
X115424047Y-69616904D02*
X115424047Y-68816904D01*
X115500238Y-69312142D02*
X115728809Y-69616904D01*
X115728809Y-69083571D02*
X115424047Y-69388333D01*
X116376428Y-69578809D02*
X116300238Y-69616904D01*
X116147857Y-69616904D01*
X116071666Y-69578809D01*
X116033571Y-69502619D01*
X116033571Y-69197857D01*
X116071666Y-69121666D01*
X116147857Y-69083571D01*
X116300238Y-69083571D01*
X116376428Y-69121666D01*
X116414523Y-69197857D01*
X116414523Y-69274047D01*
X116033571Y-69350238D01*
X116681190Y-69083571D02*
X116871666Y-69616904D01*
X117062142Y-69083571D02*
X116871666Y-69616904D01*
X116795476Y-69807380D01*
X116757380Y-69845476D01*
X116681190Y-69883571D01*
X115652619Y-65868571D02*
X115652619Y-66516190D01*
X115614523Y-66592380D01*
X115576428Y-66630476D01*
X115500238Y-66668571D01*
X115385952Y-66668571D01*
X115309761Y-66630476D01*
X115652619Y-66363809D02*
X115576428Y-66401904D01*
X115424047Y-66401904D01*
X115347857Y-66363809D01*
X115309761Y-66325714D01*
X115271666Y-66249523D01*
X115271666Y-66020952D01*
X115309761Y-65944761D01*
X115347857Y-65906666D01*
X115424047Y-65868571D01*
X115576428Y-65868571D01*
X115652619Y-65906666D01*
X116033571Y-65868571D02*
X116033571Y-66401904D01*
X116033571Y-65944761D02*
X116071666Y-65906666D01*
X116147857Y-65868571D01*
X116262142Y-65868571D01*
X116338333Y-65906666D01*
X116376428Y-65982857D01*
X116376428Y-66401904D01*
X117100238Y-66401904D02*
X117100238Y-65601904D01*
X117100238Y-66363809D02*
X117024047Y-66401904D01*
X116871666Y-66401904D01*
X116795476Y-66363809D01*
X116757380Y-66325714D01*
X116719285Y-66249523D01*
X116719285Y-66020952D01*
X116757380Y-65944761D01*
X116795476Y-65906666D01*
X116871666Y-65868571D01*
X117024047Y-65868571D01*
X117100238Y-65906666D01*
X114700238Y-63861904D02*
X114700238Y-63061904D01*
X114700238Y-63366666D02*
X114776428Y-63328571D01*
X114928809Y-63328571D01*
X115005000Y-63366666D01*
X115043095Y-63404761D01*
X115081190Y-63480952D01*
X115081190Y-63709523D01*
X115043095Y-63785714D01*
X115005000Y-63823809D01*
X114928809Y-63861904D01*
X114776428Y-63861904D01*
X114700238Y-63823809D01*
X115538333Y-63861904D02*
X115462142Y-63823809D01*
X115424047Y-63785714D01*
X115385952Y-63709523D01*
X115385952Y-63480952D01*
X115424047Y-63404761D01*
X115462142Y-63366666D01*
X115538333Y-63328571D01*
X115652619Y-63328571D01*
X115728809Y-63366666D01*
X115766904Y-63404761D01*
X115805000Y-63480952D01*
X115805000Y-63709523D01*
X115766904Y-63785714D01*
X115728809Y-63823809D01*
X115652619Y-63861904D01*
X115538333Y-63861904D01*
X116262142Y-63861904D02*
X116185952Y-63823809D01*
X116147857Y-63785714D01*
X116109761Y-63709523D01*
X116109761Y-63480952D01*
X116147857Y-63404761D01*
X116185952Y-63366666D01*
X116262142Y-63328571D01*
X116376428Y-63328571D01*
X116452619Y-63366666D01*
X116490714Y-63404761D01*
X116528809Y-63480952D01*
X116528809Y-63709523D01*
X116490714Y-63785714D01*
X116452619Y-63823809D01*
X116376428Y-63861904D01*
X116262142Y-63861904D01*
X116757380Y-63328571D02*
X117062142Y-63328571D01*
X116871666Y-63061904D02*
X116871666Y-63747619D01*
X116909761Y-63823809D01*
X116985952Y-63861904D01*
X117062142Y-63861904D01*
X117481190Y-63061904D02*
X117557380Y-63061904D01*
X117633571Y-63100000D01*
X117671666Y-63138095D01*
X117709761Y-63214285D01*
X117747857Y-63366666D01*
X117747857Y-63557142D01*
X117709761Y-63709523D01*
X117671666Y-63785714D01*
X117633571Y-63823809D01*
X117557380Y-63861904D01*
X117481190Y-63861904D01*
X117405000Y-63823809D01*
X117366904Y-63785714D01*
X117328809Y-63709523D01*
X117290714Y-63557142D01*
X117290714Y-63366666D01*
X117328809Y-63214285D01*
X117366904Y-63138095D01*
X117405000Y-63100000D01*
X117481190Y-63061904D01*
D12*
G04 #@! TO.C,C2*
X125580000Y-75465000D02*
X125580000Y-72605000D01*
X123660000Y-75465000D02*
X125580000Y-75465000D01*
X123660000Y-72605000D02*
X123660000Y-75465000D01*
G04 #@! TO.C,C3*
X125660000Y-72605000D02*
X125660000Y-75465000D01*
X125660000Y-75465000D02*
X127580000Y-75465000D01*
X127580000Y-75465000D02*
X127580000Y-72605000D01*
G04 #@! TO.C,C4*
X139160000Y-73545000D02*
X139160000Y-76405000D01*
X141080000Y-73545000D02*
X139160000Y-73545000D01*
X141080000Y-76405000D02*
X141080000Y-73545000D01*
G04 #@! TO.C,C5*
X138830000Y-76405000D02*
X138830000Y-73545000D01*
X138830000Y-73545000D02*
X136910000Y-73545000D01*
X136910000Y-73545000D02*
X136910000Y-76405000D01*
G04 #@! TO.C,D1*
X121235000Y-71682500D02*
X121235000Y-75742500D01*
X123505000Y-71682500D02*
X121235000Y-71682500D01*
X123505000Y-75742500D02*
X123505000Y-71682500D01*
G04 #@! TO.C,D2*
X136735000Y-81042500D02*
X136735000Y-85102500D01*
X136735000Y-85102500D02*
X139005000Y-85102500D01*
X139005000Y-85102500D02*
X139005000Y-81042500D01*
G04 #@! TO.C,R2*
X123133748Y-69920000D02*
X123656252Y-69920000D01*
X123133748Y-71340000D02*
X123656252Y-71340000D01*
G04 #@! TO.C,R3*
X138580000Y-87143748D02*
X138580000Y-87666252D01*
X137160000Y-87143748D02*
X137160000Y-87666252D01*
D10*
G04 #@! TO.C,SW1*
X125870000Y-68880000D02*
X125870000Y-58880000D01*
X125870000Y-58880000D02*
X137870000Y-58880000D01*
X137870000Y-58880000D02*
X137870000Y-68880000D01*
X137870000Y-68880000D02*
X125870000Y-68880000D01*
G04 #@! TO.C,U1*
X128995000Y-78555000D02*
X128995000Y-79055000D01*
X128995000Y-79055000D02*
X129995000Y-79055000D01*
X134495000Y-78555000D02*
X134495000Y-79055000D01*
X134495000Y-79055000D02*
X133495000Y-79055000D01*
X134495000Y-72055000D02*
X134495000Y-71805000D01*
X134495000Y-71805000D02*
X134495000Y-71555000D01*
X134495000Y-71555000D02*
X133495000Y-71555000D01*
X128995000Y-72055000D02*
X129495000Y-71555000D01*
X129495000Y-71555000D02*
X130495000Y-71555000D01*
X130598553Y-72555000D02*
G75*
G03X130598553Y-72555000I-353553J0D01*
G01*
G04 #@! TO.C,SW2*
X124120000Y-90630000D02*
X124120000Y-80630000D01*
X124120000Y-80630000D02*
X136120000Y-80630000D01*
X136120000Y-80630000D02*
X136120000Y-90630000D01*
X136120000Y-90630000D02*
X124120000Y-90630000D01*
D12*
G04 #@! TO.C,J1*
X118050000Y-86360000D02*
X118050000Y-87690000D01*
X118050000Y-85110000D02*
X118050000Y-86440000D01*
X119380000Y-87690000D02*
X118050000Y-87690000D01*
X120710000Y-85080000D02*
X120710000Y-86410000D01*
X120710000Y-62170000D02*
X118050000Y-62170000D01*
X120710000Y-85090000D02*
X120710000Y-62170000D01*
X118050000Y-85090000D02*
X118050000Y-62170000D01*
X120710000Y-86360000D02*
X120710000Y-87690000D01*
X120710000Y-87690000D02*
X119380000Y-87690000D01*
G04 #@! TO.C,J2*
X143450000Y-62170000D02*
X144780000Y-62170000D01*
X143450000Y-63500000D02*
X143450000Y-62170000D01*
X146110000Y-64770000D02*
X146110000Y-87690000D01*
X143450000Y-64770000D02*
X143450000Y-87690000D01*
X143450000Y-87690000D02*
X146110000Y-87690000D01*
X143450000Y-64780000D02*
X143450000Y-63450000D01*
X144780000Y-62170000D02*
X146110000Y-62170000D01*
X146110000Y-64750000D02*
X146110000Y-63420000D01*
X146110000Y-63500000D02*
X146110000Y-62170000D01*
G04 #@! TO.C,C8*
X123580000Y-88605000D02*
X123580000Y-85745000D01*
X123580000Y-85745000D02*
X121660000Y-85745000D01*
X121660000Y-85745000D02*
X121660000Y-88605000D01*
G04 #@! TO.C,C2*
D10*
X124486666Y-77665714D02*
X124448571Y-77703809D01*
X124334285Y-77741904D01*
X124258095Y-77741904D01*
X124143809Y-77703809D01*
X124067619Y-77627619D01*
X124029523Y-77551428D01*
X123991428Y-77399047D01*
X123991428Y-77284761D01*
X124029523Y-77132380D01*
X124067619Y-77056190D01*
X124143809Y-76980000D01*
X124258095Y-76941904D01*
X124334285Y-76941904D01*
X124448571Y-76980000D01*
X124486666Y-77018095D01*
X124791428Y-77018095D02*
X124829523Y-76980000D01*
X124905714Y-76941904D01*
X125096190Y-76941904D01*
X125172380Y-76980000D01*
X125210476Y-77018095D01*
X125248571Y-77094285D01*
X125248571Y-77170476D01*
X125210476Y-77284761D01*
X124753333Y-77741904D01*
X125248571Y-77741904D01*
X124143809Y-76491904D02*
X123686666Y-76491904D01*
X123915238Y-76491904D02*
X123915238Y-75691904D01*
X123839047Y-75806190D01*
X123762857Y-75882380D01*
X123686666Y-75920476D01*
X124829523Y-75958571D02*
X124829523Y-76491904D01*
X124486666Y-75958571D02*
X124486666Y-76377619D01*
X124524761Y-76453809D01*
X124600952Y-76491904D01*
X124715238Y-76491904D01*
X124791428Y-76453809D01*
X124829523Y-76415714D01*
X125477142Y-76072857D02*
X125210476Y-76072857D01*
X125210476Y-76491904D02*
X125210476Y-75691904D01*
X125591428Y-75691904D01*
G04 #@! TO.C,C3*
X126905714Y-71013333D02*
X126943809Y-71051428D01*
X126981904Y-71165714D01*
X126981904Y-71241904D01*
X126943809Y-71356190D01*
X126867619Y-71432380D01*
X126791428Y-71470476D01*
X126639047Y-71508571D01*
X126524761Y-71508571D01*
X126372380Y-71470476D01*
X126296190Y-71432380D01*
X126220000Y-71356190D01*
X126181904Y-71241904D01*
X126181904Y-71165714D01*
X126220000Y-71051428D01*
X126258095Y-71013333D01*
X126181904Y-70746666D02*
X126181904Y-70251428D01*
X126486666Y-70518095D01*
X126486666Y-70403809D01*
X126524761Y-70327619D01*
X126562857Y-70289523D01*
X126639047Y-70251428D01*
X126829523Y-70251428D01*
X126905714Y-70289523D01*
X126943809Y-70327619D01*
X126981904Y-70403809D01*
X126981904Y-70632380D01*
X126943809Y-70708571D01*
X126905714Y-70746666D01*
X126981904Y-78618095D02*
X126981904Y-79075238D01*
X126981904Y-78846666D02*
X126181904Y-78846666D01*
X126296190Y-78922857D01*
X126372380Y-78999047D01*
X126410476Y-79075238D01*
X126181904Y-78122857D02*
X126181904Y-78046666D01*
X126220000Y-77970476D01*
X126258095Y-77932380D01*
X126334285Y-77894285D01*
X126486666Y-77856190D01*
X126677142Y-77856190D01*
X126829523Y-77894285D01*
X126905714Y-77932380D01*
X126943809Y-77970476D01*
X126981904Y-78046666D01*
X126981904Y-78122857D01*
X126943809Y-78199047D01*
X126905714Y-78237142D01*
X126829523Y-78275238D01*
X126677142Y-78313333D01*
X126486666Y-78313333D01*
X126334285Y-78275238D01*
X126258095Y-78237142D01*
X126220000Y-78199047D01*
X126181904Y-78122857D01*
X126181904Y-77360952D02*
X126181904Y-77284761D01*
X126220000Y-77208571D01*
X126258095Y-77170476D01*
X126334285Y-77132380D01*
X126486666Y-77094285D01*
X126677142Y-77094285D01*
X126829523Y-77132380D01*
X126905714Y-77170476D01*
X126943809Y-77208571D01*
X126981904Y-77284761D01*
X126981904Y-77360952D01*
X126943809Y-77437142D01*
X126905714Y-77475238D01*
X126829523Y-77513333D01*
X126677142Y-77551428D01*
X126486666Y-77551428D01*
X126334285Y-77513333D01*
X126258095Y-77475238D01*
X126220000Y-77437142D01*
X126181904Y-77360952D01*
X126448571Y-76751428D02*
X126981904Y-76751428D01*
X126524761Y-76751428D02*
X126486666Y-76713333D01*
X126448571Y-76637142D01*
X126448571Y-76522857D01*
X126486666Y-76446666D01*
X126562857Y-76408571D01*
X126981904Y-76408571D01*
X126562857Y-75760952D02*
X126562857Y-76027619D01*
X126981904Y-76027619D02*
X126181904Y-76027619D01*
X126181904Y-75646666D01*
G04 #@! TO.C,C4*
X139986666Y-79165714D02*
X139948571Y-79203809D01*
X139834285Y-79241904D01*
X139758095Y-79241904D01*
X139643809Y-79203809D01*
X139567619Y-79127619D01*
X139529523Y-79051428D01*
X139491428Y-78899047D01*
X139491428Y-78784761D01*
X139529523Y-78632380D01*
X139567619Y-78556190D01*
X139643809Y-78480000D01*
X139758095Y-78441904D01*
X139834285Y-78441904D01*
X139948571Y-78480000D01*
X139986666Y-78518095D01*
X140672380Y-78708571D02*
X140672380Y-79241904D01*
X140481904Y-78403809D02*
X140291428Y-78975238D01*
X140786666Y-78975238D01*
X139262857Y-78241904D02*
X138805714Y-78241904D01*
X139034285Y-78241904D02*
X139034285Y-77441904D01*
X138958095Y-77556190D01*
X138881904Y-77632380D01*
X138805714Y-77670476D01*
X139758095Y-77441904D02*
X139834285Y-77441904D01*
X139910476Y-77480000D01*
X139948571Y-77518095D01*
X139986666Y-77594285D01*
X140024761Y-77746666D01*
X140024761Y-77937142D01*
X139986666Y-78089523D01*
X139948571Y-78165714D01*
X139910476Y-78203809D01*
X139834285Y-78241904D01*
X139758095Y-78241904D01*
X139681904Y-78203809D01*
X139643809Y-78165714D01*
X139605714Y-78089523D01*
X139567619Y-77937142D01*
X139567619Y-77746666D01*
X139605714Y-77594285D01*
X139643809Y-77518095D01*
X139681904Y-77480000D01*
X139758095Y-77441904D01*
X140710476Y-77708571D02*
X140710476Y-78241904D01*
X140367619Y-77708571D02*
X140367619Y-78127619D01*
X140405714Y-78203809D01*
X140481904Y-78241904D01*
X140596190Y-78241904D01*
X140672380Y-78203809D01*
X140710476Y-78165714D01*
X141358095Y-77822857D02*
X141091428Y-77822857D01*
X141091428Y-78241904D02*
X141091428Y-77441904D01*
X141472380Y-77441904D01*
G04 #@! TO.C,C5*
X137736666Y-71915714D02*
X137698571Y-71953809D01*
X137584285Y-71991904D01*
X137508095Y-71991904D01*
X137393809Y-71953809D01*
X137317619Y-71877619D01*
X137279523Y-71801428D01*
X137241428Y-71649047D01*
X137241428Y-71534761D01*
X137279523Y-71382380D01*
X137317619Y-71306190D01*
X137393809Y-71230000D01*
X137508095Y-71191904D01*
X137584285Y-71191904D01*
X137698571Y-71230000D01*
X137736666Y-71268095D01*
X138460476Y-71191904D02*
X138079523Y-71191904D01*
X138041428Y-71572857D01*
X138079523Y-71534761D01*
X138155714Y-71496666D01*
X138346190Y-71496666D01*
X138422380Y-71534761D01*
X138460476Y-71572857D01*
X138498571Y-71649047D01*
X138498571Y-71839523D01*
X138460476Y-71915714D01*
X138422380Y-71953809D01*
X138346190Y-71991904D01*
X138155714Y-71991904D01*
X138079523Y-71953809D01*
X138041428Y-71915714D01*
X136631904Y-73241904D02*
X136174761Y-73241904D01*
X136403333Y-73241904D02*
X136403333Y-72441904D01*
X136327142Y-72556190D01*
X136250952Y-72632380D01*
X136174761Y-72670476D01*
X137127142Y-72441904D02*
X137203333Y-72441904D01*
X137279523Y-72480000D01*
X137317619Y-72518095D01*
X137355714Y-72594285D01*
X137393809Y-72746666D01*
X137393809Y-72937142D01*
X137355714Y-73089523D01*
X137317619Y-73165714D01*
X137279523Y-73203809D01*
X137203333Y-73241904D01*
X137127142Y-73241904D01*
X137050952Y-73203809D01*
X137012857Y-73165714D01*
X136974761Y-73089523D01*
X136936666Y-72937142D01*
X136936666Y-72746666D01*
X136974761Y-72594285D01*
X137012857Y-72518095D01*
X137050952Y-72480000D01*
X137127142Y-72441904D01*
X137889047Y-72441904D02*
X137965238Y-72441904D01*
X138041428Y-72480000D01*
X138079523Y-72518095D01*
X138117619Y-72594285D01*
X138155714Y-72746666D01*
X138155714Y-72937142D01*
X138117619Y-73089523D01*
X138079523Y-73165714D01*
X138041428Y-73203809D01*
X137965238Y-73241904D01*
X137889047Y-73241904D01*
X137812857Y-73203809D01*
X137774761Y-73165714D01*
X137736666Y-73089523D01*
X137698571Y-72937142D01*
X137698571Y-72746666D01*
X137736666Y-72594285D01*
X137774761Y-72518095D01*
X137812857Y-72480000D01*
X137889047Y-72441904D01*
X138498571Y-72708571D02*
X138498571Y-73241904D01*
X138498571Y-72784761D02*
X138536666Y-72746666D01*
X138612857Y-72708571D01*
X138727142Y-72708571D01*
X138803333Y-72746666D01*
X138841428Y-72822857D01*
X138841428Y-73241904D01*
X139489047Y-72822857D02*
X139222380Y-72822857D01*
X139222380Y-73241904D02*
X139222380Y-72441904D01*
X139603333Y-72441904D01*
G04 #@! TO.C,D1*
X123731904Y-77970476D02*
X122931904Y-77970476D01*
X122931904Y-77780000D01*
X122970000Y-77665714D01*
X123046190Y-77589523D01*
X123122380Y-77551428D01*
X123274761Y-77513333D01*
X123389047Y-77513333D01*
X123541428Y-77551428D01*
X123617619Y-77589523D01*
X123693809Y-77665714D01*
X123731904Y-77780000D01*
X123731904Y-77970476D01*
X123731904Y-76751428D02*
X123731904Y-77208571D01*
X123731904Y-76980000D02*
X122931904Y-76980000D01*
X123046190Y-77056190D01*
X123122380Y-77132380D01*
X123160476Y-77208571D01*
X122481904Y-84092619D02*
X122443809Y-84168809D01*
X122367619Y-84206904D01*
X121681904Y-84206904D01*
X122443809Y-83483095D02*
X122481904Y-83559285D01*
X122481904Y-83711666D01*
X122443809Y-83787857D01*
X122367619Y-83825952D01*
X122062857Y-83825952D01*
X121986666Y-83787857D01*
X121948571Y-83711666D01*
X121948571Y-83559285D01*
X121986666Y-83483095D01*
X122062857Y-83445000D01*
X122139047Y-83445000D01*
X122215238Y-83825952D01*
X122481904Y-82759285D02*
X121681904Y-82759285D01*
X122443809Y-82759285D02*
X122481904Y-82835476D01*
X122481904Y-82987857D01*
X122443809Y-83064047D01*
X122405714Y-83102142D01*
X122329523Y-83140238D01*
X122100952Y-83140238D01*
X122024761Y-83102142D01*
X121986666Y-83064047D01*
X121948571Y-82987857D01*
X121948571Y-82835476D01*
X121986666Y-82759285D01*
X122177142Y-81768809D02*
X122177142Y-81159285D01*
X121948571Y-80168809D02*
X122748571Y-80168809D01*
X121986666Y-80168809D02*
X121948571Y-80092619D01*
X121948571Y-79940238D01*
X121986666Y-79864047D01*
X122024761Y-79825952D01*
X122100952Y-79787857D01*
X122329523Y-79787857D01*
X122405714Y-79825952D01*
X122443809Y-79864047D01*
X122481904Y-79940238D01*
X122481904Y-80092619D01*
X122443809Y-80168809D01*
X122481904Y-79330714D02*
X122443809Y-79406904D01*
X122405714Y-79445000D01*
X122329523Y-79483095D01*
X122100952Y-79483095D01*
X122024761Y-79445000D01*
X121986666Y-79406904D01*
X121948571Y-79330714D01*
X121948571Y-79216428D01*
X121986666Y-79140238D01*
X122024761Y-79102142D01*
X122100952Y-79064047D01*
X122329523Y-79064047D01*
X122405714Y-79102142D01*
X122443809Y-79140238D01*
X122481904Y-79216428D01*
X122481904Y-79330714D01*
X121948571Y-78797380D02*
X122481904Y-78645000D01*
X122100952Y-78492619D01*
X122481904Y-78340238D01*
X121948571Y-78187857D01*
X122443809Y-77578333D02*
X122481904Y-77654523D01*
X122481904Y-77806904D01*
X122443809Y-77883095D01*
X122367619Y-77921190D01*
X122062857Y-77921190D01*
X121986666Y-77883095D01*
X121948571Y-77806904D01*
X121948571Y-77654523D01*
X121986666Y-77578333D01*
X122062857Y-77540238D01*
X122139047Y-77540238D01*
X122215238Y-77921190D01*
X122481904Y-77197380D02*
X121948571Y-77197380D01*
X122100952Y-77197380D02*
X122024761Y-77159285D01*
X121986666Y-77121190D01*
X121948571Y-77045000D01*
X121948571Y-76968809D01*
G04 #@! TO.C,D2*
X137981904Y-79970476D02*
X137181904Y-79970476D01*
X137181904Y-79780000D01*
X137220000Y-79665714D01*
X137296190Y-79589523D01*
X137372380Y-79551428D01*
X137524761Y-79513333D01*
X137639047Y-79513333D01*
X137791428Y-79551428D01*
X137867619Y-79589523D01*
X137943809Y-79665714D01*
X137981904Y-79780000D01*
X137981904Y-79970476D01*
X137258095Y-79208571D02*
X137220000Y-79170476D01*
X137181904Y-79094285D01*
X137181904Y-78903809D01*
X137220000Y-78827619D01*
X137258095Y-78789523D01*
X137334285Y-78751428D01*
X137410476Y-78751428D01*
X137524761Y-78789523D01*
X137981904Y-79246666D01*
X137981904Y-78751428D01*
X140231904Y-83144285D02*
X140231904Y-83525238D01*
X139431904Y-83525238D01*
X139812857Y-82877619D02*
X139812857Y-82610952D01*
X140231904Y-82496666D02*
X140231904Y-82877619D01*
X139431904Y-82877619D01*
X139431904Y-82496666D01*
X140231904Y-82153809D02*
X139431904Y-82153809D01*
X139431904Y-81963333D01*
X139470000Y-81849047D01*
X139546190Y-81772857D01*
X139622380Y-81734761D01*
X139774761Y-81696666D01*
X139889047Y-81696666D01*
X140041428Y-81734761D01*
X140117619Y-81772857D01*
X140193809Y-81849047D01*
X140231904Y-81963333D01*
X140231904Y-82153809D01*
G04 #@! TO.C,R2*
X123236666Y-67991904D02*
X122970000Y-67610952D01*
X122779523Y-67991904D02*
X122779523Y-67191904D01*
X123084285Y-67191904D01*
X123160476Y-67230000D01*
X123198571Y-67268095D01*
X123236666Y-67344285D01*
X123236666Y-67458571D01*
X123198571Y-67534761D01*
X123160476Y-67572857D01*
X123084285Y-67610952D01*
X122779523Y-67610952D01*
X123541428Y-67268095D02*
X123579523Y-67230000D01*
X123655714Y-67191904D01*
X123846190Y-67191904D01*
X123922380Y-67230000D01*
X123960476Y-67268095D01*
X123998571Y-67344285D01*
X123998571Y-67420476D01*
X123960476Y-67534761D01*
X123503333Y-67991904D01*
X123998571Y-67991904D01*
X122728333Y-69241904D02*
X122461666Y-68860952D01*
X122271190Y-69241904D02*
X122271190Y-68441904D01*
X122575952Y-68441904D01*
X122652142Y-68480000D01*
X122690238Y-68518095D01*
X122728333Y-68594285D01*
X122728333Y-68708571D01*
X122690238Y-68784761D01*
X122652142Y-68822857D01*
X122575952Y-68860952D01*
X122271190Y-68860952D01*
X123185476Y-69241904D02*
X123109285Y-69203809D01*
X123071190Y-69127619D01*
X123071190Y-68441904D01*
X123795000Y-69203809D02*
X123718809Y-69241904D01*
X123566428Y-69241904D01*
X123490238Y-69203809D01*
X123452142Y-69127619D01*
X123452142Y-68822857D01*
X123490238Y-68746666D01*
X123566428Y-68708571D01*
X123718809Y-68708571D01*
X123795000Y-68746666D01*
X123833095Y-68822857D01*
X123833095Y-68899047D01*
X123452142Y-68975238D01*
X124518809Y-69241904D02*
X124518809Y-68441904D01*
X124518809Y-69203809D02*
X124442619Y-69241904D01*
X124290238Y-69241904D01*
X124214047Y-69203809D01*
X124175952Y-69165714D01*
X124137857Y-69089523D01*
X124137857Y-68860952D01*
X124175952Y-68784761D01*
X124214047Y-68746666D01*
X124290238Y-68708571D01*
X124442619Y-68708571D01*
X124518809Y-68746666D01*
G04 #@! TO.C,R3*
X142486666Y-88626904D02*
X142220000Y-88245952D01*
X142029523Y-88626904D02*
X142029523Y-87826904D01*
X142334285Y-87826904D01*
X142410476Y-87865000D01*
X142448571Y-87903095D01*
X142486666Y-87979285D01*
X142486666Y-88093571D01*
X142448571Y-88169761D01*
X142410476Y-88207857D01*
X142334285Y-88245952D01*
X142029523Y-88245952D01*
X142753333Y-87826904D02*
X143248571Y-87826904D01*
X142981904Y-88131666D01*
X143096190Y-88131666D01*
X143172380Y-88169761D01*
X143210476Y-88207857D01*
X143248571Y-88284047D01*
X143248571Y-88474523D01*
X143210476Y-88550714D01*
X143172380Y-88588809D01*
X143096190Y-88626904D01*
X142867619Y-88626904D01*
X142791428Y-88588809D01*
X142753333Y-88550714D01*
X139603333Y-88626904D02*
X139336666Y-88245952D01*
X139146190Y-88626904D02*
X139146190Y-87826904D01*
X139450952Y-87826904D01*
X139527142Y-87865000D01*
X139565238Y-87903095D01*
X139603333Y-87979285D01*
X139603333Y-88093571D01*
X139565238Y-88169761D01*
X139527142Y-88207857D01*
X139450952Y-88245952D01*
X139146190Y-88245952D01*
X140060476Y-88626904D02*
X139984285Y-88588809D01*
X139946190Y-88512619D01*
X139946190Y-87826904D01*
X140670000Y-88588809D02*
X140593809Y-88626904D01*
X140441428Y-88626904D01*
X140365238Y-88588809D01*
X140327142Y-88512619D01*
X140327142Y-88207857D01*
X140365238Y-88131666D01*
X140441428Y-88093571D01*
X140593809Y-88093571D01*
X140670000Y-88131666D01*
X140708095Y-88207857D01*
X140708095Y-88284047D01*
X140327142Y-88360238D01*
X141393809Y-88626904D02*
X141393809Y-87826904D01*
X141393809Y-88588809D02*
X141317619Y-88626904D01*
X141165238Y-88626904D01*
X141089047Y-88588809D01*
X141050952Y-88550714D01*
X141012857Y-88474523D01*
X141012857Y-88245952D01*
X141050952Y-88169761D01*
X141089047Y-88131666D01*
X141165238Y-88093571D01*
X141317619Y-88093571D01*
X141393809Y-88131666D01*
G04 #@! TO.C,SW1*
X130803333Y-64203809D02*
X130917619Y-64241904D01*
X131108095Y-64241904D01*
X131184285Y-64203809D01*
X131222380Y-64165714D01*
X131260476Y-64089523D01*
X131260476Y-64013333D01*
X131222380Y-63937142D01*
X131184285Y-63899047D01*
X131108095Y-63860952D01*
X130955714Y-63822857D01*
X130879523Y-63784761D01*
X130841428Y-63746666D01*
X130803333Y-63670476D01*
X130803333Y-63594285D01*
X130841428Y-63518095D01*
X130879523Y-63480000D01*
X130955714Y-63441904D01*
X131146190Y-63441904D01*
X131260476Y-63480000D01*
X131527142Y-63441904D02*
X131717619Y-64241904D01*
X131870000Y-63670476D01*
X132022380Y-64241904D01*
X132212857Y-63441904D01*
X132936666Y-64241904D02*
X132479523Y-64241904D01*
X132708095Y-64241904D02*
X132708095Y-63441904D01*
X132631904Y-63556190D01*
X132555714Y-63632380D01*
X132479523Y-63670476D01*
X138283333Y-60861904D02*
X138283333Y-60328571D01*
X138283333Y-60480952D02*
X138321428Y-60404761D01*
X138359523Y-60366666D01*
X138435714Y-60328571D01*
X138511904Y-60328571D01*
X139083333Y-60823809D02*
X139007142Y-60861904D01*
X138854761Y-60861904D01*
X138778571Y-60823809D01*
X138740476Y-60747619D01*
X138740476Y-60442857D01*
X138778571Y-60366666D01*
X138854761Y-60328571D01*
X139007142Y-60328571D01*
X139083333Y-60366666D01*
X139121428Y-60442857D01*
X139121428Y-60519047D01*
X138740476Y-60595238D01*
X139426190Y-60823809D02*
X139502380Y-60861904D01*
X139654761Y-60861904D01*
X139730952Y-60823809D01*
X139769047Y-60747619D01*
X139769047Y-60709523D01*
X139730952Y-60633333D01*
X139654761Y-60595238D01*
X139540476Y-60595238D01*
X139464285Y-60557142D01*
X139426190Y-60480952D01*
X139426190Y-60442857D01*
X139464285Y-60366666D01*
X139540476Y-60328571D01*
X139654761Y-60328571D01*
X139730952Y-60366666D01*
X140416666Y-60823809D02*
X140340476Y-60861904D01*
X140188095Y-60861904D01*
X140111904Y-60823809D01*
X140073809Y-60747619D01*
X140073809Y-60442857D01*
X140111904Y-60366666D01*
X140188095Y-60328571D01*
X140340476Y-60328571D01*
X140416666Y-60366666D01*
X140454761Y-60442857D01*
X140454761Y-60519047D01*
X140073809Y-60595238D01*
X140683333Y-60328571D02*
X140988095Y-60328571D01*
X140797619Y-60061904D02*
X140797619Y-60747619D01*
X140835714Y-60823809D01*
X140911904Y-60861904D01*
X140988095Y-60861904D01*
X141826190Y-60823809D02*
X141902380Y-60861904D01*
X142054761Y-60861904D01*
X142130952Y-60823809D01*
X142169047Y-60747619D01*
X142169047Y-60709523D01*
X142130952Y-60633333D01*
X142054761Y-60595238D01*
X141940476Y-60595238D01*
X141864285Y-60557142D01*
X141826190Y-60480952D01*
X141826190Y-60442857D01*
X141864285Y-60366666D01*
X141940476Y-60328571D01*
X142054761Y-60328571D01*
X142130952Y-60366666D01*
X142435714Y-60328571D02*
X142588095Y-60861904D01*
X142740476Y-60480952D01*
X142892857Y-60861904D01*
X143045238Y-60328571D01*
X143350000Y-60861904D02*
X143350000Y-60328571D01*
X143350000Y-60061904D02*
X143311904Y-60100000D01*
X143350000Y-60138095D01*
X143388095Y-60100000D01*
X143350000Y-60061904D01*
X143350000Y-60138095D01*
X143616666Y-60328571D02*
X143921428Y-60328571D01*
X143730952Y-60061904D02*
X143730952Y-60747619D01*
X143769047Y-60823809D01*
X143845238Y-60861904D01*
X143921428Y-60861904D01*
X144530952Y-60823809D02*
X144454761Y-60861904D01*
X144302380Y-60861904D01*
X144226190Y-60823809D01*
X144188095Y-60785714D01*
X144150000Y-60709523D01*
X144150000Y-60480952D01*
X144188095Y-60404761D01*
X144226190Y-60366666D01*
X144302380Y-60328571D01*
X144454761Y-60328571D01*
X144530952Y-60366666D01*
X144873809Y-60861904D02*
X144873809Y-60061904D01*
X145216666Y-60861904D02*
X145216666Y-60442857D01*
X145178571Y-60366666D01*
X145102380Y-60328571D01*
X144988095Y-60328571D01*
X144911904Y-60366666D01*
X144873809Y-60404761D01*
G04 #@! TO.C,TP1*
X141943809Y-66909761D02*
X141981904Y-66833571D01*
X141981904Y-66681190D01*
X141943809Y-66605000D01*
X141867619Y-66566904D01*
X141829523Y-66566904D01*
X141753333Y-66605000D01*
X141715238Y-66681190D01*
X141715238Y-66795476D01*
X141677142Y-66871666D01*
X141600952Y-66909761D01*
X141562857Y-66909761D01*
X141486666Y-66871666D01*
X141448571Y-66795476D01*
X141448571Y-66681190D01*
X141486666Y-66605000D01*
X141448571Y-66300238D02*
X141981904Y-66147857D01*
X141600952Y-65995476D01*
X141981904Y-65843095D01*
X141448571Y-65690714D01*
X141981904Y-65043095D02*
X141181904Y-65043095D01*
X141943809Y-65043095D02*
X141981904Y-65119285D01*
X141981904Y-65271666D01*
X141943809Y-65347857D01*
X141905714Y-65385952D01*
X141829523Y-65424047D01*
X141600952Y-65424047D01*
X141524761Y-65385952D01*
X141486666Y-65347857D01*
X141448571Y-65271666D01*
X141448571Y-65119285D01*
X141486666Y-65043095D01*
X141981904Y-64662142D02*
X141448571Y-64662142D01*
X141181904Y-64662142D02*
X141220000Y-64700238D01*
X141258095Y-64662142D01*
X141220000Y-64624047D01*
X141181904Y-64662142D01*
X141258095Y-64662142D01*
X141981904Y-64166904D02*
X141943809Y-64243095D01*
X141905714Y-64281190D01*
X141829523Y-64319285D01*
X141600952Y-64319285D01*
X141524761Y-64281190D01*
X141486666Y-64243095D01*
X141448571Y-64166904D01*
X141448571Y-64052619D01*
X141486666Y-63976428D01*
X141524761Y-63938333D01*
X141600952Y-63900238D01*
X141829523Y-63900238D01*
X141905714Y-63938333D01*
X141943809Y-63976428D01*
X141981904Y-64052619D01*
X141981904Y-64166904D01*
G04 #@! TO.C,TP2*
X138403333Y-61953809D02*
X138479523Y-61991904D01*
X138631904Y-61991904D01*
X138708095Y-61953809D01*
X138746190Y-61877619D01*
X138746190Y-61839523D01*
X138708095Y-61763333D01*
X138631904Y-61725238D01*
X138517619Y-61725238D01*
X138441428Y-61687142D01*
X138403333Y-61610952D01*
X138403333Y-61572857D01*
X138441428Y-61496666D01*
X138517619Y-61458571D01*
X138631904Y-61458571D01*
X138708095Y-61496666D01*
X139012857Y-61458571D02*
X139165238Y-61991904D01*
X139317619Y-61610952D01*
X139470000Y-61991904D01*
X139622380Y-61458571D01*
X140270000Y-61953809D02*
X140193809Y-61991904D01*
X140041428Y-61991904D01*
X139965238Y-61953809D01*
X139927142Y-61915714D01*
X139889047Y-61839523D01*
X139889047Y-61610952D01*
X139927142Y-61534761D01*
X139965238Y-61496666D01*
X140041428Y-61458571D01*
X140193809Y-61458571D01*
X140270000Y-61496666D01*
X140727142Y-61991904D02*
X140650952Y-61953809D01*
X140612857Y-61877619D01*
X140612857Y-61191904D01*
X141031904Y-61991904D02*
X141031904Y-61191904D01*
X141108095Y-61687142D02*
X141336666Y-61991904D01*
X141336666Y-61458571D02*
X141031904Y-61763333D01*
G04 #@! TO.C,TP3*
X141433571Y-84994523D02*
X141966904Y-84804047D01*
X141433571Y-84613571D01*
X141966904Y-83965952D02*
X141166904Y-83965952D01*
X141928809Y-83965952D02*
X141966904Y-84042142D01*
X141966904Y-84194523D01*
X141928809Y-84270714D01*
X141890714Y-84308809D01*
X141814523Y-84346904D01*
X141585952Y-84346904D01*
X141509761Y-84308809D01*
X141471666Y-84270714D01*
X141433571Y-84194523D01*
X141433571Y-84042142D01*
X141471666Y-83965952D01*
X141966904Y-83242142D02*
X141166904Y-83242142D01*
X141928809Y-83242142D02*
X141966904Y-83318333D01*
X141966904Y-83470714D01*
X141928809Y-83546904D01*
X141890714Y-83585000D01*
X141814523Y-83623095D01*
X141585952Y-83623095D01*
X141509761Y-83585000D01*
X141471666Y-83546904D01*
X141433571Y-83470714D01*
X141433571Y-83318333D01*
X141471666Y-83242142D01*
X141928809Y-82556428D02*
X141966904Y-82632619D01*
X141966904Y-82785000D01*
X141928809Y-82861190D01*
X141852619Y-82899285D01*
X141547857Y-82899285D01*
X141471666Y-82861190D01*
X141433571Y-82785000D01*
X141433571Y-82632619D01*
X141471666Y-82556428D01*
X141547857Y-82518333D01*
X141624047Y-82518333D01*
X141700238Y-82899285D01*
X141966904Y-82251666D02*
X141433571Y-81832619D01*
X141433571Y-82251666D02*
X141966904Y-81832619D01*
X141433571Y-81642142D02*
X141433571Y-81337380D01*
X141166904Y-81527857D02*
X141852619Y-81527857D01*
X141928809Y-81489761D01*
X141966904Y-81413571D01*
X141966904Y-81337380D01*
G04 #@! TO.C,TP4*
X141198571Y-69182380D02*
X141846190Y-69182380D01*
X141922380Y-69220476D01*
X141960476Y-69258571D01*
X141998571Y-69334761D01*
X141998571Y-69449047D01*
X141960476Y-69525238D01*
X141693809Y-69182380D02*
X141731904Y-69258571D01*
X141731904Y-69410952D01*
X141693809Y-69487142D01*
X141655714Y-69525238D01*
X141579523Y-69563333D01*
X141350952Y-69563333D01*
X141274761Y-69525238D01*
X141236666Y-69487142D01*
X141198571Y-69410952D01*
X141198571Y-69258571D01*
X141236666Y-69182380D01*
X141198571Y-68801428D02*
X141731904Y-68801428D01*
X141274761Y-68801428D02*
X141236666Y-68763333D01*
X141198571Y-68687142D01*
X141198571Y-68572857D01*
X141236666Y-68496666D01*
X141312857Y-68458571D01*
X141731904Y-68458571D01*
X141731904Y-67734761D02*
X140931904Y-67734761D01*
X141693809Y-67734761D02*
X141731904Y-67810952D01*
X141731904Y-67963333D01*
X141693809Y-68039523D01*
X141655714Y-68077619D01*
X141579523Y-68115714D01*
X141350952Y-68115714D01*
X141274761Y-68077619D01*
X141236666Y-68039523D01*
X141198571Y-67963333D01*
X141198571Y-67810952D01*
X141236666Y-67734761D01*
G04 #@! TO.C,U1*
X131010476Y-74941904D02*
X131010476Y-75589523D01*
X131048571Y-75665714D01*
X131086666Y-75703809D01*
X131162857Y-75741904D01*
X131315238Y-75741904D01*
X131391428Y-75703809D01*
X131429523Y-75665714D01*
X131467619Y-75589523D01*
X131467619Y-74941904D01*
X132267619Y-75741904D02*
X131810476Y-75741904D01*
X132039047Y-75741904D02*
X132039047Y-74941904D01*
X131962857Y-75056190D01*
X131886666Y-75132380D01*
X131810476Y-75170476D01*
X127146190Y-70203809D02*
X127260476Y-70241904D01*
X127450952Y-70241904D01*
X127527142Y-70203809D01*
X127565238Y-70165714D01*
X127603333Y-70089523D01*
X127603333Y-70013333D01*
X127565238Y-69937142D01*
X127527142Y-69899047D01*
X127450952Y-69860952D01*
X127298571Y-69822857D01*
X127222380Y-69784761D01*
X127184285Y-69746666D01*
X127146190Y-69670476D01*
X127146190Y-69594285D01*
X127184285Y-69518095D01*
X127222380Y-69480000D01*
X127298571Y-69441904D01*
X127489047Y-69441904D01*
X127603333Y-69480000D01*
X127831904Y-69441904D02*
X128289047Y-69441904D01*
X128060476Y-70241904D02*
X128060476Y-69441904D01*
X128555714Y-70241904D02*
X128555714Y-69441904D01*
X128822380Y-70013333D01*
X129089047Y-69441904D01*
X129089047Y-70241904D01*
X129393809Y-69441904D02*
X129889047Y-69441904D01*
X129622380Y-69746666D01*
X129736666Y-69746666D01*
X129812857Y-69784761D01*
X129850952Y-69822857D01*
X129889047Y-69899047D01*
X129889047Y-70089523D01*
X129850952Y-70165714D01*
X129812857Y-70203809D01*
X129736666Y-70241904D01*
X129508095Y-70241904D01*
X129431904Y-70203809D01*
X129393809Y-70165714D01*
X130193809Y-69518095D02*
X130231904Y-69480000D01*
X130308095Y-69441904D01*
X130498571Y-69441904D01*
X130574761Y-69480000D01*
X130612857Y-69518095D01*
X130650952Y-69594285D01*
X130650952Y-69670476D01*
X130612857Y-69784761D01*
X130155714Y-70241904D01*
X130650952Y-70241904D01*
X131374761Y-70241904D02*
X130993809Y-70241904D01*
X130993809Y-69441904D01*
X131793809Y-69441904D02*
X131870000Y-69441904D01*
X131946190Y-69480000D01*
X131984285Y-69518095D01*
X132022380Y-69594285D01*
X132060476Y-69746666D01*
X132060476Y-69937142D01*
X132022380Y-70089523D01*
X131984285Y-70165714D01*
X131946190Y-70203809D01*
X131870000Y-70241904D01*
X131793809Y-70241904D01*
X131717619Y-70203809D01*
X131679523Y-70165714D01*
X131641428Y-70089523D01*
X131603333Y-69937142D01*
X131603333Y-69746666D01*
X131641428Y-69594285D01*
X131679523Y-69518095D01*
X131717619Y-69480000D01*
X131793809Y-69441904D01*
X132746190Y-69708571D02*
X132746190Y-70241904D01*
X132555714Y-69403809D02*
X132365238Y-69975238D01*
X132860476Y-69975238D01*
X133584285Y-70241904D02*
X133127142Y-70241904D01*
X133355714Y-70241904D02*
X133355714Y-69441904D01*
X133279523Y-69556190D01*
X133203333Y-69632380D01*
X133127142Y-69670476D01*
X134193809Y-69822857D02*
X133927142Y-69822857D01*
X133927142Y-70241904D02*
X133927142Y-69441904D01*
X134308095Y-69441904D01*
X134955714Y-69441904D02*
X134803333Y-69441904D01*
X134727142Y-69480000D01*
X134689047Y-69518095D01*
X134612857Y-69632380D01*
X134574761Y-69784761D01*
X134574761Y-70089523D01*
X134612857Y-70165714D01*
X134650952Y-70203809D01*
X134727142Y-70241904D01*
X134879523Y-70241904D01*
X134955714Y-70203809D01*
X134993809Y-70165714D01*
X135031904Y-70089523D01*
X135031904Y-69899047D01*
X134993809Y-69822857D01*
X134955714Y-69784761D01*
X134879523Y-69746666D01*
X134727142Y-69746666D01*
X134650952Y-69784761D01*
X134612857Y-69822857D01*
X134574761Y-69899047D01*
X135374761Y-70241904D02*
X135374761Y-69441904D01*
X135679523Y-69441904D01*
X135755714Y-69480000D01*
X135793809Y-69518095D01*
X135831904Y-69594285D01*
X135831904Y-69708571D01*
X135793809Y-69784761D01*
X135755714Y-69822857D01*
X135679523Y-69860952D01*
X135374761Y-69860952D01*
X136098571Y-69441904D02*
X136631904Y-69441904D01*
X136289047Y-70241904D01*
G04 #@! TO.C,SW2*
X129303333Y-85953809D02*
X129417619Y-85991904D01*
X129608095Y-85991904D01*
X129684285Y-85953809D01*
X129722380Y-85915714D01*
X129760476Y-85839523D01*
X129760476Y-85763333D01*
X129722380Y-85687142D01*
X129684285Y-85649047D01*
X129608095Y-85610952D01*
X129455714Y-85572857D01*
X129379523Y-85534761D01*
X129341428Y-85496666D01*
X129303333Y-85420476D01*
X129303333Y-85344285D01*
X129341428Y-85268095D01*
X129379523Y-85230000D01*
X129455714Y-85191904D01*
X129646190Y-85191904D01*
X129760476Y-85230000D01*
X130027142Y-85191904D02*
X130217619Y-85991904D01*
X130370000Y-85420476D01*
X130522380Y-85991904D01*
X130712857Y-85191904D01*
X130979523Y-85268095D02*
X131017619Y-85230000D01*
X131093809Y-85191904D01*
X131284285Y-85191904D01*
X131360476Y-85230000D01*
X131398571Y-85268095D01*
X131436666Y-85344285D01*
X131436666Y-85420476D01*
X131398571Y-85534761D01*
X130941428Y-85991904D01*
X131436666Y-85991904D01*
X136715714Y-90493809D02*
X136791904Y-90531904D01*
X136944285Y-90531904D01*
X137020476Y-90493809D01*
X137058571Y-90417619D01*
X137058571Y-90379523D01*
X137020476Y-90303333D01*
X136944285Y-90265238D01*
X136830000Y-90265238D01*
X136753809Y-90227142D01*
X136715714Y-90150952D01*
X136715714Y-90112857D01*
X136753809Y-90036666D01*
X136830000Y-89998571D01*
X136944285Y-89998571D01*
X137020476Y-90036666D01*
X137325238Y-89998571D02*
X137477619Y-90531904D01*
X137630000Y-90150952D01*
X137782380Y-90531904D01*
X137934761Y-89998571D01*
X138239523Y-90531904D02*
X138239523Y-89998571D01*
X138239523Y-89731904D02*
X138201428Y-89770000D01*
X138239523Y-89808095D01*
X138277619Y-89770000D01*
X138239523Y-89731904D01*
X138239523Y-89808095D01*
X138506190Y-89998571D02*
X138810952Y-89998571D01*
X138620476Y-89731904D02*
X138620476Y-90417619D01*
X138658571Y-90493809D01*
X138734761Y-90531904D01*
X138810952Y-90531904D01*
X139420476Y-90493809D02*
X139344285Y-90531904D01*
X139191904Y-90531904D01*
X139115714Y-90493809D01*
X139077619Y-90455714D01*
X139039523Y-90379523D01*
X139039523Y-90150952D01*
X139077619Y-90074761D01*
X139115714Y-90036666D01*
X139191904Y-89998571D01*
X139344285Y-89998571D01*
X139420476Y-90036666D01*
X139763333Y-90531904D02*
X139763333Y-89731904D01*
X140106190Y-90531904D02*
X140106190Y-90112857D01*
X140068095Y-90036666D01*
X139991904Y-89998571D01*
X139877619Y-89998571D01*
X139801428Y-90036666D01*
X139763333Y-90074761D01*
G04 #@! TO.C,C8*
X122421666Y-85375714D02*
X122383571Y-85413809D01*
X122269285Y-85451904D01*
X122193095Y-85451904D01*
X122078809Y-85413809D01*
X122002619Y-85337619D01*
X121964523Y-85261428D01*
X121926428Y-85109047D01*
X121926428Y-84994761D01*
X121964523Y-84842380D01*
X122002619Y-84766190D01*
X122078809Y-84690000D01*
X122193095Y-84651904D01*
X122269285Y-84651904D01*
X122383571Y-84690000D01*
X122421666Y-84728095D01*
X122878809Y-84994761D02*
X122802619Y-84956666D01*
X122764523Y-84918571D01*
X122726428Y-84842380D01*
X122726428Y-84804285D01*
X122764523Y-84728095D01*
X122802619Y-84690000D01*
X122878809Y-84651904D01*
X123031190Y-84651904D01*
X123107380Y-84690000D01*
X123145476Y-84728095D01*
X123183571Y-84804285D01*
X123183571Y-84842380D01*
X123145476Y-84918571D01*
X123107380Y-84956666D01*
X123031190Y-84994761D01*
X122878809Y-84994761D01*
X122802619Y-85032857D01*
X122764523Y-85070952D01*
X122726428Y-85147142D01*
X122726428Y-85299523D01*
X122764523Y-85375714D01*
X122802619Y-85413809D01*
X122878809Y-85451904D01*
X123031190Y-85451904D01*
X123107380Y-85413809D01*
X123145476Y-85375714D01*
X123183571Y-85299523D01*
X123183571Y-85147142D01*
X123145476Y-85070952D01*
X123107380Y-85032857D01*
X123031190Y-84994761D01*
X120935904Y-90531904D02*
X120478761Y-90531904D01*
X120707333Y-90531904D02*
X120707333Y-89731904D01*
X120631142Y-89846190D01*
X120554952Y-89922380D01*
X120478761Y-89960476D01*
X121431142Y-89731904D02*
X121507333Y-89731904D01*
X121583523Y-89770000D01*
X121621619Y-89808095D01*
X121659714Y-89884285D01*
X121697809Y-90036666D01*
X121697809Y-90227142D01*
X121659714Y-90379523D01*
X121621619Y-90455714D01*
X121583523Y-90493809D01*
X121507333Y-90531904D01*
X121431142Y-90531904D01*
X121354952Y-90493809D01*
X121316857Y-90455714D01*
X121278761Y-90379523D01*
X121240666Y-90227142D01*
X121240666Y-90036666D01*
X121278761Y-89884285D01*
X121316857Y-89808095D01*
X121354952Y-89770000D01*
X121431142Y-89731904D01*
X122193047Y-89731904D02*
X122269238Y-89731904D01*
X122345428Y-89770000D01*
X122383523Y-89808095D01*
X122421619Y-89884285D01*
X122459714Y-90036666D01*
X122459714Y-90227142D01*
X122421619Y-90379523D01*
X122383523Y-90455714D01*
X122345428Y-90493809D01*
X122269238Y-90531904D01*
X122193047Y-90531904D01*
X122116857Y-90493809D01*
X122078761Y-90455714D01*
X122040666Y-90379523D01*
X122002571Y-90227142D01*
X122002571Y-90036666D01*
X122040666Y-89884285D01*
X122078761Y-89808095D01*
X122116857Y-89770000D01*
X122193047Y-89731904D01*
X122802571Y-89998571D02*
X122802571Y-90531904D01*
X122802571Y-90074761D02*
X122840666Y-90036666D01*
X122916857Y-89998571D01*
X123031142Y-89998571D01*
X123107333Y-90036666D01*
X123145428Y-90112857D01*
X123145428Y-90531904D01*
X123793047Y-90112857D02*
X123526380Y-90112857D01*
X123526380Y-90531904D02*
X123526380Y-89731904D01*
X123907333Y-89731904D01*
G04 #@! TD*
M02*
