G04 #@! TF.GenerationSoftware,KiCad,Pcbnew,(5.0.2)-1*
G04 #@! TF.CreationDate,2019-07-18T11:35:20+03:00*
G04 #@! TF.ProjectId,Breakout Board STM32L041x6 - TSSOP20,42726561-6b6f-4757-9420-426f61726420,rev?*
G04 #@! TF.SameCoordinates,Original*
G04 #@! TF.FileFunction,Copper,L2,Bot*
G04 #@! TF.FilePolarity,Positive*
%FSLAX46Y46*%
G04 Gerber Fmt 4.6, Leading zero omitted, Abs format (unit mm)*
G04 Created by KiCad (PCBNEW (5.0.2)-1) date 18-Jul-19 11:35:20*
%MOMM*%
%LPD*%
G01*
G04 APERTURE LIST*
G04 #@! TA.AperFunction,SMDPad,CuDef*
%ADD10R,2.500000X2.500000*%
G04 #@! TD*
G04 #@! TA.AperFunction,SMDPad,CuDef*
%ADD11R,2.500000X1.000000*%
G04 #@! TD*
G04 #@! TA.AperFunction,Conductor*
%ADD12C,0.100000*%
G04 #@! TD*
G04 #@! TA.AperFunction,SMDPad,CuDef*
%ADD13C,1.150000*%
G04 #@! TD*
G04 #@! TA.AperFunction,SMDPad,CuDef*
%ADD14R,1.200000X0.900000*%
G04 #@! TD*
G04 #@! TA.AperFunction,ComponentPad*
%ADD15C,2.500000*%
G04 #@! TD*
G04 #@! TA.AperFunction,ComponentPad*
%ADD16C,1.700000*%
G04 #@! TD*
G04 #@! TA.AperFunction,ComponentPad*
%ADD17R,1.700000X1.700000*%
G04 #@! TD*
G04 #@! TA.AperFunction,ComponentPad*
%ADD18O,1.700000X1.700000*%
G04 #@! TD*
G04 #@! TA.AperFunction,ViaPad*
%ADD19C,0.800000*%
G04 #@! TD*
G04 #@! TA.AperFunction,Conductor*
%ADD20C,0.250000*%
G04 #@! TD*
G04 #@! TA.AperFunction,Conductor*
%ADD21C,0.254000*%
G04 #@! TD*
G04 APERTURE END LIST*
D10*
G04 #@! TO.P,Y1,2*
G04 #@! TO.N,GND*
X139870000Y-73130000D03*
D11*
G04 #@! TO.P,Y1,3*
G04 #@! TO.N,Net-(C7-Pad1)*
X132120000Y-74380000D03*
G04 #@! TO.P,Y1,1*
G04 #@! TO.N,/osc32in*
X132120000Y-71880000D03*
G04 #@! TD*
D12*
G04 #@! TO.N,/nrst*
G04 #@! TO.C,C1*
G36*
X122719505Y-69931204D02*
X122743773Y-69934804D01*
X122767572Y-69940765D01*
X122790671Y-69949030D01*
X122812850Y-69959520D01*
X122833893Y-69972132D01*
X122853599Y-69986747D01*
X122871777Y-70003223D01*
X122888253Y-70021401D01*
X122902868Y-70041107D01*
X122915480Y-70062150D01*
X122925970Y-70084329D01*
X122934235Y-70107428D01*
X122940196Y-70131227D01*
X122943796Y-70155495D01*
X122945000Y-70179999D01*
X122945000Y-71080001D01*
X122943796Y-71104505D01*
X122940196Y-71128773D01*
X122934235Y-71152572D01*
X122925970Y-71175671D01*
X122915480Y-71197850D01*
X122902868Y-71218893D01*
X122888253Y-71238599D01*
X122871777Y-71256777D01*
X122853599Y-71273253D01*
X122833893Y-71287868D01*
X122812850Y-71300480D01*
X122790671Y-71310970D01*
X122767572Y-71319235D01*
X122743773Y-71325196D01*
X122719505Y-71328796D01*
X122695001Y-71330000D01*
X122044999Y-71330000D01*
X122020495Y-71328796D01*
X121996227Y-71325196D01*
X121972428Y-71319235D01*
X121949329Y-71310970D01*
X121927150Y-71300480D01*
X121906107Y-71287868D01*
X121886401Y-71273253D01*
X121868223Y-71256777D01*
X121851747Y-71238599D01*
X121837132Y-71218893D01*
X121824520Y-71197850D01*
X121814030Y-71175671D01*
X121805765Y-71152572D01*
X121799804Y-71128773D01*
X121796204Y-71104505D01*
X121795000Y-71080001D01*
X121795000Y-70179999D01*
X121796204Y-70155495D01*
X121799804Y-70131227D01*
X121805765Y-70107428D01*
X121814030Y-70084329D01*
X121824520Y-70062150D01*
X121837132Y-70041107D01*
X121851747Y-70021401D01*
X121868223Y-70003223D01*
X121886401Y-69986747D01*
X121906107Y-69972132D01*
X121927150Y-69959520D01*
X121949329Y-69949030D01*
X121972428Y-69940765D01*
X121996227Y-69934804D01*
X122020495Y-69931204D01*
X122044999Y-69930000D01*
X122695001Y-69930000D01*
X122719505Y-69931204D01*
X122719505Y-69931204D01*
G37*
D13*
G04 #@! TD*
G04 #@! TO.P,C1,1*
G04 #@! TO.N,/nrst*
X122370000Y-70630000D03*
D12*
G04 #@! TO.N,GND*
G04 #@! TO.C,C1*
G36*
X124769505Y-69931204D02*
X124793773Y-69934804D01*
X124817572Y-69940765D01*
X124840671Y-69949030D01*
X124862850Y-69959520D01*
X124883893Y-69972132D01*
X124903599Y-69986747D01*
X124921777Y-70003223D01*
X124938253Y-70021401D01*
X124952868Y-70041107D01*
X124965480Y-70062150D01*
X124975970Y-70084329D01*
X124984235Y-70107428D01*
X124990196Y-70131227D01*
X124993796Y-70155495D01*
X124995000Y-70179999D01*
X124995000Y-71080001D01*
X124993796Y-71104505D01*
X124990196Y-71128773D01*
X124984235Y-71152572D01*
X124975970Y-71175671D01*
X124965480Y-71197850D01*
X124952868Y-71218893D01*
X124938253Y-71238599D01*
X124921777Y-71256777D01*
X124903599Y-71273253D01*
X124883893Y-71287868D01*
X124862850Y-71300480D01*
X124840671Y-71310970D01*
X124817572Y-71319235D01*
X124793773Y-71325196D01*
X124769505Y-71328796D01*
X124745001Y-71330000D01*
X124094999Y-71330000D01*
X124070495Y-71328796D01*
X124046227Y-71325196D01*
X124022428Y-71319235D01*
X123999329Y-71310970D01*
X123977150Y-71300480D01*
X123956107Y-71287868D01*
X123936401Y-71273253D01*
X123918223Y-71256777D01*
X123901747Y-71238599D01*
X123887132Y-71218893D01*
X123874520Y-71197850D01*
X123864030Y-71175671D01*
X123855765Y-71152572D01*
X123849804Y-71128773D01*
X123846204Y-71104505D01*
X123845000Y-71080001D01*
X123845000Y-70179999D01*
X123846204Y-70155495D01*
X123849804Y-70131227D01*
X123855765Y-70107428D01*
X123864030Y-70084329D01*
X123874520Y-70062150D01*
X123887132Y-70041107D01*
X123901747Y-70021401D01*
X123918223Y-70003223D01*
X123936401Y-69986747D01*
X123956107Y-69972132D01*
X123977150Y-69959520D01*
X123999329Y-69949030D01*
X124022428Y-69940765D01*
X124046227Y-69934804D01*
X124070495Y-69931204D01*
X124094999Y-69930000D01*
X124745001Y-69930000D01*
X124769505Y-69931204D01*
X124769505Y-69931204D01*
G37*
D13*
G04 #@! TD*
G04 #@! TO.P,C1,2*
G04 #@! TO.N,GND*
X124420000Y-70630000D03*
D12*
G04 #@! TO.N,/osc32in*
G04 #@! TO.C,C6*
G36*
X129094505Y-71556204D02*
X129118773Y-71559804D01*
X129142572Y-71565765D01*
X129165671Y-71574030D01*
X129187850Y-71584520D01*
X129208893Y-71597132D01*
X129228599Y-71611747D01*
X129246777Y-71628223D01*
X129263253Y-71646401D01*
X129277868Y-71666107D01*
X129290480Y-71687150D01*
X129300970Y-71709329D01*
X129309235Y-71732428D01*
X129315196Y-71756227D01*
X129318796Y-71780495D01*
X129320000Y-71804999D01*
X129320000Y-72455001D01*
X129318796Y-72479505D01*
X129315196Y-72503773D01*
X129309235Y-72527572D01*
X129300970Y-72550671D01*
X129290480Y-72572850D01*
X129277868Y-72593893D01*
X129263253Y-72613599D01*
X129246777Y-72631777D01*
X129228599Y-72648253D01*
X129208893Y-72662868D01*
X129187850Y-72675480D01*
X129165671Y-72685970D01*
X129142572Y-72694235D01*
X129118773Y-72700196D01*
X129094505Y-72703796D01*
X129070001Y-72705000D01*
X128169999Y-72705000D01*
X128145495Y-72703796D01*
X128121227Y-72700196D01*
X128097428Y-72694235D01*
X128074329Y-72685970D01*
X128052150Y-72675480D01*
X128031107Y-72662868D01*
X128011401Y-72648253D01*
X127993223Y-72631777D01*
X127976747Y-72613599D01*
X127962132Y-72593893D01*
X127949520Y-72572850D01*
X127939030Y-72550671D01*
X127930765Y-72527572D01*
X127924804Y-72503773D01*
X127921204Y-72479505D01*
X127920000Y-72455001D01*
X127920000Y-71804999D01*
X127921204Y-71780495D01*
X127924804Y-71756227D01*
X127930765Y-71732428D01*
X127939030Y-71709329D01*
X127949520Y-71687150D01*
X127962132Y-71666107D01*
X127976747Y-71646401D01*
X127993223Y-71628223D01*
X128011401Y-71611747D01*
X128031107Y-71597132D01*
X128052150Y-71584520D01*
X128074329Y-71574030D01*
X128097428Y-71565765D01*
X128121227Y-71559804D01*
X128145495Y-71556204D01*
X128169999Y-71555000D01*
X129070001Y-71555000D01*
X129094505Y-71556204D01*
X129094505Y-71556204D01*
G37*
D13*
G04 #@! TD*
G04 #@! TO.P,C6,1*
G04 #@! TO.N,/osc32in*
X128620000Y-72130000D03*
D12*
G04 #@! TO.N,GND*
G04 #@! TO.C,C6*
G36*
X129094505Y-69506204D02*
X129118773Y-69509804D01*
X129142572Y-69515765D01*
X129165671Y-69524030D01*
X129187850Y-69534520D01*
X129208893Y-69547132D01*
X129228599Y-69561747D01*
X129246777Y-69578223D01*
X129263253Y-69596401D01*
X129277868Y-69616107D01*
X129290480Y-69637150D01*
X129300970Y-69659329D01*
X129309235Y-69682428D01*
X129315196Y-69706227D01*
X129318796Y-69730495D01*
X129320000Y-69754999D01*
X129320000Y-70405001D01*
X129318796Y-70429505D01*
X129315196Y-70453773D01*
X129309235Y-70477572D01*
X129300970Y-70500671D01*
X129290480Y-70522850D01*
X129277868Y-70543893D01*
X129263253Y-70563599D01*
X129246777Y-70581777D01*
X129228599Y-70598253D01*
X129208893Y-70612868D01*
X129187850Y-70625480D01*
X129165671Y-70635970D01*
X129142572Y-70644235D01*
X129118773Y-70650196D01*
X129094505Y-70653796D01*
X129070001Y-70655000D01*
X128169999Y-70655000D01*
X128145495Y-70653796D01*
X128121227Y-70650196D01*
X128097428Y-70644235D01*
X128074329Y-70635970D01*
X128052150Y-70625480D01*
X128031107Y-70612868D01*
X128011401Y-70598253D01*
X127993223Y-70581777D01*
X127976747Y-70563599D01*
X127962132Y-70543893D01*
X127949520Y-70522850D01*
X127939030Y-70500671D01*
X127930765Y-70477572D01*
X127924804Y-70453773D01*
X127921204Y-70429505D01*
X127920000Y-70405001D01*
X127920000Y-69754999D01*
X127921204Y-69730495D01*
X127924804Y-69706227D01*
X127930765Y-69682428D01*
X127939030Y-69659329D01*
X127949520Y-69637150D01*
X127962132Y-69616107D01*
X127976747Y-69596401D01*
X127993223Y-69578223D01*
X128011401Y-69561747D01*
X128031107Y-69547132D01*
X128052150Y-69534520D01*
X128074329Y-69524030D01*
X128097428Y-69515765D01*
X128121227Y-69509804D01*
X128145495Y-69506204D01*
X128169999Y-69505000D01*
X129070001Y-69505000D01*
X129094505Y-69506204D01*
X129094505Y-69506204D01*
G37*
D13*
G04 #@! TD*
G04 #@! TO.P,C6,2*
G04 #@! TO.N,GND*
X128620000Y-70080000D03*
D12*
G04 #@! TO.N,GND*
G04 #@! TO.C,C7*
G36*
X126844505Y-75856204D02*
X126868773Y-75859804D01*
X126892572Y-75865765D01*
X126915671Y-75874030D01*
X126937850Y-75884520D01*
X126958893Y-75897132D01*
X126978599Y-75911747D01*
X126996777Y-75928223D01*
X127013253Y-75946401D01*
X127027868Y-75966107D01*
X127040480Y-75987150D01*
X127050970Y-76009329D01*
X127059235Y-76032428D01*
X127065196Y-76056227D01*
X127068796Y-76080495D01*
X127070000Y-76104999D01*
X127070000Y-76755001D01*
X127068796Y-76779505D01*
X127065196Y-76803773D01*
X127059235Y-76827572D01*
X127050970Y-76850671D01*
X127040480Y-76872850D01*
X127027868Y-76893893D01*
X127013253Y-76913599D01*
X126996777Y-76931777D01*
X126978599Y-76948253D01*
X126958893Y-76962868D01*
X126937850Y-76975480D01*
X126915671Y-76985970D01*
X126892572Y-76994235D01*
X126868773Y-77000196D01*
X126844505Y-77003796D01*
X126820001Y-77005000D01*
X125919999Y-77005000D01*
X125895495Y-77003796D01*
X125871227Y-77000196D01*
X125847428Y-76994235D01*
X125824329Y-76985970D01*
X125802150Y-76975480D01*
X125781107Y-76962868D01*
X125761401Y-76948253D01*
X125743223Y-76931777D01*
X125726747Y-76913599D01*
X125712132Y-76893893D01*
X125699520Y-76872850D01*
X125689030Y-76850671D01*
X125680765Y-76827572D01*
X125674804Y-76803773D01*
X125671204Y-76779505D01*
X125670000Y-76755001D01*
X125670000Y-76104999D01*
X125671204Y-76080495D01*
X125674804Y-76056227D01*
X125680765Y-76032428D01*
X125689030Y-76009329D01*
X125699520Y-75987150D01*
X125712132Y-75966107D01*
X125726747Y-75946401D01*
X125743223Y-75928223D01*
X125761401Y-75911747D01*
X125781107Y-75897132D01*
X125802150Y-75884520D01*
X125824329Y-75874030D01*
X125847428Y-75865765D01*
X125871227Y-75859804D01*
X125895495Y-75856204D01*
X125919999Y-75855000D01*
X126820001Y-75855000D01*
X126844505Y-75856204D01*
X126844505Y-75856204D01*
G37*
D13*
G04 #@! TD*
G04 #@! TO.P,C7,2*
G04 #@! TO.N,GND*
X126370000Y-76430000D03*
D12*
G04 #@! TO.N,Net-(C7-Pad1)*
G04 #@! TO.C,C7*
G36*
X126844505Y-73806204D02*
X126868773Y-73809804D01*
X126892572Y-73815765D01*
X126915671Y-73824030D01*
X126937850Y-73834520D01*
X126958893Y-73847132D01*
X126978599Y-73861747D01*
X126996777Y-73878223D01*
X127013253Y-73896401D01*
X127027868Y-73916107D01*
X127040480Y-73937150D01*
X127050970Y-73959329D01*
X127059235Y-73982428D01*
X127065196Y-74006227D01*
X127068796Y-74030495D01*
X127070000Y-74054999D01*
X127070000Y-74705001D01*
X127068796Y-74729505D01*
X127065196Y-74753773D01*
X127059235Y-74777572D01*
X127050970Y-74800671D01*
X127040480Y-74822850D01*
X127027868Y-74843893D01*
X127013253Y-74863599D01*
X126996777Y-74881777D01*
X126978599Y-74898253D01*
X126958893Y-74912868D01*
X126937850Y-74925480D01*
X126915671Y-74935970D01*
X126892572Y-74944235D01*
X126868773Y-74950196D01*
X126844505Y-74953796D01*
X126820001Y-74955000D01*
X125919999Y-74955000D01*
X125895495Y-74953796D01*
X125871227Y-74950196D01*
X125847428Y-74944235D01*
X125824329Y-74935970D01*
X125802150Y-74925480D01*
X125781107Y-74912868D01*
X125761401Y-74898253D01*
X125743223Y-74881777D01*
X125726747Y-74863599D01*
X125712132Y-74843893D01*
X125699520Y-74822850D01*
X125689030Y-74800671D01*
X125680765Y-74777572D01*
X125674804Y-74753773D01*
X125671204Y-74729505D01*
X125670000Y-74705001D01*
X125670000Y-74054999D01*
X125671204Y-74030495D01*
X125674804Y-74006227D01*
X125680765Y-73982428D01*
X125689030Y-73959329D01*
X125699520Y-73937150D01*
X125712132Y-73916107D01*
X125726747Y-73896401D01*
X125743223Y-73878223D01*
X125761401Y-73861747D01*
X125781107Y-73847132D01*
X125802150Y-73834520D01*
X125824329Y-73824030D01*
X125847428Y-73815765D01*
X125871227Y-73809804D01*
X125895495Y-73806204D01*
X125919999Y-73805000D01*
X126820001Y-73805000D01*
X126844505Y-73806204D01*
X126844505Y-73806204D01*
G37*
D13*
G04 #@! TD*
G04 #@! TO.P,C7,1*
G04 #@! TO.N,Net-(C7-Pad1)*
X126370000Y-74380000D03*
D14*
G04 #@! TO.P,D3,1*
G04 #@! TO.N,/vdd*
X140620000Y-77080000D03*
G04 #@! TO.P,D3,2*
G04 #@! TO.N,/vddext*
X140620000Y-80380000D03*
G04 #@! TD*
D12*
G04 #@! TO.N,GND*
G04 #@! TO.C,R1*
G36*
X124769505Y-62681204D02*
X124793773Y-62684804D01*
X124817572Y-62690765D01*
X124840671Y-62699030D01*
X124862850Y-62709520D01*
X124883893Y-62722132D01*
X124903599Y-62736747D01*
X124921777Y-62753223D01*
X124938253Y-62771401D01*
X124952868Y-62791107D01*
X124965480Y-62812150D01*
X124975970Y-62834329D01*
X124984235Y-62857428D01*
X124990196Y-62881227D01*
X124993796Y-62905495D01*
X124995000Y-62929999D01*
X124995000Y-63830001D01*
X124993796Y-63854505D01*
X124990196Y-63878773D01*
X124984235Y-63902572D01*
X124975970Y-63925671D01*
X124965480Y-63947850D01*
X124952868Y-63968893D01*
X124938253Y-63988599D01*
X124921777Y-64006777D01*
X124903599Y-64023253D01*
X124883893Y-64037868D01*
X124862850Y-64050480D01*
X124840671Y-64060970D01*
X124817572Y-64069235D01*
X124793773Y-64075196D01*
X124769505Y-64078796D01*
X124745001Y-64080000D01*
X124094999Y-64080000D01*
X124070495Y-64078796D01*
X124046227Y-64075196D01*
X124022428Y-64069235D01*
X123999329Y-64060970D01*
X123977150Y-64050480D01*
X123956107Y-64037868D01*
X123936401Y-64023253D01*
X123918223Y-64006777D01*
X123901747Y-63988599D01*
X123887132Y-63968893D01*
X123874520Y-63947850D01*
X123864030Y-63925671D01*
X123855765Y-63902572D01*
X123849804Y-63878773D01*
X123846204Y-63854505D01*
X123845000Y-63830001D01*
X123845000Y-62929999D01*
X123846204Y-62905495D01*
X123849804Y-62881227D01*
X123855765Y-62857428D01*
X123864030Y-62834329D01*
X123874520Y-62812150D01*
X123887132Y-62791107D01*
X123901747Y-62771401D01*
X123918223Y-62753223D01*
X123936401Y-62736747D01*
X123956107Y-62722132D01*
X123977150Y-62709520D01*
X123999329Y-62699030D01*
X124022428Y-62690765D01*
X124046227Y-62684804D01*
X124070495Y-62681204D01*
X124094999Y-62680000D01*
X124745001Y-62680000D01*
X124769505Y-62681204D01*
X124769505Y-62681204D01*
G37*
D13*
G04 #@! TD*
G04 #@! TO.P,R1,2*
G04 #@! TO.N,GND*
X124420000Y-63380000D03*
D12*
G04 #@! TO.N,/boot*
G04 #@! TO.C,R1*
G36*
X122719505Y-62681204D02*
X122743773Y-62684804D01*
X122767572Y-62690765D01*
X122790671Y-62699030D01*
X122812850Y-62709520D01*
X122833893Y-62722132D01*
X122853599Y-62736747D01*
X122871777Y-62753223D01*
X122888253Y-62771401D01*
X122902868Y-62791107D01*
X122915480Y-62812150D01*
X122925970Y-62834329D01*
X122934235Y-62857428D01*
X122940196Y-62881227D01*
X122943796Y-62905495D01*
X122945000Y-62929999D01*
X122945000Y-63830001D01*
X122943796Y-63854505D01*
X122940196Y-63878773D01*
X122934235Y-63902572D01*
X122925970Y-63925671D01*
X122915480Y-63947850D01*
X122902868Y-63968893D01*
X122888253Y-63988599D01*
X122871777Y-64006777D01*
X122853599Y-64023253D01*
X122833893Y-64037868D01*
X122812850Y-64050480D01*
X122790671Y-64060970D01*
X122767572Y-64069235D01*
X122743773Y-64075196D01*
X122719505Y-64078796D01*
X122695001Y-64080000D01*
X122044999Y-64080000D01*
X122020495Y-64078796D01*
X121996227Y-64075196D01*
X121972428Y-64069235D01*
X121949329Y-64060970D01*
X121927150Y-64050480D01*
X121906107Y-64037868D01*
X121886401Y-64023253D01*
X121868223Y-64006777D01*
X121851747Y-63988599D01*
X121837132Y-63968893D01*
X121824520Y-63947850D01*
X121814030Y-63925671D01*
X121805765Y-63902572D01*
X121799804Y-63878773D01*
X121796204Y-63854505D01*
X121795000Y-63830001D01*
X121795000Y-62929999D01*
X121796204Y-62905495D01*
X121799804Y-62881227D01*
X121805765Y-62857428D01*
X121814030Y-62834329D01*
X121824520Y-62812150D01*
X121837132Y-62791107D01*
X121851747Y-62771401D01*
X121868223Y-62753223D01*
X121886401Y-62736747D01*
X121906107Y-62722132D01*
X121927150Y-62709520D01*
X121949329Y-62699030D01*
X121972428Y-62690765D01*
X121996227Y-62684804D01*
X122020495Y-62681204D01*
X122044999Y-62680000D01*
X122695001Y-62680000D01*
X122719505Y-62681204D01*
X122719505Y-62681204D01*
G37*
D13*
G04 #@! TD*
G04 #@! TO.P,R1,1*
G04 #@! TO.N,/boot*
X122370000Y-63380000D03*
D12*
G04 #@! TO.N,Net-(C7-Pad1)*
G04 #@! TO.C,R4*
G36*
X129094505Y-75856204D02*
X129118773Y-75859804D01*
X129142572Y-75865765D01*
X129165671Y-75874030D01*
X129187850Y-75884520D01*
X129208893Y-75897132D01*
X129228599Y-75911747D01*
X129246777Y-75928223D01*
X129263253Y-75946401D01*
X129277868Y-75966107D01*
X129290480Y-75987150D01*
X129300970Y-76009329D01*
X129309235Y-76032428D01*
X129315196Y-76056227D01*
X129318796Y-76080495D01*
X129320000Y-76104999D01*
X129320000Y-76755001D01*
X129318796Y-76779505D01*
X129315196Y-76803773D01*
X129309235Y-76827572D01*
X129300970Y-76850671D01*
X129290480Y-76872850D01*
X129277868Y-76893893D01*
X129263253Y-76913599D01*
X129246777Y-76931777D01*
X129228599Y-76948253D01*
X129208893Y-76962868D01*
X129187850Y-76975480D01*
X129165671Y-76985970D01*
X129142572Y-76994235D01*
X129118773Y-77000196D01*
X129094505Y-77003796D01*
X129070001Y-77005000D01*
X128169999Y-77005000D01*
X128145495Y-77003796D01*
X128121227Y-77000196D01*
X128097428Y-76994235D01*
X128074329Y-76985970D01*
X128052150Y-76975480D01*
X128031107Y-76962868D01*
X128011401Y-76948253D01*
X127993223Y-76931777D01*
X127976747Y-76913599D01*
X127962132Y-76893893D01*
X127949520Y-76872850D01*
X127939030Y-76850671D01*
X127930765Y-76827572D01*
X127924804Y-76803773D01*
X127921204Y-76779505D01*
X127920000Y-76755001D01*
X127920000Y-76104999D01*
X127921204Y-76080495D01*
X127924804Y-76056227D01*
X127930765Y-76032428D01*
X127939030Y-76009329D01*
X127949520Y-75987150D01*
X127962132Y-75966107D01*
X127976747Y-75946401D01*
X127993223Y-75928223D01*
X128011401Y-75911747D01*
X128031107Y-75897132D01*
X128052150Y-75884520D01*
X128074329Y-75874030D01*
X128097428Y-75865765D01*
X128121227Y-75859804D01*
X128145495Y-75856204D01*
X128169999Y-75855000D01*
X129070001Y-75855000D01*
X129094505Y-75856204D01*
X129094505Y-75856204D01*
G37*
D13*
G04 #@! TD*
G04 #@! TO.P,R4,2*
G04 #@! TO.N,Net-(C7-Pad1)*
X128620000Y-76430000D03*
D12*
G04 #@! TO.N,/osc32out*
G04 #@! TO.C,R4*
G36*
X129094505Y-73806204D02*
X129118773Y-73809804D01*
X129142572Y-73815765D01*
X129165671Y-73824030D01*
X129187850Y-73834520D01*
X129208893Y-73847132D01*
X129228599Y-73861747D01*
X129246777Y-73878223D01*
X129263253Y-73896401D01*
X129277868Y-73916107D01*
X129290480Y-73937150D01*
X129300970Y-73959329D01*
X129309235Y-73982428D01*
X129315196Y-74006227D01*
X129318796Y-74030495D01*
X129320000Y-74054999D01*
X129320000Y-74705001D01*
X129318796Y-74729505D01*
X129315196Y-74753773D01*
X129309235Y-74777572D01*
X129300970Y-74800671D01*
X129290480Y-74822850D01*
X129277868Y-74843893D01*
X129263253Y-74863599D01*
X129246777Y-74881777D01*
X129228599Y-74898253D01*
X129208893Y-74912868D01*
X129187850Y-74925480D01*
X129165671Y-74935970D01*
X129142572Y-74944235D01*
X129118773Y-74950196D01*
X129094505Y-74953796D01*
X129070001Y-74955000D01*
X128169999Y-74955000D01*
X128145495Y-74953796D01*
X128121227Y-74950196D01*
X128097428Y-74944235D01*
X128074329Y-74935970D01*
X128052150Y-74925480D01*
X128031107Y-74912868D01*
X128011401Y-74898253D01*
X127993223Y-74881777D01*
X127976747Y-74863599D01*
X127962132Y-74843893D01*
X127949520Y-74822850D01*
X127939030Y-74800671D01*
X127930765Y-74777572D01*
X127924804Y-74753773D01*
X127921204Y-74729505D01*
X127920000Y-74705001D01*
X127920000Y-74054999D01*
X127921204Y-74030495D01*
X127924804Y-74006227D01*
X127930765Y-73982428D01*
X127939030Y-73959329D01*
X127949520Y-73937150D01*
X127962132Y-73916107D01*
X127976747Y-73896401D01*
X127993223Y-73878223D01*
X128011401Y-73861747D01*
X128031107Y-73847132D01*
X128052150Y-73834520D01*
X128074329Y-73824030D01*
X128097428Y-73815765D01*
X128121227Y-73809804D01*
X128145495Y-73806204D01*
X128169999Y-73805000D01*
X129070001Y-73805000D01*
X129094505Y-73806204D01*
X129094505Y-73806204D01*
G37*
D13*
G04 #@! TD*
G04 #@! TO.P,R4,1*
G04 #@! TO.N,/osc32out*
X128620000Y-74380000D03*
D15*
G04 #@! TO.P,SW1,1*
G04 #@! TO.N,GND*
X135120000Y-66130000D03*
X128620000Y-66130000D03*
G04 #@! TO.P,SW1,2*
G04 #@! TO.N,/nrst*
X135120000Y-61630000D03*
X128620000Y-61630000D03*
G04 #@! TD*
D16*
G04 #@! TO.P,TP1,1*
G04 #@! TO.N,/swdio*
X139700000Y-66040000D03*
G04 #@! TD*
G04 #@! TO.P,TP2,1*
G04 #@! TO.N,/swclk*
X139700000Y-63500000D03*
G04 #@! TD*
G04 #@! TO.P,TP3,1*
G04 #@! TO.N,/vddext*
X140970000Y-86360000D03*
G04 #@! TD*
D17*
G04 #@! TO.P,TP4,1*
G04 #@! TO.N,GND*
X139700000Y-68580000D03*
G04 #@! TD*
D15*
G04 #@! TO.P,SW2,1*
G04 #@! TO.N,GND*
X133370000Y-87880000D03*
X126870000Y-87880000D03*
G04 #@! TO.P,SW2,2*
G04 #@! TO.N,Net-(R5-Pad2)*
X133370000Y-83380000D03*
X126870000Y-83380000D03*
G04 #@! TD*
D12*
G04 #@! TO.N,/switch*
G04 #@! TO.C,R5*
G36*
X123094505Y-86056204D02*
X123118773Y-86059804D01*
X123142572Y-86065765D01*
X123165671Y-86074030D01*
X123187850Y-86084520D01*
X123208893Y-86097132D01*
X123228599Y-86111747D01*
X123246777Y-86128223D01*
X123263253Y-86146401D01*
X123277868Y-86166107D01*
X123290480Y-86187150D01*
X123300970Y-86209329D01*
X123309235Y-86232428D01*
X123315196Y-86256227D01*
X123318796Y-86280495D01*
X123320000Y-86304999D01*
X123320000Y-86955001D01*
X123318796Y-86979505D01*
X123315196Y-87003773D01*
X123309235Y-87027572D01*
X123300970Y-87050671D01*
X123290480Y-87072850D01*
X123277868Y-87093893D01*
X123263253Y-87113599D01*
X123246777Y-87131777D01*
X123228599Y-87148253D01*
X123208893Y-87162868D01*
X123187850Y-87175480D01*
X123165671Y-87185970D01*
X123142572Y-87194235D01*
X123118773Y-87200196D01*
X123094505Y-87203796D01*
X123070001Y-87205000D01*
X122169999Y-87205000D01*
X122145495Y-87203796D01*
X122121227Y-87200196D01*
X122097428Y-87194235D01*
X122074329Y-87185970D01*
X122052150Y-87175480D01*
X122031107Y-87162868D01*
X122011401Y-87148253D01*
X121993223Y-87131777D01*
X121976747Y-87113599D01*
X121962132Y-87093893D01*
X121949520Y-87072850D01*
X121939030Y-87050671D01*
X121930765Y-87027572D01*
X121924804Y-87003773D01*
X121921204Y-86979505D01*
X121920000Y-86955001D01*
X121920000Y-86304999D01*
X121921204Y-86280495D01*
X121924804Y-86256227D01*
X121930765Y-86232428D01*
X121939030Y-86209329D01*
X121949520Y-86187150D01*
X121962132Y-86166107D01*
X121976747Y-86146401D01*
X121993223Y-86128223D01*
X122011401Y-86111747D01*
X122031107Y-86097132D01*
X122052150Y-86084520D01*
X122074329Y-86074030D01*
X122097428Y-86065765D01*
X122121227Y-86059804D01*
X122145495Y-86056204D01*
X122169999Y-86055000D01*
X123070001Y-86055000D01*
X123094505Y-86056204D01*
X123094505Y-86056204D01*
G37*
D13*
G04 #@! TD*
G04 #@! TO.P,R5,1*
G04 #@! TO.N,/switch*
X122620000Y-86630000D03*
D12*
G04 #@! TO.N,Net-(R5-Pad2)*
G04 #@! TO.C,R5*
G36*
X123094505Y-88106204D02*
X123118773Y-88109804D01*
X123142572Y-88115765D01*
X123165671Y-88124030D01*
X123187850Y-88134520D01*
X123208893Y-88147132D01*
X123228599Y-88161747D01*
X123246777Y-88178223D01*
X123263253Y-88196401D01*
X123277868Y-88216107D01*
X123290480Y-88237150D01*
X123300970Y-88259329D01*
X123309235Y-88282428D01*
X123315196Y-88306227D01*
X123318796Y-88330495D01*
X123320000Y-88354999D01*
X123320000Y-89005001D01*
X123318796Y-89029505D01*
X123315196Y-89053773D01*
X123309235Y-89077572D01*
X123300970Y-89100671D01*
X123290480Y-89122850D01*
X123277868Y-89143893D01*
X123263253Y-89163599D01*
X123246777Y-89181777D01*
X123228599Y-89198253D01*
X123208893Y-89212868D01*
X123187850Y-89225480D01*
X123165671Y-89235970D01*
X123142572Y-89244235D01*
X123118773Y-89250196D01*
X123094505Y-89253796D01*
X123070001Y-89255000D01*
X122169999Y-89255000D01*
X122145495Y-89253796D01*
X122121227Y-89250196D01*
X122097428Y-89244235D01*
X122074329Y-89235970D01*
X122052150Y-89225480D01*
X122031107Y-89212868D01*
X122011401Y-89198253D01*
X121993223Y-89181777D01*
X121976747Y-89163599D01*
X121962132Y-89143893D01*
X121949520Y-89122850D01*
X121939030Y-89100671D01*
X121930765Y-89077572D01*
X121924804Y-89053773D01*
X121921204Y-89029505D01*
X121920000Y-89005001D01*
X121920000Y-88354999D01*
X121921204Y-88330495D01*
X121924804Y-88306227D01*
X121930765Y-88282428D01*
X121939030Y-88259329D01*
X121949520Y-88237150D01*
X121962132Y-88216107D01*
X121976747Y-88196401D01*
X121993223Y-88178223D01*
X122011401Y-88161747D01*
X122031107Y-88147132D01*
X122052150Y-88134520D01*
X122074329Y-88124030D01*
X122097428Y-88115765D01*
X122121227Y-88109804D01*
X122145495Y-88106204D01*
X122169999Y-88105000D01*
X123070001Y-88105000D01*
X123094505Y-88106204D01*
X123094505Y-88106204D01*
G37*
D13*
G04 #@! TD*
G04 #@! TO.P,R5,2*
G04 #@! TO.N,Net-(R5-Pad2)*
X122620000Y-88680000D03*
D16*
G04 #@! TO.P,J1,1*
G04 #@! TO.N,/switch*
X119380000Y-86360000D03*
D18*
G04 #@! TO.P,J1,2*
G04 #@! TO.N,/pa3*
X119380000Y-83820000D03*
G04 #@! TO.P,J1,3*
G04 #@! TO.N,/pa2*
X119380000Y-81280000D03*
G04 #@! TO.P,J1,4*
G04 #@! TO.N,/pa1*
X119380000Y-78740000D03*
G04 #@! TO.P,J1,5*
G04 #@! TO.N,/pa0*
X119380000Y-76200000D03*
G04 #@! TO.P,J1,6*
G04 #@! TO.N,/vdd*
X119380000Y-73660000D03*
G04 #@! TO.P,J1,7*
G04 #@! TO.N,/nrst*
X119380000Y-71120000D03*
G04 #@! TO.P,J1,8*
G04 #@! TO.N,/key*
X119380000Y-68580000D03*
G04 #@! TO.P,J1,9*
G04 #@! TO.N,GND*
X119380000Y-66040000D03*
G04 #@! TO.P,J1,10*
G04 #@! TO.N,/boot*
X119380000Y-63500000D03*
G04 #@! TD*
G04 #@! TO.P,J2,10*
G04 #@! TO.N,/led*
X144780000Y-86360000D03*
G04 #@! TO.P,J2,9*
G04 #@! TO.N,/pa6*
X144780000Y-83820000D03*
G04 #@! TO.P,J2,8*
G04 #@! TO.N,/pa7*
X144780000Y-81280000D03*
G04 #@! TO.P,J2,7*
G04 #@! TO.N,/pb1*
X144780000Y-78740000D03*
G04 #@! TO.P,J2,6*
G04 #@! TO.N,GND*
X144780000Y-76200000D03*
G04 #@! TO.P,J2,5*
G04 #@! TO.N,/vdd*
X144780000Y-73660000D03*
G04 #@! TO.P,J2,4*
G04 #@! TO.N,/pa9*
X144780000Y-71120000D03*
G04 #@! TO.P,J2,3*
G04 #@! TO.N,/pa10*
X144780000Y-68580000D03*
G04 #@! TO.P,J2,2*
G04 #@! TO.N,/swdio*
X144780000Y-66040000D03*
D16*
G04 #@! TO.P,J2,1*
G04 #@! TO.N,/swclk*
X144780000Y-63500000D03*
G04 #@! TD*
D12*
G04 #@! TO.N,/vdd*
G04 #@! TO.C,R6*
G36*
X123094505Y-82056204D02*
X123118773Y-82059804D01*
X123142572Y-82065765D01*
X123165671Y-82074030D01*
X123187850Y-82084520D01*
X123208893Y-82097132D01*
X123228599Y-82111747D01*
X123246777Y-82128223D01*
X123263253Y-82146401D01*
X123277868Y-82166107D01*
X123290480Y-82187150D01*
X123300970Y-82209329D01*
X123309235Y-82232428D01*
X123315196Y-82256227D01*
X123318796Y-82280495D01*
X123320000Y-82304999D01*
X123320000Y-82955001D01*
X123318796Y-82979505D01*
X123315196Y-83003773D01*
X123309235Y-83027572D01*
X123300970Y-83050671D01*
X123290480Y-83072850D01*
X123277868Y-83093893D01*
X123263253Y-83113599D01*
X123246777Y-83131777D01*
X123228599Y-83148253D01*
X123208893Y-83162868D01*
X123187850Y-83175480D01*
X123165671Y-83185970D01*
X123142572Y-83194235D01*
X123118773Y-83200196D01*
X123094505Y-83203796D01*
X123070001Y-83205000D01*
X122169999Y-83205000D01*
X122145495Y-83203796D01*
X122121227Y-83200196D01*
X122097428Y-83194235D01*
X122074329Y-83185970D01*
X122052150Y-83175480D01*
X122031107Y-83162868D01*
X122011401Y-83148253D01*
X121993223Y-83131777D01*
X121976747Y-83113599D01*
X121962132Y-83093893D01*
X121949520Y-83072850D01*
X121939030Y-83050671D01*
X121930765Y-83027572D01*
X121924804Y-83003773D01*
X121921204Y-82979505D01*
X121920000Y-82955001D01*
X121920000Y-82304999D01*
X121921204Y-82280495D01*
X121924804Y-82256227D01*
X121930765Y-82232428D01*
X121939030Y-82209329D01*
X121949520Y-82187150D01*
X121962132Y-82166107D01*
X121976747Y-82146401D01*
X121993223Y-82128223D01*
X122011401Y-82111747D01*
X122031107Y-82097132D01*
X122052150Y-82084520D01*
X122074329Y-82074030D01*
X122097428Y-82065765D01*
X122121227Y-82059804D01*
X122145495Y-82056204D01*
X122169999Y-82055000D01*
X123070001Y-82055000D01*
X123094505Y-82056204D01*
X123094505Y-82056204D01*
G37*
D13*
G04 #@! TD*
G04 #@! TO.P,R6,1*
G04 #@! TO.N,/vdd*
X122620000Y-82630000D03*
D12*
G04 #@! TO.N,/switch*
G04 #@! TO.C,R6*
G36*
X123094505Y-84106204D02*
X123118773Y-84109804D01*
X123142572Y-84115765D01*
X123165671Y-84124030D01*
X123187850Y-84134520D01*
X123208893Y-84147132D01*
X123228599Y-84161747D01*
X123246777Y-84178223D01*
X123263253Y-84196401D01*
X123277868Y-84216107D01*
X123290480Y-84237150D01*
X123300970Y-84259329D01*
X123309235Y-84282428D01*
X123315196Y-84306227D01*
X123318796Y-84330495D01*
X123320000Y-84354999D01*
X123320000Y-85005001D01*
X123318796Y-85029505D01*
X123315196Y-85053773D01*
X123309235Y-85077572D01*
X123300970Y-85100671D01*
X123290480Y-85122850D01*
X123277868Y-85143893D01*
X123263253Y-85163599D01*
X123246777Y-85181777D01*
X123228599Y-85198253D01*
X123208893Y-85212868D01*
X123187850Y-85225480D01*
X123165671Y-85235970D01*
X123142572Y-85244235D01*
X123118773Y-85250196D01*
X123094505Y-85253796D01*
X123070001Y-85255000D01*
X122169999Y-85255000D01*
X122145495Y-85253796D01*
X122121227Y-85250196D01*
X122097428Y-85244235D01*
X122074329Y-85235970D01*
X122052150Y-85225480D01*
X122031107Y-85212868D01*
X122011401Y-85198253D01*
X121993223Y-85181777D01*
X121976747Y-85163599D01*
X121962132Y-85143893D01*
X121949520Y-85122850D01*
X121939030Y-85100671D01*
X121930765Y-85077572D01*
X121924804Y-85053773D01*
X121921204Y-85029505D01*
X121920000Y-85005001D01*
X121920000Y-84354999D01*
X121921204Y-84330495D01*
X121924804Y-84306227D01*
X121930765Y-84282428D01*
X121939030Y-84259329D01*
X121949520Y-84237150D01*
X121962132Y-84216107D01*
X121976747Y-84196401D01*
X121993223Y-84178223D01*
X122011401Y-84161747D01*
X122031107Y-84147132D01*
X122052150Y-84134520D01*
X122074329Y-84124030D01*
X122097428Y-84115765D01*
X122121227Y-84109804D01*
X122145495Y-84106204D01*
X122169999Y-84105000D01*
X123070001Y-84105000D01*
X123094505Y-84106204D01*
X123094505Y-84106204D01*
G37*
D13*
G04 #@! TD*
G04 #@! TO.P,R6,2*
G04 #@! TO.N,/switch*
X122620000Y-84680000D03*
D16*
G04 #@! TO.P,TP5,1*
G04 #@! TO.N,Net-(TP5-Pad1)*
X116840000Y-60960000D03*
G04 #@! TD*
G04 #@! TO.P,TP6,1*
G04 #@! TO.N,Net-(TP6-Pad1)*
X147320000Y-60960000D03*
G04 #@! TD*
G04 #@! TO.P,TP7,1*
G04 #@! TO.N,Net-(TP7-Pad1)*
X116840000Y-88900000D03*
G04 #@! TD*
G04 #@! TO.P,TP8,1*
G04 #@! TO.N,Net-(TP8-Pad1)*
X147320000Y-88900000D03*
G04 #@! TD*
D19*
G04 #@! TO.N,GND*
X123444000Y-79629000D03*
X124206000Y-77724000D03*
X142240000Y-81280000D03*
X142240000Y-83820000D03*
X141986000Y-64770000D03*
X136652000Y-70866000D03*
X142494000Y-72390000D03*
X121666000Y-80010000D03*
G04 #@! TO.N,/osc32in*
X130193000Y-72123700D03*
G04 #@! TO.N,/osc32out*
X130195000Y-74380000D03*
G04 #@! TD*
D20*
G04 #@! TO.N,/nrst*
X128620000Y-61630000D02*
X122370000Y-67880000D01*
X122370000Y-67880000D02*
X122370000Y-70630000D01*
X119380000Y-71120000D02*
X121880000Y-71120000D01*
X121880000Y-71120000D02*
X122370000Y-70630000D01*
G04 #@! TO.N,GND*
X144780000Y-76200000D02*
X143554700Y-76200000D01*
X137244500Y-77255500D02*
X137894400Y-77905400D01*
X137894400Y-77905400D02*
X141849300Y-77905400D01*
X141849300Y-77905400D02*
X143554700Y-76200000D01*
X137244500Y-77255500D02*
X137120000Y-77380000D01*
X137120000Y-77380000D02*
X135932600Y-77380000D01*
X139870000Y-73130000D02*
X139870000Y-74630000D01*
X139870000Y-74630000D02*
X137244500Y-77255500D01*
X139700000Y-68580000D02*
X138474700Y-68580000D01*
X138200000Y-70080000D02*
X138474700Y-69805300D01*
X138474700Y-69805300D02*
X138474700Y-68580000D01*
X138200000Y-70080000D02*
X138320000Y-70080000D01*
X138320000Y-70080000D02*
X139870000Y-71630000D01*
X139870000Y-71630000D02*
X139870000Y-73130000D01*
X133410000Y-70080000D02*
X138200000Y-70080000D01*
X133410000Y-70080000D02*
X135120000Y-68370000D01*
X135120000Y-68370000D02*
X135120000Y-66130000D01*
X128620000Y-70080000D02*
X133410000Y-70080000D01*
X135932600Y-77380000D02*
X135932600Y-85317400D01*
X135932600Y-85317400D02*
X133370000Y-87880000D01*
X135932600Y-77380000D02*
X127320000Y-77380000D01*
X127320000Y-77380000D02*
X126370000Y-76430000D01*
X124420000Y-63380000D02*
X121760000Y-66040000D01*
X121760000Y-66040000D02*
X119380000Y-66040000D01*
X128620000Y-66130000D02*
X128620000Y-70080000D01*
X124420000Y-70630000D02*
X128070000Y-70630000D01*
X128070000Y-70630000D02*
X128620000Y-70080000D01*
X126370000Y-76430000D02*
X124420000Y-74480000D01*
X124420000Y-74480000D02*
X124420000Y-70630000D01*
G04 #@! TO.N,/vdd*
X140620000Y-77080000D02*
X140620000Y-76254700D01*
X144780000Y-73660000D02*
X143554700Y-73660000D01*
X143554700Y-73660000D02*
X140960000Y-76254700D01*
X140960000Y-76254700D02*
X140620000Y-76254700D01*
X119380000Y-73660000D02*
X119380000Y-74885300D01*
X119380000Y-74885300D02*
X119839500Y-74885300D01*
X119839500Y-74885300D02*
X122620000Y-77665800D01*
X122620000Y-77665800D02*
X122620000Y-82630000D01*
G04 #@! TO.N,/osc32in*
X128620000Y-72130000D02*
X130193000Y-72123700D01*
X130193000Y-72123700D02*
X131870000Y-72130000D01*
X131870000Y-72130000D02*
X132120000Y-71880000D01*
G04 #@! TO.N,Net-(C7-Pad1)*
X126370000Y-74380000D02*
X128420000Y-76430000D01*
X128420000Y-76430000D02*
X128620000Y-76430000D01*
X128620000Y-76430000D02*
X129243000Y-75806600D01*
X129243000Y-75806600D02*
X129943000Y-75806600D01*
X129943000Y-75806600D02*
X131370000Y-74380000D01*
X131370000Y-74380000D02*
X132120000Y-74380000D01*
G04 #@! TO.N,/vddext*
X140970000Y-86360000D02*
X140620000Y-86010000D01*
X140620000Y-86010000D02*
X140620000Y-80380000D01*
G04 #@! TO.N,/boot*
X119380000Y-63500000D02*
X122250000Y-63500000D01*
X122250000Y-63500000D02*
X122370000Y-63380000D01*
G04 #@! TO.N,/osc32out*
X130195000Y-74380000D02*
X128620000Y-74380000D01*
X128870000Y-74130000D02*
X128620000Y-74380000D01*
G04 #@! TO.N,Net-(R5-Pad2)*
X126870000Y-83380000D02*
X126870000Y-84430000D01*
X126870000Y-84430000D02*
X122620000Y-88680000D01*
G04 #@! TO.N,/switch*
X122350000Y-86360000D02*
X122620000Y-86630000D01*
X119380000Y-86360000D02*
X122350000Y-86360000D01*
X122620000Y-84680000D02*
X122620000Y-86090000D01*
X122620000Y-86090000D02*
X122350000Y-86360000D01*
G04 #@! TD*
D21*
G04 #@! TO.N,GND*
G36*
X147718125Y-59495114D02*
X147767062Y-59537827D01*
X147615385Y-59475000D01*
X147024615Y-59475000D01*
X146478815Y-59701078D01*
X146061078Y-60118815D01*
X145835000Y-60664615D01*
X145835000Y-61255385D01*
X146061078Y-61801185D01*
X146478815Y-62218922D01*
X147024615Y-62445000D01*
X147615385Y-62445000D01*
X148161185Y-62218922D01*
X148578922Y-61801185D01*
X148805000Y-61255385D01*
X148805000Y-60664615D01*
X148754368Y-60542379D01*
X148885376Y-60703096D01*
X149150000Y-61153238D01*
X149150001Y-88700324D01*
X148784886Y-89298125D01*
X148742173Y-89347062D01*
X148805000Y-89195385D01*
X148805000Y-88604615D01*
X148578922Y-88058815D01*
X148161185Y-87641078D01*
X147615385Y-87415000D01*
X147024615Y-87415000D01*
X146478815Y-87641078D01*
X146061078Y-88058815D01*
X145835000Y-88604615D01*
X145835000Y-89195385D01*
X146061078Y-89741185D01*
X146478815Y-90158922D01*
X147024615Y-90385000D01*
X147615385Y-90385000D01*
X147737622Y-90334368D01*
X147576904Y-90465376D01*
X147126762Y-90730000D01*
X117039674Y-90730000D01*
X116441875Y-90364886D01*
X116392938Y-90322173D01*
X116544615Y-90385000D01*
X117135385Y-90385000D01*
X117681185Y-90158922D01*
X118098922Y-89741185D01*
X118325000Y-89195385D01*
X118325000Y-88604615D01*
X118098922Y-88058815D01*
X117681185Y-87641078D01*
X117135385Y-87415000D01*
X116544615Y-87415000D01*
X115998815Y-87641078D01*
X115581078Y-88058815D01*
X115355000Y-88604615D01*
X115355000Y-89195385D01*
X115405632Y-89317622D01*
X115274624Y-89156904D01*
X115010000Y-88706762D01*
X115010000Y-68580000D01*
X117865908Y-68580000D01*
X117981161Y-69159418D01*
X118309375Y-69650625D01*
X118607761Y-69850000D01*
X118309375Y-70049375D01*
X117981161Y-70540582D01*
X117865908Y-71120000D01*
X117981161Y-71699418D01*
X118309375Y-72190625D01*
X118607761Y-72390000D01*
X118309375Y-72589375D01*
X117981161Y-73080582D01*
X117865908Y-73660000D01*
X117981161Y-74239418D01*
X118309375Y-74730625D01*
X118607761Y-74930000D01*
X118309375Y-75129375D01*
X117981161Y-75620582D01*
X117865908Y-76200000D01*
X117981161Y-76779418D01*
X118309375Y-77270625D01*
X118607761Y-77470000D01*
X118309375Y-77669375D01*
X117981161Y-78160582D01*
X117865908Y-78740000D01*
X117981161Y-79319418D01*
X118309375Y-79810625D01*
X118607761Y-80010000D01*
X118309375Y-80209375D01*
X117981161Y-80700582D01*
X117865908Y-81280000D01*
X117981161Y-81859418D01*
X118309375Y-82350625D01*
X118607761Y-82550000D01*
X118309375Y-82749375D01*
X117981161Y-83240582D01*
X117865908Y-83820000D01*
X117981161Y-84399418D01*
X118309375Y-84890625D01*
X118591611Y-85079209D01*
X118538815Y-85101078D01*
X118121078Y-85518815D01*
X117895000Y-86064615D01*
X117895000Y-86655385D01*
X118121078Y-87201185D01*
X118538815Y-87618922D01*
X119084615Y-87845000D01*
X119675385Y-87845000D01*
X120221185Y-87618922D01*
X120638922Y-87201185D01*
X120672550Y-87120000D01*
X121305380Y-87120000D01*
X121340873Y-87298436D01*
X121535414Y-87589586D01*
X121633313Y-87655000D01*
X121535414Y-87720414D01*
X121340873Y-88011564D01*
X121272560Y-88354999D01*
X121272560Y-89005001D01*
X121340873Y-89348436D01*
X121535414Y-89639586D01*
X121826564Y-89834127D01*
X122169999Y-89902440D01*
X123070001Y-89902440D01*
X123413436Y-89834127D01*
X123704586Y-89639586D01*
X123899127Y-89348436D01*
X123926003Y-89213320D01*
X125716285Y-89213320D01*
X125845533Y-89506123D01*
X126545806Y-89774388D01*
X127295435Y-89754250D01*
X127894467Y-89506123D01*
X128023715Y-89213320D01*
X132216285Y-89213320D01*
X132345533Y-89506123D01*
X133045806Y-89774388D01*
X133795435Y-89754250D01*
X134394467Y-89506123D01*
X134523715Y-89213320D01*
X133370000Y-88059605D01*
X132216285Y-89213320D01*
X128023715Y-89213320D01*
X126870000Y-88059605D01*
X125716285Y-89213320D01*
X123926003Y-89213320D01*
X123967440Y-89005001D01*
X123967440Y-88407361D01*
X125072867Y-87301935D01*
X124975612Y-87555806D01*
X124995750Y-88305435D01*
X125243877Y-88904467D01*
X125536680Y-89033715D01*
X126690395Y-87880000D01*
X127049605Y-87880000D01*
X128203320Y-89033715D01*
X128496123Y-88904467D01*
X128764388Y-88204194D01*
X128746970Y-87555806D01*
X131475612Y-87555806D01*
X131495750Y-88305435D01*
X131743877Y-88904467D01*
X132036680Y-89033715D01*
X133190395Y-87880000D01*
X133549605Y-87880000D01*
X134703320Y-89033715D01*
X134996123Y-88904467D01*
X135264388Y-88204194D01*
X135244250Y-87454565D01*
X134996123Y-86855533D01*
X134703320Y-86726285D01*
X133549605Y-87880000D01*
X133190395Y-87880000D01*
X132036680Y-86726285D01*
X131743877Y-86855533D01*
X131475612Y-87555806D01*
X128746970Y-87555806D01*
X128744250Y-87454565D01*
X128496123Y-86855533D01*
X128203320Y-86726285D01*
X127049605Y-87880000D01*
X126690395Y-87880000D01*
X126676253Y-87865858D01*
X126855858Y-87686253D01*
X126870000Y-87700395D01*
X128023715Y-86546680D01*
X132216285Y-86546680D01*
X133370000Y-87700395D01*
X134523715Y-86546680D01*
X134394467Y-86253877D01*
X133694194Y-85985612D01*
X132944565Y-86005750D01*
X132345533Y-86253877D01*
X132216285Y-86546680D01*
X128023715Y-86546680D01*
X127894467Y-86253877D01*
X127194194Y-85985612D01*
X126444565Y-86005750D01*
X126315656Y-86059146D01*
X127109802Y-85265000D01*
X127244950Y-85265000D01*
X127937767Y-84978026D01*
X128468026Y-84447767D01*
X128755000Y-83754950D01*
X128755000Y-83005050D01*
X131485000Y-83005050D01*
X131485000Y-83754950D01*
X131771974Y-84447767D01*
X132302233Y-84978026D01*
X132995050Y-85265000D01*
X133744950Y-85265000D01*
X134437767Y-84978026D01*
X134968026Y-84447767D01*
X135255000Y-83754950D01*
X135255000Y-83005050D01*
X134968026Y-82312233D01*
X134437767Y-81781974D01*
X133744950Y-81495000D01*
X132995050Y-81495000D01*
X132302233Y-81781974D01*
X131771974Y-82312233D01*
X131485000Y-83005050D01*
X128755000Y-83005050D01*
X128468026Y-82312233D01*
X127937767Y-81781974D01*
X127244950Y-81495000D01*
X126495050Y-81495000D01*
X125802233Y-81781974D01*
X125271974Y-82312233D01*
X124985000Y-83005050D01*
X124985000Y-83754950D01*
X125271974Y-84447767D01*
X125524703Y-84700496D01*
X123959602Y-86265596D01*
X123899127Y-85961564D01*
X123704586Y-85670414D01*
X123681517Y-85655000D01*
X123704586Y-85639586D01*
X123899127Y-85348436D01*
X123967440Y-85005001D01*
X123967440Y-84354999D01*
X123899127Y-84011564D01*
X123704586Y-83720414D01*
X123606687Y-83655000D01*
X123704586Y-83589586D01*
X123899127Y-83298436D01*
X123967440Y-82955001D01*
X123967440Y-82304999D01*
X123899127Y-81961564D01*
X123704586Y-81670414D01*
X123413436Y-81475873D01*
X123380000Y-81469222D01*
X123380000Y-79930000D01*
X139372560Y-79930000D01*
X139372560Y-80830000D01*
X139421843Y-81077765D01*
X139562191Y-81287809D01*
X139772235Y-81428157D01*
X139860001Y-81445615D01*
X139860000Y-85369893D01*
X139711078Y-85518815D01*
X139485000Y-86064615D01*
X139485000Y-86655385D01*
X139711078Y-87201185D01*
X140128815Y-87618922D01*
X140674615Y-87845000D01*
X141265385Y-87845000D01*
X141811185Y-87618922D01*
X142228922Y-87201185D01*
X142455000Y-86655385D01*
X142455000Y-86064615D01*
X142228922Y-85518815D01*
X141811185Y-85101078D01*
X141380000Y-84922475D01*
X141380000Y-81445614D01*
X141467765Y-81428157D01*
X141677809Y-81287809D01*
X141818157Y-81077765D01*
X141867440Y-80830000D01*
X141867440Y-79930000D01*
X141818157Y-79682235D01*
X141677809Y-79472191D01*
X141467765Y-79331843D01*
X141220000Y-79282560D01*
X140020000Y-79282560D01*
X139772235Y-79331843D01*
X139562191Y-79472191D01*
X139421843Y-79682235D01*
X139372560Y-79930000D01*
X123380000Y-79930000D01*
X123380000Y-78740000D01*
X143265908Y-78740000D01*
X143381161Y-79319418D01*
X143709375Y-79810625D01*
X144007761Y-80010000D01*
X143709375Y-80209375D01*
X143381161Y-80700582D01*
X143265908Y-81280000D01*
X143381161Y-81859418D01*
X143709375Y-82350625D01*
X144007761Y-82550000D01*
X143709375Y-82749375D01*
X143381161Y-83240582D01*
X143265908Y-83820000D01*
X143381161Y-84399418D01*
X143709375Y-84890625D01*
X144007761Y-85090000D01*
X143709375Y-85289375D01*
X143381161Y-85780582D01*
X143265908Y-86360000D01*
X143381161Y-86939418D01*
X143709375Y-87430625D01*
X144200582Y-87758839D01*
X144633744Y-87845000D01*
X144926256Y-87845000D01*
X145359418Y-87758839D01*
X145850625Y-87430625D01*
X146178839Y-86939418D01*
X146294092Y-86360000D01*
X146178839Y-85780582D01*
X145850625Y-85289375D01*
X145552239Y-85090000D01*
X145850625Y-84890625D01*
X146178839Y-84399418D01*
X146294092Y-83820000D01*
X146178839Y-83240582D01*
X145850625Y-82749375D01*
X145552239Y-82550000D01*
X145850625Y-82350625D01*
X146178839Y-81859418D01*
X146294092Y-81280000D01*
X146178839Y-80700582D01*
X145850625Y-80209375D01*
X145552239Y-80010000D01*
X145850625Y-79810625D01*
X146178839Y-79319418D01*
X146294092Y-78740000D01*
X146178839Y-78160582D01*
X145850625Y-77669375D01*
X145531522Y-77456157D01*
X145661358Y-77395183D01*
X146051645Y-76966924D01*
X146221476Y-76556890D01*
X146100155Y-76327000D01*
X144907000Y-76327000D01*
X144907000Y-76347000D01*
X144653000Y-76347000D01*
X144653000Y-76327000D01*
X143459845Y-76327000D01*
X143338524Y-76556890D01*
X143508355Y-76966924D01*
X143898642Y-77395183D01*
X144028478Y-77456157D01*
X143709375Y-77669375D01*
X143381161Y-78160582D01*
X143265908Y-78740000D01*
X123380000Y-78740000D01*
X123380000Y-77740648D01*
X123394888Y-77665800D01*
X123380000Y-77590952D01*
X123380000Y-77590948D01*
X123335904Y-77369263D01*
X123335904Y-77369262D01*
X123210329Y-77181327D01*
X123167929Y-77117871D01*
X123104473Y-77075471D01*
X122744752Y-76715750D01*
X125035000Y-76715750D01*
X125035000Y-77131309D01*
X125131673Y-77364698D01*
X125310301Y-77543327D01*
X125543690Y-77640000D01*
X126084250Y-77640000D01*
X126243000Y-77481250D01*
X126243000Y-76557000D01*
X125193750Y-76557000D01*
X125035000Y-76715750D01*
X122744752Y-76715750D01*
X120574393Y-74545392D01*
X120778839Y-74239418D01*
X120815522Y-74054999D01*
X125022560Y-74054999D01*
X125022560Y-74705001D01*
X125090873Y-75048436D01*
X125285414Y-75339586D01*
X125286597Y-75340377D01*
X125131673Y-75495302D01*
X125035000Y-75728691D01*
X125035000Y-76144250D01*
X125193750Y-76303000D01*
X126243000Y-76303000D01*
X126243000Y-76283000D01*
X126497000Y-76283000D01*
X126497000Y-76303000D01*
X126517000Y-76303000D01*
X126517000Y-76557000D01*
X126497000Y-76557000D01*
X126497000Y-77481250D01*
X126655750Y-77640000D01*
X127196310Y-77640000D01*
X127429699Y-77543327D01*
X127564203Y-77408822D01*
X127826564Y-77584127D01*
X128169999Y-77652440D01*
X129070001Y-77652440D01*
X129413436Y-77584127D01*
X129704586Y-77389586D01*
X129899127Y-77098436D01*
X129967440Y-76755001D01*
X129967440Y-76630000D01*
X139372560Y-76630000D01*
X139372560Y-77530000D01*
X139421843Y-77777765D01*
X139562191Y-77987809D01*
X139772235Y-78128157D01*
X140020000Y-78177440D01*
X141220000Y-78177440D01*
X141467765Y-78128157D01*
X141677809Y-77987809D01*
X141818157Y-77777765D01*
X141867440Y-77530000D01*
X141867440Y-76630000D01*
X141832941Y-76456560D01*
X143649094Y-74640408D01*
X143709375Y-74730625D01*
X144028478Y-74943843D01*
X143898642Y-75004817D01*
X143508355Y-75433076D01*
X143338524Y-75843110D01*
X143459845Y-76073000D01*
X144653000Y-76073000D01*
X144653000Y-76053000D01*
X144907000Y-76053000D01*
X144907000Y-76073000D01*
X146100155Y-76073000D01*
X146221476Y-75843110D01*
X146051645Y-75433076D01*
X145661358Y-75004817D01*
X145531522Y-74943843D01*
X145850625Y-74730625D01*
X146178839Y-74239418D01*
X146294092Y-73660000D01*
X146178839Y-73080582D01*
X145850625Y-72589375D01*
X145552239Y-72390000D01*
X145850625Y-72190625D01*
X146178839Y-71699418D01*
X146294092Y-71120000D01*
X146178839Y-70540582D01*
X145850625Y-70049375D01*
X145552239Y-69850000D01*
X145850625Y-69650625D01*
X146178839Y-69159418D01*
X146294092Y-68580000D01*
X146178839Y-68000582D01*
X145850625Y-67509375D01*
X145552239Y-67310000D01*
X145850625Y-67110625D01*
X146178839Y-66619418D01*
X146294092Y-66040000D01*
X146178839Y-65460582D01*
X145850625Y-64969375D01*
X145568389Y-64780791D01*
X145621185Y-64758922D01*
X146038922Y-64341185D01*
X146265000Y-63795385D01*
X146265000Y-63204615D01*
X146038922Y-62658815D01*
X145621185Y-62241078D01*
X145075385Y-62015000D01*
X144484615Y-62015000D01*
X143938815Y-62241078D01*
X143521078Y-62658815D01*
X143295000Y-63204615D01*
X143295000Y-63795385D01*
X143521078Y-64341185D01*
X143938815Y-64758922D01*
X143991611Y-64780791D01*
X143709375Y-64969375D01*
X143381161Y-65460582D01*
X143265908Y-66040000D01*
X143381161Y-66619418D01*
X143709375Y-67110625D01*
X144007761Y-67310000D01*
X143709375Y-67509375D01*
X143381161Y-68000582D01*
X143265908Y-68580000D01*
X143381161Y-69159418D01*
X143709375Y-69650625D01*
X144007761Y-69850000D01*
X143709375Y-70049375D01*
X143381161Y-70540582D01*
X143265908Y-71120000D01*
X143381161Y-71699418D01*
X143709375Y-72190625D01*
X144007761Y-72390000D01*
X143709375Y-72589375D01*
X143505189Y-72894960D01*
X143479853Y-72900000D01*
X143479848Y-72900000D01*
X143258163Y-72944096D01*
X143006771Y-73112071D01*
X142964371Y-73175527D01*
X141755000Y-74384898D01*
X141755000Y-73415750D01*
X141596250Y-73257000D01*
X139997000Y-73257000D01*
X139997000Y-74856250D01*
X140155750Y-75015000D01*
X141124899Y-75015000D01*
X140653437Y-75486462D01*
X140620000Y-75479811D01*
X140545148Y-75494700D01*
X140323463Y-75538796D01*
X140072071Y-75706771D01*
X139904096Y-75958163D01*
X139894268Y-76007569D01*
X139772235Y-76031843D01*
X139562191Y-76172191D01*
X139421843Y-76382235D01*
X139372560Y-76630000D01*
X129967440Y-76630000D01*
X129967440Y-76576609D01*
X130017794Y-76566600D01*
X130017852Y-76566600D01*
X130096625Y-76550931D01*
X130239436Y-76522545D01*
X130239481Y-76522515D01*
X130239537Y-76522504D01*
X130367003Y-76437334D01*
X130427390Y-76396997D01*
X130427428Y-76396959D01*
X130490929Y-76354529D01*
X130533299Y-76291117D01*
X131297191Y-75527440D01*
X133370000Y-75527440D01*
X133617765Y-75478157D01*
X133827809Y-75337809D01*
X133968157Y-75127765D01*
X134017440Y-74880000D01*
X134017440Y-73880000D01*
X133968157Y-73632235D01*
X133827809Y-73422191D01*
X133818170Y-73415750D01*
X137985000Y-73415750D01*
X137985000Y-74506310D01*
X138081673Y-74739699D01*
X138260302Y-74918327D01*
X138493691Y-75015000D01*
X139584250Y-75015000D01*
X139743000Y-74856250D01*
X139743000Y-73257000D01*
X138143750Y-73257000D01*
X137985000Y-73415750D01*
X133818170Y-73415750D01*
X133617765Y-73281843D01*
X133370000Y-73232560D01*
X130870000Y-73232560D01*
X130622235Y-73281843D01*
X130479175Y-73377433D01*
X130400874Y-73345000D01*
X129989126Y-73345000D01*
X129726800Y-73453659D01*
X129704586Y-73420414D01*
X129457027Y-73255000D01*
X129704586Y-73089586D01*
X129729663Y-73052056D01*
X129987126Y-73158700D01*
X130398874Y-73158700D01*
X130765802Y-73006714D01*
X130870000Y-73027440D01*
X133370000Y-73027440D01*
X133617765Y-72978157D01*
X133827809Y-72837809D01*
X133968157Y-72627765D01*
X134017440Y-72380000D01*
X134017440Y-71753690D01*
X137985000Y-71753690D01*
X137985000Y-72844250D01*
X138143750Y-73003000D01*
X139743000Y-73003000D01*
X139743000Y-71403750D01*
X139997000Y-71403750D01*
X139997000Y-73003000D01*
X141596250Y-73003000D01*
X141755000Y-72844250D01*
X141755000Y-71753690D01*
X141658327Y-71520301D01*
X141479698Y-71341673D01*
X141246309Y-71245000D01*
X140155750Y-71245000D01*
X139997000Y-71403750D01*
X139743000Y-71403750D01*
X139584250Y-71245000D01*
X138493691Y-71245000D01*
X138260302Y-71341673D01*
X138081673Y-71520301D01*
X137985000Y-71753690D01*
X134017440Y-71753690D01*
X134017440Y-71380000D01*
X133968157Y-71132235D01*
X133827809Y-70922191D01*
X133617765Y-70781843D01*
X133370000Y-70732560D01*
X130870000Y-70732560D01*
X130622235Y-70781843D01*
X130412191Y-70922191D01*
X130300932Y-71088700D01*
X129987126Y-71088700D01*
X129723069Y-71198076D01*
X129704586Y-71170414D01*
X129703403Y-71169623D01*
X129858327Y-71014698D01*
X129955000Y-70781309D01*
X129955000Y-70365750D01*
X129796250Y-70207000D01*
X128747000Y-70207000D01*
X128747000Y-70227000D01*
X128493000Y-70227000D01*
X128493000Y-70207000D01*
X127443750Y-70207000D01*
X127285000Y-70365750D01*
X127285000Y-70781309D01*
X127381673Y-71014698D01*
X127536597Y-71169623D01*
X127535414Y-71170414D01*
X127340873Y-71461564D01*
X127272560Y-71804999D01*
X127272560Y-72455001D01*
X127340873Y-72798436D01*
X127535414Y-73089586D01*
X127782973Y-73255000D01*
X127535414Y-73420414D01*
X127495000Y-73480898D01*
X127454586Y-73420414D01*
X127163436Y-73225873D01*
X126820001Y-73157560D01*
X125919999Y-73157560D01*
X125576564Y-73225873D01*
X125285414Y-73420414D01*
X125090873Y-73711564D01*
X125022560Y-74054999D01*
X120815522Y-74054999D01*
X120894092Y-73660000D01*
X120778839Y-73080582D01*
X120450625Y-72589375D01*
X120152239Y-72390000D01*
X120450625Y-72190625D01*
X120658178Y-71880000D01*
X121657973Y-71880000D01*
X121701564Y-71909127D01*
X122044999Y-71977440D01*
X122695001Y-71977440D01*
X123038436Y-71909127D01*
X123329586Y-71714586D01*
X123330377Y-71713403D01*
X123485302Y-71868327D01*
X123718691Y-71965000D01*
X124134250Y-71965000D01*
X124293000Y-71806250D01*
X124293000Y-70757000D01*
X124547000Y-70757000D01*
X124547000Y-71806250D01*
X124705750Y-71965000D01*
X125121309Y-71965000D01*
X125354698Y-71868327D01*
X125533327Y-71689699D01*
X125630000Y-71456310D01*
X125630000Y-70915750D01*
X125471250Y-70757000D01*
X124547000Y-70757000D01*
X124293000Y-70757000D01*
X124273000Y-70757000D01*
X124273000Y-70503000D01*
X124293000Y-70503000D01*
X124293000Y-69453750D01*
X124547000Y-69453750D01*
X124547000Y-70503000D01*
X125471250Y-70503000D01*
X125630000Y-70344250D01*
X125630000Y-69803690D01*
X125533327Y-69570301D01*
X125354698Y-69391673D01*
X125323357Y-69378691D01*
X127285000Y-69378691D01*
X127285000Y-69794250D01*
X127443750Y-69953000D01*
X128493000Y-69953000D01*
X128493000Y-69028750D01*
X128747000Y-69028750D01*
X128747000Y-69953000D01*
X129796250Y-69953000D01*
X129955000Y-69794250D01*
X129955000Y-69378691D01*
X129858327Y-69145302D01*
X129679699Y-68966673D01*
X129446310Y-68870000D01*
X128905750Y-68870000D01*
X128747000Y-69028750D01*
X128493000Y-69028750D01*
X128334250Y-68870000D01*
X127793690Y-68870000D01*
X127560301Y-68966673D01*
X127381673Y-69145302D01*
X127285000Y-69378691D01*
X125323357Y-69378691D01*
X125121309Y-69295000D01*
X124705750Y-69295000D01*
X124547000Y-69453750D01*
X124293000Y-69453750D01*
X124134250Y-69295000D01*
X123718691Y-69295000D01*
X123485302Y-69391673D01*
X123330377Y-69546597D01*
X123329586Y-69545414D01*
X123130000Y-69412054D01*
X123130000Y-68865750D01*
X138215000Y-68865750D01*
X138215000Y-69556310D01*
X138311673Y-69789699D01*
X138490302Y-69968327D01*
X138723691Y-70065000D01*
X139414250Y-70065000D01*
X139573000Y-69906250D01*
X139573000Y-68707000D01*
X139827000Y-68707000D01*
X139827000Y-69906250D01*
X139985750Y-70065000D01*
X140676309Y-70065000D01*
X140909698Y-69968327D01*
X141088327Y-69789699D01*
X141185000Y-69556310D01*
X141185000Y-68865750D01*
X141026250Y-68707000D01*
X139827000Y-68707000D01*
X139573000Y-68707000D01*
X138373750Y-68707000D01*
X138215000Y-68865750D01*
X123130000Y-68865750D01*
X123130000Y-68194801D01*
X123861481Y-67463320D01*
X127466285Y-67463320D01*
X127595533Y-67756123D01*
X128295806Y-68024388D01*
X129045435Y-68004250D01*
X129644467Y-67756123D01*
X129773715Y-67463320D01*
X133966285Y-67463320D01*
X134095533Y-67756123D01*
X134795806Y-68024388D01*
X135545435Y-68004250D01*
X136144467Y-67756123D01*
X136273715Y-67463320D01*
X135120000Y-66309605D01*
X133966285Y-67463320D01*
X129773715Y-67463320D01*
X128620000Y-66309605D01*
X127466285Y-67463320D01*
X123861481Y-67463320D01*
X125518995Y-65805806D01*
X126725612Y-65805806D01*
X126745750Y-66555435D01*
X126993877Y-67154467D01*
X127286680Y-67283715D01*
X128440395Y-66130000D01*
X128799605Y-66130000D01*
X129953320Y-67283715D01*
X130246123Y-67154467D01*
X130514388Y-66454194D01*
X130496970Y-65805806D01*
X133225612Y-65805806D01*
X133245750Y-66555435D01*
X133493877Y-67154467D01*
X133786680Y-67283715D01*
X134940395Y-66130000D01*
X135299605Y-66130000D01*
X136453320Y-67283715D01*
X136746123Y-67154467D01*
X137014388Y-66454194D01*
X136994250Y-65704565D01*
X136746123Y-65105533D01*
X136453320Y-64976285D01*
X135299605Y-66130000D01*
X134940395Y-66130000D01*
X133786680Y-64976285D01*
X133493877Y-65105533D01*
X133225612Y-65805806D01*
X130496970Y-65805806D01*
X130494250Y-65704565D01*
X130246123Y-65105533D01*
X129953320Y-64976285D01*
X128799605Y-66130000D01*
X128440395Y-66130000D01*
X127286680Y-64976285D01*
X126993877Y-65105533D01*
X126725612Y-65805806D01*
X125518995Y-65805806D01*
X126528121Y-64796680D01*
X127466285Y-64796680D01*
X128620000Y-65950395D01*
X129773715Y-64796680D01*
X133966285Y-64796680D01*
X135120000Y-65950395D01*
X136273715Y-64796680D01*
X136144467Y-64503877D01*
X135444194Y-64235612D01*
X134694565Y-64255750D01*
X134095533Y-64503877D01*
X133966285Y-64796680D01*
X129773715Y-64796680D01*
X129644467Y-64503877D01*
X128944194Y-64235612D01*
X128194565Y-64255750D01*
X127595533Y-64503877D01*
X127466285Y-64796680D01*
X126528121Y-64796680D01*
X127937283Y-63387519D01*
X128245050Y-63515000D01*
X128994950Y-63515000D01*
X129687767Y-63228026D01*
X130218026Y-62697767D01*
X130505000Y-62004950D01*
X130505000Y-61255050D01*
X133235000Y-61255050D01*
X133235000Y-62004950D01*
X133521974Y-62697767D01*
X134052233Y-63228026D01*
X134745050Y-63515000D01*
X135494950Y-63515000D01*
X136187767Y-63228026D01*
X136211178Y-63204615D01*
X138215000Y-63204615D01*
X138215000Y-63795385D01*
X138441078Y-64341185D01*
X138858815Y-64758922D01*
X138885560Y-64770000D01*
X138858815Y-64781078D01*
X138441078Y-65198815D01*
X138215000Y-65744615D01*
X138215000Y-66335385D01*
X138441078Y-66881185D01*
X138675043Y-67115150D01*
X138490302Y-67191673D01*
X138311673Y-67370301D01*
X138215000Y-67603690D01*
X138215000Y-68294250D01*
X138373750Y-68453000D01*
X139573000Y-68453000D01*
X139573000Y-68433000D01*
X139827000Y-68433000D01*
X139827000Y-68453000D01*
X141026250Y-68453000D01*
X141185000Y-68294250D01*
X141185000Y-67603690D01*
X141088327Y-67370301D01*
X140909698Y-67191673D01*
X140724957Y-67115150D01*
X140958922Y-66881185D01*
X141185000Y-66335385D01*
X141185000Y-65744615D01*
X140958922Y-65198815D01*
X140541185Y-64781078D01*
X140514440Y-64770000D01*
X140541185Y-64758922D01*
X140958922Y-64341185D01*
X141185000Y-63795385D01*
X141185000Y-63204615D01*
X140958922Y-62658815D01*
X140541185Y-62241078D01*
X139995385Y-62015000D01*
X139404615Y-62015000D01*
X138858815Y-62241078D01*
X138441078Y-62658815D01*
X138215000Y-63204615D01*
X136211178Y-63204615D01*
X136718026Y-62697767D01*
X137005000Y-62004950D01*
X137005000Y-61255050D01*
X136718026Y-60562233D01*
X136187767Y-60031974D01*
X135494950Y-59745000D01*
X134745050Y-59745000D01*
X134052233Y-60031974D01*
X133521974Y-60562233D01*
X133235000Y-61255050D01*
X130505000Y-61255050D01*
X130218026Y-60562233D01*
X129687767Y-60031974D01*
X128994950Y-59745000D01*
X128245050Y-59745000D01*
X127552233Y-60031974D01*
X127021974Y-60562233D01*
X126735000Y-61255050D01*
X126735000Y-62004950D01*
X126862481Y-62312717D01*
X125569724Y-63605474D01*
X125471250Y-63507000D01*
X124547000Y-63507000D01*
X124547000Y-64556250D01*
X124582974Y-64592224D01*
X121885530Y-67289669D01*
X121822071Y-67332071D01*
X121654096Y-67583464D01*
X121610000Y-67805149D01*
X121610000Y-67805153D01*
X121595112Y-67880000D01*
X121610000Y-67954847D01*
X121610001Y-69412054D01*
X121410414Y-69545414D01*
X121215873Y-69836564D01*
X121147560Y-70179999D01*
X121147560Y-70360000D01*
X120658178Y-70360000D01*
X120450625Y-70049375D01*
X120152239Y-69850000D01*
X120450625Y-69650625D01*
X120778839Y-69159418D01*
X120894092Y-68580000D01*
X120778839Y-68000582D01*
X120450625Y-67509375D01*
X120131522Y-67296157D01*
X120261358Y-67235183D01*
X120651645Y-66806924D01*
X120821476Y-66396890D01*
X120700155Y-66167000D01*
X119507000Y-66167000D01*
X119507000Y-66187000D01*
X119253000Y-66187000D01*
X119253000Y-66167000D01*
X118059845Y-66167000D01*
X117938524Y-66396890D01*
X118108355Y-66806924D01*
X118498642Y-67235183D01*
X118628478Y-67296157D01*
X118309375Y-67509375D01*
X117981161Y-68000582D01*
X117865908Y-68580000D01*
X115010000Y-68580000D01*
X115010000Y-63500000D01*
X117865908Y-63500000D01*
X117981161Y-64079418D01*
X118309375Y-64570625D01*
X118628478Y-64783843D01*
X118498642Y-64844817D01*
X118108355Y-65273076D01*
X117938524Y-65683110D01*
X118059845Y-65913000D01*
X119253000Y-65913000D01*
X119253000Y-65893000D01*
X119507000Y-65893000D01*
X119507000Y-65913000D01*
X120700155Y-65913000D01*
X120821476Y-65683110D01*
X120651645Y-65273076D01*
X120261358Y-64844817D01*
X120131522Y-64783843D01*
X120450625Y-64570625D01*
X120658178Y-64260000D01*
X121273713Y-64260000D01*
X121410414Y-64464586D01*
X121701564Y-64659127D01*
X122044999Y-64727440D01*
X122695001Y-64727440D01*
X123038436Y-64659127D01*
X123329586Y-64464586D01*
X123330377Y-64463403D01*
X123485302Y-64618327D01*
X123718691Y-64715000D01*
X124134250Y-64715000D01*
X124293000Y-64556250D01*
X124293000Y-63507000D01*
X124273000Y-63507000D01*
X124273000Y-63253000D01*
X124293000Y-63253000D01*
X124293000Y-62203750D01*
X124547000Y-62203750D01*
X124547000Y-63253000D01*
X125471250Y-63253000D01*
X125630000Y-63094250D01*
X125630000Y-62553690D01*
X125533327Y-62320301D01*
X125354698Y-62141673D01*
X125121309Y-62045000D01*
X124705750Y-62045000D01*
X124547000Y-62203750D01*
X124293000Y-62203750D01*
X124134250Y-62045000D01*
X123718691Y-62045000D01*
X123485302Y-62141673D01*
X123330377Y-62296597D01*
X123329586Y-62295414D01*
X123038436Y-62100873D01*
X122695001Y-62032560D01*
X122044999Y-62032560D01*
X121701564Y-62100873D01*
X121410414Y-62295414D01*
X121215873Y-62586564D01*
X121185353Y-62740000D01*
X120658178Y-62740000D01*
X120450625Y-62429375D01*
X119959418Y-62101161D01*
X119526256Y-62015000D01*
X119233744Y-62015000D01*
X118800582Y-62101161D01*
X118309375Y-62429375D01*
X117981161Y-62920582D01*
X117865908Y-63500000D01*
X115010000Y-63500000D01*
X115010000Y-61159674D01*
X115375114Y-60561875D01*
X115417827Y-60512938D01*
X115355000Y-60664615D01*
X115355000Y-61255385D01*
X115581078Y-61801185D01*
X115998815Y-62218922D01*
X116544615Y-62445000D01*
X117135385Y-62445000D01*
X117681185Y-62218922D01*
X118098922Y-61801185D01*
X118325000Y-61255385D01*
X118325000Y-60664615D01*
X118098922Y-60118815D01*
X117681185Y-59701078D01*
X117135385Y-59475000D01*
X116544615Y-59475000D01*
X116422379Y-59525632D01*
X116583096Y-59394624D01*
X117033238Y-59130000D01*
X147120326Y-59130000D01*
X147718125Y-59495114D01*
X147718125Y-59495114D01*
G37*
X147718125Y-59495114D02*
X147767062Y-59537827D01*
X147615385Y-59475000D01*
X147024615Y-59475000D01*
X146478815Y-59701078D01*
X146061078Y-60118815D01*
X145835000Y-60664615D01*
X145835000Y-61255385D01*
X146061078Y-61801185D01*
X146478815Y-62218922D01*
X147024615Y-62445000D01*
X147615385Y-62445000D01*
X148161185Y-62218922D01*
X148578922Y-61801185D01*
X148805000Y-61255385D01*
X148805000Y-60664615D01*
X148754368Y-60542379D01*
X148885376Y-60703096D01*
X149150000Y-61153238D01*
X149150001Y-88700324D01*
X148784886Y-89298125D01*
X148742173Y-89347062D01*
X148805000Y-89195385D01*
X148805000Y-88604615D01*
X148578922Y-88058815D01*
X148161185Y-87641078D01*
X147615385Y-87415000D01*
X147024615Y-87415000D01*
X146478815Y-87641078D01*
X146061078Y-88058815D01*
X145835000Y-88604615D01*
X145835000Y-89195385D01*
X146061078Y-89741185D01*
X146478815Y-90158922D01*
X147024615Y-90385000D01*
X147615385Y-90385000D01*
X147737622Y-90334368D01*
X147576904Y-90465376D01*
X147126762Y-90730000D01*
X117039674Y-90730000D01*
X116441875Y-90364886D01*
X116392938Y-90322173D01*
X116544615Y-90385000D01*
X117135385Y-90385000D01*
X117681185Y-90158922D01*
X118098922Y-89741185D01*
X118325000Y-89195385D01*
X118325000Y-88604615D01*
X118098922Y-88058815D01*
X117681185Y-87641078D01*
X117135385Y-87415000D01*
X116544615Y-87415000D01*
X115998815Y-87641078D01*
X115581078Y-88058815D01*
X115355000Y-88604615D01*
X115355000Y-89195385D01*
X115405632Y-89317622D01*
X115274624Y-89156904D01*
X115010000Y-88706762D01*
X115010000Y-68580000D01*
X117865908Y-68580000D01*
X117981161Y-69159418D01*
X118309375Y-69650625D01*
X118607761Y-69850000D01*
X118309375Y-70049375D01*
X117981161Y-70540582D01*
X117865908Y-71120000D01*
X117981161Y-71699418D01*
X118309375Y-72190625D01*
X118607761Y-72390000D01*
X118309375Y-72589375D01*
X117981161Y-73080582D01*
X117865908Y-73660000D01*
X117981161Y-74239418D01*
X118309375Y-74730625D01*
X118607761Y-74930000D01*
X118309375Y-75129375D01*
X117981161Y-75620582D01*
X117865908Y-76200000D01*
X117981161Y-76779418D01*
X118309375Y-77270625D01*
X118607761Y-77470000D01*
X118309375Y-77669375D01*
X117981161Y-78160582D01*
X117865908Y-78740000D01*
X117981161Y-79319418D01*
X118309375Y-79810625D01*
X118607761Y-80010000D01*
X118309375Y-80209375D01*
X117981161Y-80700582D01*
X117865908Y-81280000D01*
X117981161Y-81859418D01*
X118309375Y-82350625D01*
X118607761Y-82550000D01*
X118309375Y-82749375D01*
X117981161Y-83240582D01*
X117865908Y-83820000D01*
X117981161Y-84399418D01*
X118309375Y-84890625D01*
X118591611Y-85079209D01*
X118538815Y-85101078D01*
X118121078Y-85518815D01*
X117895000Y-86064615D01*
X117895000Y-86655385D01*
X118121078Y-87201185D01*
X118538815Y-87618922D01*
X119084615Y-87845000D01*
X119675385Y-87845000D01*
X120221185Y-87618922D01*
X120638922Y-87201185D01*
X120672550Y-87120000D01*
X121305380Y-87120000D01*
X121340873Y-87298436D01*
X121535414Y-87589586D01*
X121633313Y-87655000D01*
X121535414Y-87720414D01*
X121340873Y-88011564D01*
X121272560Y-88354999D01*
X121272560Y-89005001D01*
X121340873Y-89348436D01*
X121535414Y-89639586D01*
X121826564Y-89834127D01*
X122169999Y-89902440D01*
X123070001Y-89902440D01*
X123413436Y-89834127D01*
X123704586Y-89639586D01*
X123899127Y-89348436D01*
X123926003Y-89213320D01*
X125716285Y-89213320D01*
X125845533Y-89506123D01*
X126545806Y-89774388D01*
X127295435Y-89754250D01*
X127894467Y-89506123D01*
X128023715Y-89213320D01*
X132216285Y-89213320D01*
X132345533Y-89506123D01*
X133045806Y-89774388D01*
X133795435Y-89754250D01*
X134394467Y-89506123D01*
X134523715Y-89213320D01*
X133370000Y-88059605D01*
X132216285Y-89213320D01*
X128023715Y-89213320D01*
X126870000Y-88059605D01*
X125716285Y-89213320D01*
X123926003Y-89213320D01*
X123967440Y-89005001D01*
X123967440Y-88407361D01*
X125072867Y-87301935D01*
X124975612Y-87555806D01*
X124995750Y-88305435D01*
X125243877Y-88904467D01*
X125536680Y-89033715D01*
X126690395Y-87880000D01*
X127049605Y-87880000D01*
X128203320Y-89033715D01*
X128496123Y-88904467D01*
X128764388Y-88204194D01*
X128746970Y-87555806D01*
X131475612Y-87555806D01*
X131495750Y-88305435D01*
X131743877Y-88904467D01*
X132036680Y-89033715D01*
X133190395Y-87880000D01*
X133549605Y-87880000D01*
X134703320Y-89033715D01*
X134996123Y-88904467D01*
X135264388Y-88204194D01*
X135244250Y-87454565D01*
X134996123Y-86855533D01*
X134703320Y-86726285D01*
X133549605Y-87880000D01*
X133190395Y-87880000D01*
X132036680Y-86726285D01*
X131743877Y-86855533D01*
X131475612Y-87555806D01*
X128746970Y-87555806D01*
X128744250Y-87454565D01*
X128496123Y-86855533D01*
X128203320Y-86726285D01*
X127049605Y-87880000D01*
X126690395Y-87880000D01*
X126676253Y-87865858D01*
X126855858Y-87686253D01*
X126870000Y-87700395D01*
X128023715Y-86546680D01*
X132216285Y-86546680D01*
X133370000Y-87700395D01*
X134523715Y-86546680D01*
X134394467Y-86253877D01*
X133694194Y-85985612D01*
X132944565Y-86005750D01*
X132345533Y-86253877D01*
X132216285Y-86546680D01*
X128023715Y-86546680D01*
X127894467Y-86253877D01*
X127194194Y-85985612D01*
X126444565Y-86005750D01*
X126315656Y-86059146D01*
X127109802Y-85265000D01*
X127244950Y-85265000D01*
X127937767Y-84978026D01*
X128468026Y-84447767D01*
X128755000Y-83754950D01*
X128755000Y-83005050D01*
X131485000Y-83005050D01*
X131485000Y-83754950D01*
X131771974Y-84447767D01*
X132302233Y-84978026D01*
X132995050Y-85265000D01*
X133744950Y-85265000D01*
X134437767Y-84978026D01*
X134968026Y-84447767D01*
X135255000Y-83754950D01*
X135255000Y-83005050D01*
X134968026Y-82312233D01*
X134437767Y-81781974D01*
X133744950Y-81495000D01*
X132995050Y-81495000D01*
X132302233Y-81781974D01*
X131771974Y-82312233D01*
X131485000Y-83005050D01*
X128755000Y-83005050D01*
X128468026Y-82312233D01*
X127937767Y-81781974D01*
X127244950Y-81495000D01*
X126495050Y-81495000D01*
X125802233Y-81781974D01*
X125271974Y-82312233D01*
X124985000Y-83005050D01*
X124985000Y-83754950D01*
X125271974Y-84447767D01*
X125524703Y-84700496D01*
X123959602Y-86265596D01*
X123899127Y-85961564D01*
X123704586Y-85670414D01*
X123681517Y-85655000D01*
X123704586Y-85639586D01*
X123899127Y-85348436D01*
X123967440Y-85005001D01*
X123967440Y-84354999D01*
X123899127Y-84011564D01*
X123704586Y-83720414D01*
X123606687Y-83655000D01*
X123704586Y-83589586D01*
X123899127Y-83298436D01*
X123967440Y-82955001D01*
X123967440Y-82304999D01*
X123899127Y-81961564D01*
X123704586Y-81670414D01*
X123413436Y-81475873D01*
X123380000Y-81469222D01*
X123380000Y-79930000D01*
X139372560Y-79930000D01*
X139372560Y-80830000D01*
X139421843Y-81077765D01*
X139562191Y-81287809D01*
X139772235Y-81428157D01*
X139860001Y-81445615D01*
X139860000Y-85369893D01*
X139711078Y-85518815D01*
X139485000Y-86064615D01*
X139485000Y-86655385D01*
X139711078Y-87201185D01*
X140128815Y-87618922D01*
X140674615Y-87845000D01*
X141265385Y-87845000D01*
X141811185Y-87618922D01*
X142228922Y-87201185D01*
X142455000Y-86655385D01*
X142455000Y-86064615D01*
X142228922Y-85518815D01*
X141811185Y-85101078D01*
X141380000Y-84922475D01*
X141380000Y-81445614D01*
X141467765Y-81428157D01*
X141677809Y-81287809D01*
X141818157Y-81077765D01*
X141867440Y-80830000D01*
X141867440Y-79930000D01*
X141818157Y-79682235D01*
X141677809Y-79472191D01*
X141467765Y-79331843D01*
X141220000Y-79282560D01*
X140020000Y-79282560D01*
X139772235Y-79331843D01*
X139562191Y-79472191D01*
X139421843Y-79682235D01*
X139372560Y-79930000D01*
X123380000Y-79930000D01*
X123380000Y-78740000D01*
X143265908Y-78740000D01*
X143381161Y-79319418D01*
X143709375Y-79810625D01*
X144007761Y-80010000D01*
X143709375Y-80209375D01*
X143381161Y-80700582D01*
X143265908Y-81280000D01*
X143381161Y-81859418D01*
X143709375Y-82350625D01*
X144007761Y-82550000D01*
X143709375Y-82749375D01*
X143381161Y-83240582D01*
X143265908Y-83820000D01*
X143381161Y-84399418D01*
X143709375Y-84890625D01*
X144007761Y-85090000D01*
X143709375Y-85289375D01*
X143381161Y-85780582D01*
X143265908Y-86360000D01*
X143381161Y-86939418D01*
X143709375Y-87430625D01*
X144200582Y-87758839D01*
X144633744Y-87845000D01*
X144926256Y-87845000D01*
X145359418Y-87758839D01*
X145850625Y-87430625D01*
X146178839Y-86939418D01*
X146294092Y-86360000D01*
X146178839Y-85780582D01*
X145850625Y-85289375D01*
X145552239Y-85090000D01*
X145850625Y-84890625D01*
X146178839Y-84399418D01*
X146294092Y-83820000D01*
X146178839Y-83240582D01*
X145850625Y-82749375D01*
X145552239Y-82550000D01*
X145850625Y-82350625D01*
X146178839Y-81859418D01*
X146294092Y-81280000D01*
X146178839Y-80700582D01*
X145850625Y-80209375D01*
X145552239Y-80010000D01*
X145850625Y-79810625D01*
X146178839Y-79319418D01*
X146294092Y-78740000D01*
X146178839Y-78160582D01*
X145850625Y-77669375D01*
X145531522Y-77456157D01*
X145661358Y-77395183D01*
X146051645Y-76966924D01*
X146221476Y-76556890D01*
X146100155Y-76327000D01*
X144907000Y-76327000D01*
X144907000Y-76347000D01*
X144653000Y-76347000D01*
X144653000Y-76327000D01*
X143459845Y-76327000D01*
X143338524Y-76556890D01*
X143508355Y-76966924D01*
X143898642Y-77395183D01*
X144028478Y-77456157D01*
X143709375Y-77669375D01*
X143381161Y-78160582D01*
X143265908Y-78740000D01*
X123380000Y-78740000D01*
X123380000Y-77740648D01*
X123394888Y-77665800D01*
X123380000Y-77590952D01*
X123380000Y-77590948D01*
X123335904Y-77369263D01*
X123335904Y-77369262D01*
X123210329Y-77181327D01*
X123167929Y-77117871D01*
X123104473Y-77075471D01*
X122744752Y-76715750D01*
X125035000Y-76715750D01*
X125035000Y-77131309D01*
X125131673Y-77364698D01*
X125310301Y-77543327D01*
X125543690Y-77640000D01*
X126084250Y-77640000D01*
X126243000Y-77481250D01*
X126243000Y-76557000D01*
X125193750Y-76557000D01*
X125035000Y-76715750D01*
X122744752Y-76715750D01*
X120574393Y-74545392D01*
X120778839Y-74239418D01*
X120815522Y-74054999D01*
X125022560Y-74054999D01*
X125022560Y-74705001D01*
X125090873Y-75048436D01*
X125285414Y-75339586D01*
X125286597Y-75340377D01*
X125131673Y-75495302D01*
X125035000Y-75728691D01*
X125035000Y-76144250D01*
X125193750Y-76303000D01*
X126243000Y-76303000D01*
X126243000Y-76283000D01*
X126497000Y-76283000D01*
X126497000Y-76303000D01*
X126517000Y-76303000D01*
X126517000Y-76557000D01*
X126497000Y-76557000D01*
X126497000Y-77481250D01*
X126655750Y-77640000D01*
X127196310Y-77640000D01*
X127429699Y-77543327D01*
X127564203Y-77408822D01*
X127826564Y-77584127D01*
X128169999Y-77652440D01*
X129070001Y-77652440D01*
X129413436Y-77584127D01*
X129704586Y-77389586D01*
X129899127Y-77098436D01*
X129967440Y-76755001D01*
X129967440Y-76630000D01*
X139372560Y-76630000D01*
X139372560Y-77530000D01*
X139421843Y-77777765D01*
X139562191Y-77987809D01*
X139772235Y-78128157D01*
X140020000Y-78177440D01*
X141220000Y-78177440D01*
X141467765Y-78128157D01*
X141677809Y-77987809D01*
X141818157Y-77777765D01*
X141867440Y-77530000D01*
X141867440Y-76630000D01*
X141832941Y-76456560D01*
X143649094Y-74640408D01*
X143709375Y-74730625D01*
X144028478Y-74943843D01*
X143898642Y-75004817D01*
X143508355Y-75433076D01*
X143338524Y-75843110D01*
X143459845Y-76073000D01*
X144653000Y-76073000D01*
X144653000Y-76053000D01*
X144907000Y-76053000D01*
X144907000Y-76073000D01*
X146100155Y-76073000D01*
X146221476Y-75843110D01*
X146051645Y-75433076D01*
X145661358Y-75004817D01*
X145531522Y-74943843D01*
X145850625Y-74730625D01*
X146178839Y-74239418D01*
X146294092Y-73660000D01*
X146178839Y-73080582D01*
X145850625Y-72589375D01*
X145552239Y-72390000D01*
X145850625Y-72190625D01*
X146178839Y-71699418D01*
X146294092Y-71120000D01*
X146178839Y-70540582D01*
X145850625Y-70049375D01*
X145552239Y-69850000D01*
X145850625Y-69650625D01*
X146178839Y-69159418D01*
X146294092Y-68580000D01*
X146178839Y-68000582D01*
X145850625Y-67509375D01*
X145552239Y-67310000D01*
X145850625Y-67110625D01*
X146178839Y-66619418D01*
X146294092Y-66040000D01*
X146178839Y-65460582D01*
X145850625Y-64969375D01*
X145568389Y-64780791D01*
X145621185Y-64758922D01*
X146038922Y-64341185D01*
X146265000Y-63795385D01*
X146265000Y-63204615D01*
X146038922Y-62658815D01*
X145621185Y-62241078D01*
X145075385Y-62015000D01*
X144484615Y-62015000D01*
X143938815Y-62241078D01*
X143521078Y-62658815D01*
X143295000Y-63204615D01*
X143295000Y-63795385D01*
X143521078Y-64341185D01*
X143938815Y-64758922D01*
X143991611Y-64780791D01*
X143709375Y-64969375D01*
X143381161Y-65460582D01*
X143265908Y-66040000D01*
X143381161Y-66619418D01*
X143709375Y-67110625D01*
X144007761Y-67310000D01*
X143709375Y-67509375D01*
X143381161Y-68000582D01*
X143265908Y-68580000D01*
X143381161Y-69159418D01*
X143709375Y-69650625D01*
X144007761Y-69850000D01*
X143709375Y-70049375D01*
X143381161Y-70540582D01*
X143265908Y-71120000D01*
X143381161Y-71699418D01*
X143709375Y-72190625D01*
X144007761Y-72390000D01*
X143709375Y-72589375D01*
X143505189Y-72894960D01*
X143479853Y-72900000D01*
X143479848Y-72900000D01*
X143258163Y-72944096D01*
X143006771Y-73112071D01*
X142964371Y-73175527D01*
X141755000Y-74384898D01*
X141755000Y-73415750D01*
X141596250Y-73257000D01*
X139997000Y-73257000D01*
X139997000Y-74856250D01*
X140155750Y-75015000D01*
X141124899Y-75015000D01*
X140653437Y-75486462D01*
X140620000Y-75479811D01*
X140545148Y-75494700D01*
X140323463Y-75538796D01*
X140072071Y-75706771D01*
X139904096Y-75958163D01*
X139894268Y-76007569D01*
X139772235Y-76031843D01*
X139562191Y-76172191D01*
X139421843Y-76382235D01*
X139372560Y-76630000D01*
X129967440Y-76630000D01*
X129967440Y-76576609D01*
X130017794Y-76566600D01*
X130017852Y-76566600D01*
X130096625Y-76550931D01*
X130239436Y-76522545D01*
X130239481Y-76522515D01*
X130239537Y-76522504D01*
X130367003Y-76437334D01*
X130427390Y-76396997D01*
X130427428Y-76396959D01*
X130490929Y-76354529D01*
X130533299Y-76291117D01*
X131297191Y-75527440D01*
X133370000Y-75527440D01*
X133617765Y-75478157D01*
X133827809Y-75337809D01*
X133968157Y-75127765D01*
X134017440Y-74880000D01*
X134017440Y-73880000D01*
X133968157Y-73632235D01*
X133827809Y-73422191D01*
X133818170Y-73415750D01*
X137985000Y-73415750D01*
X137985000Y-74506310D01*
X138081673Y-74739699D01*
X138260302Y-74918327D01*
X138493691Y-75015000D01*
X139584250Y-75015000D01*
X139743000Y-74856250D01*
X139743000Y-73257000D01*
X138143750Y-73257000D01*
X137985000Y-73415750D01*
X133818170Y-73415750D01*
X133617765Y-73281843D01*
X133370000Y-73232560D01*
X130870000Y-73232560D01*
X130622235Y-73281843D01*
X130479175Y-73377433D01*
X130400874Y-73345000D01*
X129989126Y-73345000D01*
X129726800Y-73453659D01*
X129704586Y-73420414D01*
X129457027Y-73255000D01*
X129704586Y-73089586D01*
X129729663Y-73052056D01*
X129987126Y-73158700D01*
X130398874Y-73158700D01*
X130765802Y-73006714D01*
X130870000Y-73027440D01*
X133370000Y-73027440D01*
X133617765Y-72978157D01*
X133827809Y-72837809D01*
X133968157Y-72627765D01*
X134017440Y-72380000D01*
X134017440Y-71753690D01*
X137985000Y-71753690D01*
X137985000Y-72844250D01*
X138143750Y-73003000D01*
X139743000Y-73003000D01*
X139743000Y-71403750D01*
X139997000Y-71403750D01*
X139997000Y-73003000D01*
X141596250Y-73003000D01*
X141755000Y-72844250D01*
X141755000Y-71753690D01*
X141658327Y-71520301D01*
X141479698Y-71341673D01*
X141246309Y-71245000D01*
X140155750Y-71245000D01*
X139997000Y-71403750D01*
X139743000Y-71403750D01*
X139584250Y-71245000D01*
X138493691Y-71245000D01*
X138260302Y-71341673D01*
X138081673Y-71520301D01*
X137985000Y-71753690D01*
X134017440Y-71753690D01*
X134017440Y-71380000D01*
X133968157Y-71132235D01*
X133827809Y-70922191D01*
X133617765Y-70781843D01*
X133370000Y-70732560D01*
X130870000Y-70732560D01*
X130622235Y-70781843D01*
X130412191Y-70922191D01*
X130300932Y-71088700D01*
X129987126Y-71088700D01*
X129723069Y-71198076D01*
X129704586Y-71170414D01*
X129703403Y-71169623D01*
X129858327Y-71014698D01*
X129955000Y-70781309D01*
X129955000Y-70365750D01*
X129796250Y-70207000D01*
X128747000Y-70207000D01*
X128747000Y-70227000D01*
X128493000Y-70227000D01*
X128493000Y-70207000D01*
X127443750Y-70207000D01*
X127285000Y-70365750D01*
X127285000Y-70781309D01*
X127381673Y-71014698D01*
X127536597Y-71169623D01*
X127535414Y-71170414D01*
X127340873Y-71461564D01*
X127272560Y-71804999D01*
X127272560Y-72455001D01*
X127340873Y-72798436D01*
X127535414Y-73089586D01*
X127782973Y-73255000D01*
X127535414Y-73420414D01*
X127495000Y-73480898D01*
X127454586Y-73420414D01*
X127163436Y-73225873D01*
X126820001Y-73157560D01*
X125919999Y-73157560D01*
X125576564Y-73225873D01*
X125285414Y-73420414D01*
X125090873Y-73711564D01*
X125022560Y-74054999D01*
X120815522Y-74054999D01*
X120894092Y-73660000D01*
X120778839Y-73080582D01*
X120450625Y-72589375D01*
X120152239Y-72390000D01*
X120450625Y-72190625D01*
X120658178Y-71880000D01*
X121657973Y-71880000D01*
X121701564Y-71909127D01*
X122044999Y-71977440D01*
X122695001Y-71977440D01*
X123038436Y-71909127D01*
X123329586Y-71714586D01*
X123330377Y-71713403D01*
X123485302Y-71868327D01*
X123718691Y-71965000D01*
X124134250Y-71965000D01*
X124293000Y-71806250D01*
X124293000Y-70757000D01*
X124547000Y-70757000D01*
X124547000Y-71806250D01*
X124705750Y-71965000D01*
X125121309Y-71965000D01*
X125354698Y-71868327D01*
X125533327Y-71689699D01*
X125630000Y-71456310D01*
X125630000Y-70915750D01*
X125471250Y-70757000D01*
X124547000Y-70757000D01*
X124293000Y-70757000D01*
X124273000Y-70757000D01*
X124273000Y-70503000D01*
X124293000Y-70503000D01*
X124293000Y-69453750D01*
X124547000Y-69453750D01*
X124547000Y-70503000D01*
X125471250Y-70503000D01*
X125630000Y-70344250D01*
X125630000Y-69803690D01*
X125533327Y-69570301D01*
X125354698Y-69391673D01*
X125323357Y-69378691D01*
X127285000Y-69378691D01*
X127285000Y-69794250D01*
X127443750Y-69953000D01*
X128493000Y-69953000D01*
X128493000Y-69028750D01*
X128747000Y-69028750D01*
X128747000Y-69953000D01*
X129796250Y-69953000D01*
X129955000Y-69794250D01*
X129955000Y-69378691D01*
X129858327Y-69145302D01*
X129679699Y-68966673D01*
X129446310Y-68870000D01*
X128905750Y-68870000D01*
X128747000Y-69028750D01*
X128493000Y-69028750D01*
X128334250Y-68870000D01*
X127793690Y-68870000D01*
X127560301Y-68966673D01*
X127381673Y-69145302D01*
X127285000Y-69378691D01*
X125323357Y-69378691D01*
X125121309Y-69295000D01*
X124705750Y-69295000D01*
X124547000Y-69453750D01*
X124293000Y-69453750D01*
X124134250Y-69295000D01*
X123718691Y-69295000D01*
X123485302Y-69391673D01*
X123330377Y-69546597D01*
X123329586Y-69545414D01*
X123130000Y-69412054D01*
X123130000Y-68865750D01*
X138215000Y-68865750D01*
X138215000Y-69556310D01*
X138311673Y-69789699D01*
X138490302Y-69968327D01*
X138723691Y-70065000D01*
X139414250Y-70065000D01*
X139573000Y-69906250D01*
X139573000Y-68707000D01*
X139827000Y-68707000D01*
X139827000Y-69906250D01*
X139985750Y-70065000D01*
X140676309Y-70065000D01*
X140909698Y-69968327D01*
X141088327Y-69789699D01*
X141185000Y-69556310D01*
X141185000Y-68865750D01*
X141026250Y-68707000D01*
X139827000Y-68707000D01*
X139573000Y-68707000D01*
X138373750Y-68707000D01*
X138215000Y-68865750D01*
X123130000Y-68865750D01*
X123130000Y-68194801D01*
X123861481Y-67463320D01*
X127466285Y-67463320D01*
X127595533Y-67756123D01*
X128295806Y-68024388D01*
X129045435Y-68004250D01*
X129644467Y-67756123D01*
X129773715Y-67463320D01*
X133966285Y-67463320D01*
X134095533Y-67756123D01*
X134795806Y-68024388D01*
X135545435Y-68004250D01*
X136144467Y-67756123D01*
X136273715Y-67463320D01*
X135120000Y-66309605D01*
X133966285Y-67463320D01*
X129773715Y-67463320D01*
X128620000Y-66309605D01*
X127466285Y-67463320D01*
X123861481Y-67463320D01*
X125518995Y-65805806D01*
X126725612Y-65805806D01*
X126745750Y-66555435D01*
X126993877Y-67154467D01*
X127286680Y-67283715D01*
X128440395Y-66130000D01*
X128799605Y-66130000D01*
X129953320Y-67283715D01*
X130246123Y-67154467D01*
X130514388Y-66454194D01*
X130496970Y-65805806D01*
X133225612Y-65805806D01*
X133245750Y-66555435D01*
X133493877Y-67154467D01*
X133786680Y-67283715D01*
X134940395Y-66130000D01*
X135299605Y-66130000D01*
X136453320Y-67283715D01*
X136746123Y-67154467D01*
X137014388Y-66454194D01*
X136994250Y-65704565D01*
X136746123Y-65105533D01*
X136453320Y-64976285D01*
X135299605Y-66130000D01*
X134940395Y-66130000D01*
X133786680Y-64976285D01*
X133493877Y-65105533D01*
X133225612Y-65805806D01*
X130496970Y-65805806D01*
X130494250Y-65704565D01*
X130246123Y-65105533D01*
X129953320Y-64976285D01*
X128799605Y-66130000D01*
X128440395Y-66130000D01*
X127286680Y-64976285D01*
X126993877Y-65105533D01*
X126725612Y-65805806D01*
X125518995Y-65805806D01*
X126528121Y-64796680D01*
X127466285Y-64796680D01*
X128620000Y-65950395D01*
X129773715Y-64796680D01*
X133966285Y-64796680D01*
X135120000Y-65950395D01*
X136273715Y-64796680D01*
X136144467Y-64503877D01*
X135444194Y-64235612D01*
X134694565Y-64255750D01*
X134095533Y-64503877D01*
X133966285Y-64796680D01*
X129773715Y-64796680D01*
X129644467Y-64503877D01*
X128944194Y-64235612D01*
X128194565Y-64255750D01*
X127595533Y-64503877D01*
X127466285Y-64796680D01*
X126528121Y-64796680D01*
X127937283Y-63387519D01*
X128245050Y-63515000D01*
X128994950Y-63515000D01*
X129687767Y-63228026D01*
X130218026Y-62697767D01*
X130505000Y-62004950D01*
X130505000Y-61255050D01*
X133235000Y-61255050D01*
X133235000Y-62004950D01*
X133521974Y-62697767D01*
X134052233Y-63228026D01*
X134745050Y-63515000D01*
X135494950Y-63515000D01*
X136187767Y-63228026D01*
X136211178Y-63204615D01*
X138215000Y-63204615D01*
X138215000Y-63795385D01*
X138441078Y-64341185D01*
X138858815Y-64758922D01*
X138885560Y-64770000D01*
X138858815Y-64781078D01*
X138441078Y-65198815D01*
X138215000Y-65744615D01*
X138215000Y-66335385D01*
X138441078Y-66881185D01*
X138675043Y-67115150D01*
X138490302Y-67191673D01*
X138311673Y-67370301D01*
X138215000Y-67603690D01*
X138215000Y-68294250D01*
X138373750Y-68453000D01*
X139573000Y-68453000D01*
X139573000Y-68433000D01*
X139827000Y-68433000D01*
X139827000Y-68453000D01*
X141026250Y-68453000D01*
X141185000Y-68294250D01*
X141185000Y-67603690D01*
X141088327Y-67370301D01*
X140909698Y-67191673D01*
X140724957Y-67115150D01*
X140958922Y-66881185D01*
X141185000Y-66335385D01*
X141185000Y-65744615D01*
X140958922Y-65198815D01*
X140541185Y-64781078D01*
X140514440Y-64770000D01*
X140541185Y-64758922D01*
X140958922Y-64341185D01*
X141185000Y-63795385D01*
X141185000Y-63204615D01*
X140958922Y-62658815D01*
X140541185Y-62241078D01*
X139995385Y-62015000D01*
X139404615Y-62015000D01*
X138858815Y-62241078D01*
X138441078Y-62658815D01*
X138215000Y-63204615D01*
X136211178Y-63204615D01*
X136718026Y-62697767D01*
X137005000Y-62004950D01*
X137005000Y-61255050D01*
X136718026Y-60562233D01*
X136187767Y-60031974D01*
X135494950Y-59745000D01*
X134745050Y-59745000D01*
X134052233Y-60031974D01*
X133521974Y-60562233D01*
X133235000Y-61255050D01*
X130505000Y-61255050D01*
X130218026Y-60562233D01*
X129687767Y-60031974D01*
X128994950Y-59745000D01*
X128245050Y-59745000D01*
X127552233Y-60031974D01*
X127021974Y-60562233D01*
X126735000Y-61255050D01*
X126735000Y-62004950D01*
X126862481Y-62312717D01*
X125569724Y-63605474D01*
X125471250Y-63507000D01*
X124547000Y-63507000D01*
X124547000Y-64556250D01*
X124582974Y-64592224D01*
X121885530Y-67289669D01*
X121822071Y-67332071D01*
X121654096Y-67583464D01*
X121610000Y-67805149D01*
X121610000Y-67805153D01*
X121595112Y-67880000D01*
X121610000Y-67954847D01*
X121610001Y-69412054D01*
X121410414Y-69545414D01*
X121215873Y-69836564D01*
X121147560Y-70179999D01*
X121147560Y-70360000D01*
X120658178Y-70360000D01*
X120450625Y-70049375D01*
X120152239Y-69850000D01*
X120450625Y-69650625D01*
X120778839Y-69159418D01*
X120894092Y-68580000D01*
X120778839Y-68000582D01*
X120450625Y-67509375D01*
X120131522Y-67296157D01*
X120261358Y-67235183D01*
X120651645Y-66806924D01*
X120821476Y-66396890D01*
X120700155Y-66167000D01*
X119507000Y-66167000D01*
X119507000Y-66187000D01*
X119253000Y-66187000D01*
X119253000Y-66167000D01*
X118059845Y-66167000D01*
X117938524Y-66396890D01*
X118108355Y-66806924D01*
X118498642Y-67235183D01*
X118628478Y-67296157D01*
X118309375Y-67509375D01*
X117981161Y-68000582D01*
X117865908Y-68580000D01*
X115010000Y-68580000D01*
X115010000Y-63500000D01*
X117865908Y-63500000D01*
X117981161Y-64079418D01*
X118309375Y-64570625D01*
X118628478Y-64783843D01*
X118498642Y-64844817D01*
X118108355Y-65273076D01*
X117938524Y-65683110D01*
X118059845Y-65913000D01*
X119253000Y-65913000D01*
X119253000Y-65893000D01*
X119507000Y-65893000D01*
X119507000Y-65913000D01*
X120700155Y-65913000D01*
X120821476Y-65683110D01*
X120651645Y-65273076D01*
X120261358Y-64844817D01*
X120131522Y-64783843D01*
X120450625Y-64570625D01*
X120658178Y-64260000D01*
X121273713Y-64260000D01*
X121410414Y-64464586D01*
X121701564Y-64659127D01*
X122044999Y-64727440D01*
X122695001Y-64727440D01*
X123038436Y-64659127D01*
X123329586Y-64464586D01*
X123330377Y-64463403D01*
X123485302Y-64618327D01*
X123718691Y-64715000D01*
X124134250Y-64715000D01*
X124293000Y-64556250D01*
X124293000Y-63507000D01*
X124273000Y-63507000D01*
X124273000Y-63253000D01*
X124293000Y-63253000D01*
X124293000Y-62203750D01*
X124547000Y-62203750D01*
X124547000Y-63253000D01*
X125471250Y-63253000D01*
X125630000Y-63094250D01*
X125630000Y-62553690D01*
X125533327Y-62320301D01*
X125354698Y-62141673D01*
X125121309Y-62045000D01*
X124705750Y-62045000D01*
X124547000Y-62203750D01*
X124293000Y-62203750D01*
X124134250Y-62045000D01*
X123718691Y-62045000D01*
X123485302Y-62141673D01*
X123330377Y-62296597D01*
X123329586Y-62295414D01*
X123038436Y-62100873D01*
X122695001Y-62032560D01*
X122044999Y-62032560D01*
X121701564Y-62100873D01*
X121410414Y-62295414D01*
X121215873Y-62586564D01*
X121185353Y-62740000D01*
X120658178Y-62740000D01*
X120450625Y-62429375D01*
X119959418Y-62101161D01*
X119526256Y-62015000D01*
X119233744Y-62015000D01*
X118800582Y-62101161D01*
X118309375Y-62429375D01*
X117981161Y-62920582D01*
X117865908Y-63500000D01*
X115010000Y-63500000D01*
X115010000Y-61159674D01*
X115375114Y-60561875D01*
X115417827Y-60512938D01*
X115355000Y-60664615D01*
X115355000Y-61255385D01*
X115581078Y-61801185D01*
X115998815Y-62218922D01*
X116544615Y-62445000D01*
X117135385Y-62445000D01*
X117681185Y-62218922D01*
X118098922Y-61801185D01*
X118325000Y-61255385D01*
X118325000Y-60664615D01*
X118098922Y-60118815D01*
X117681185Y-59701078D01*
X117135385Y-59475000D01*
X116544615Y-59475000D01*
X116422379Y-59525632D01*
X116583096Y-59394624D01*
X117033238Y-59130000D01*
X147120326Y-59130000D01*
X147718125Y-59495114D01*
G36*
X121860000Y-77980602D02*
X121860001Y-81469222D01*
X121826564Y-81475873D01*
X121535414Y-81670414D01*
X121340873Y-81961564D01*
X121272560Y-82304999D01*
X121272560Y-82955001D01*
X121340873Y-83298436D01*
X121535414Y-83589586D01*
X121633313Y-83655000D01*
X121535414Y-83720414D01*
X121340873Y-84011564D01*
X121272560Y-84354999D01*
X121272560Y-85005001D01*
X121340873Y-85348436D01*
X121508963Y-85600000D01*
X120672550Y-85600000D01*
X120638922Y-85518815D01*
X120221185Y-85101078D01*
X120168389Y-85079209D01*
X120450625Y-84890625D01*
X120778839Y-84399418D01*
X120894092Y-83820000D01*
X120778839Y-83240582D01*
X120450625Y-82749375D01*
X120152239Y-82550000D01*
X120450625Y-82350625D01*
X120778839Y-81859418D01*
X120894092Y-81280000D01*
X120778839Y-80700582D01*
X120450625Y-80209375D01*
X120152239Y-80010000D01*
X120450625Y-79810625D01*
X120778839Y-79319418D01*
X120894092Y-78740000D01*
X120778839Y-78160582D01*
X120450625Y-77669375D01*
X120152239Y-77470000D01*
X120450625Y-77270625D01*
X120730765Y-76851366D01*
X121860000Y-77980602D01*
X121860000Y-77980602D01*
G37*
X121860000Y-77980602D02*
X121860001Y-81469222D01*
X121826564Y-81475873D01*
X121535414Y-81670414D01*
X121340873Y-81961564D01*
X121272560Y-82304999D01*
X121272560Y-82955001D01*
X121340873Y-83298436D01*
X121535414Y-83589586D01*
X121633313Y-83655000D01*
X121535414Y-83720414D01*
X121340873Y-84011564D01*
X121272560Y-84354999D01*
X121272560Y-85005001D01*
X121340873Y-85348436D01*
X121508963Y-85600000D01*
X120672550Y-85600000D01*
X120638922Y-85518815D01*
X120221185Y-85101078D01*
X120168389Y-85079209D01*
X120450625Y-84890625D01*
X120778839Y-84399418D01*
X120894092Y-83820000D01*
X120778839Y-83240582D01*
X120450625Y-82749375D01*
X120152239Y-82550000D01*
X120450625Y-82350625D01*
X120778839Y-81859418D01*
X120894092Y-81280000D01*
X120778839Y-80700582D01*
X120450625Y-80209375D01*
X120152239Y-80010000D01*
X120450625Y-79810625D01*
X120778839Y-79319418D01*
X120894092Y-78740000D01*
X120778839Y-78160582D01*
X120450625Y-77669375D01*
X120152239Y-77470000D01*
X120450625Y-77270625D01*
X120730765Y-76851366D01*
X121860000Y-77980602D01*
G04 #@! TD*
M02*
