G04 #@! TF.GenerationSoftware,KiCad,Pcbnew,(5.0.2)-1*
G04 #@! TF.CreationDate,2019-07-18T11:35:20+03:00*
G04 #@! TF.ProjectId,Breakout Board STM32L041x6 - TSSOP20,42726561-6b6f-4757-9420-426f61726420,rev?*
G04 #@! TF.SameCoordinates,Original*
G04 #@! TF.FileFunction,Paste,Bot*
G04 #@! TF.FilePolarity,Positive*
%FSLAX46Y46*%
G04 Gerber Fmt 4.6, Leading zero omitted, Abs format (unit mm)*
G04 Created by KiCad (PCBNEW (5.0.2)-1) date 18-Jul-19 11:35:20*
%MOMM*%
%LPD*%
G01*
G04 APERTURE LIST*
%ADD10R,2.500000X2.500000*%
%ADD11R,2.500000X1.000000*%
%ADD12C,0.100000*%
%ADD13C,1.150000*%
%ADD14R,1.200000X0.900000*%
G04 APERTURE END LIST*
D10*
G04 #@! TO.C,Y1*
X139870000Y-73130000D03*
D11*
X132120000Y-74380000D03*
X132120000Y-71880000D03*
G04 #@! TD*
D12*
G04 #@! TO.C,C1*
G36*
X122719505Y-69931204D02*
X122743773Y-69934804D01*
X122767572Y-69940765D01*
X122790671Y-69949030D01*
X122812850Y-69959520D01*
X122833893Y-69972132D01*
X122853599Y-69986747D01*
X122871777Y-70003223D01*
X122888253Y-70021401D01*
X122902868Y-70041107D01*
X122915480Y-70062150D01*
X122925970Y-70084329D01*
X122934235Y-70107428D01*
X122940196Y-70131227D01*
X122943796Y-70155495D01*
X122945000Y-70179999D01*
X122945000Y-71080001D01*
X122943796Y-71104505D01*
X122940196Y-71128773D01*
X122934235Y-71152572D01*
X122925970Y-71175671D01*
X122915480Y-71197850D01*
X122902868Y-71218893D01*
X122888253Y-71238599D01*
X122871777Y-71256777D01*
X122853599Y-71273253D01*
X122833893Y-71287868D01*
X122812850Y-71300480D01*
X122790671Y-71310970D01*
X122767572Y-71319235D01*
X122743773Y-71325196D01*
X122719505Y-71328796D01*
X122695001Y-71330000D01*
X122044999Y-71330000D01*
X122020495Y-71328796D01*
X121996227Y-71325196D01*
X121972428Y-71319235D01*
X121949329Y-71310970D01*
X121927150Y-71300480D01*
X121906107Y-71287868D01*
X121886401Y-71273253D01*
X121868223Y-71256777D01*
X121851747Y-71238599D01*
X121837132Y-71218893D01*
X121824520Y-71197850D01*
X121814030Y-71175671D01*
X121805765Y-71152572D01*
X121799804Y-71128773D01*
X121796204Y-71104505D01*
X121795000Y-71080001D01*
X121795000Y-70179999D01*
X121796204Y-70155495D01*
X121799804Y-70131227D01*
X121805765Y-70107428D01*
X121814030Y-70084329D01*
X121824520Y-70062150D01*
X121837132Y-70041107D01*
X121851747Y-70021401D01*
X121868223Y-70003223D01*
X121886401Y-69986747D01*
X121906107Y-69972132D01*
X121927150Y-69959520D01*
X121949329Y-69949030D01*
X121972428Y-69940765D01*
X121996227Y-69934804D01*
X122020495Y-69931204D01*
X122044999Y-69930000D01*
X122695001Y-69930000D01*
X122719505Y-69931204D01*
X122719505Y-69931204D01*
G37*
D13*
X122370000Y-70630000D03*
D12*
G36*
X124769505Y-69931204D02*
X124793773Y-69934804D01*
X124817572Y-69940765D01*
X124840671Y-69949030D01*
X124862850Y-69959520D01*
X124883893Y-69972132D01*
X124903599Y-69986747D01*
X124921777Y-70003223D01*
X124938253Y-70021401D01*
X124952868Y-70041107D01*
X124965480Y-70062150D01*
X124975970Y-70084329D01*
X124984235Y-70107428D01*
X124990196Y-70131227D01*
X124993796Y-70155495D01*
X124995000Y-70179999D01*
X124995000Y-71080001D01*
X124993796Y-71104505D01*
X124990196Y-71128773D01*
X124984235Y-71152572D01*
X124975970Y-71175671D01*
X124965480Y-71197850D01*
X124952868Y-71218893D01*
X124938253Y-71238599D01*
X124921777Y-71256777D01*
X124903599Y-71273253D01*
X124883893Y-71287868D01*
X124862850Y-71300480D01*
X124840671Y-71310970D01*
X124817572Y-71319235D01*
X124793773Y-71325196D01*
X124769505Y-71328796D01*
X124745001Y-71330000D01*
X124094999Y-71330000D01*
X124070495Y-71328796D01*
X124046227Y-71325196D01*
X124022428Y-71319235D01*
X123999329Y-71310970D01*
X123977150Y-71300480D01*
X123956107Y-71287868D01*
X123936401Y-71273253D01*
X123918223Y-71256777D01*
X123901747Y-71238599D01*
X123887132Y-71218893D01*
X123874520Y-71197850D01*
X123864030Y-71175671D01*
X123855765Y-71152572D01*
X123849804Y-71128773D01*
X123846204Y-71104505D01*
X123845000Y-71080001D01*
X123845000Y-70179999D01*
X123846204Y-70155495D01*
X123849804Y-70131227D01*
X123855765Y-70107428D01*
X123864030Y-70084329D01*
X123874520Y-70062150D01*
X123887132Y-70041107D01*
X123901747Y-70021401D01*
X123918223Y-70003223D01*
X123936401Y-69986747D01*
X123956107Y-69972132D01*
X123977150Y-69959520D01*
X123999329Y-69949030D01*
X124022428Y-69940765D01*
X124046227Y-69934804D01*
X124070495Y-69931204D01*
X124094999Y-69930000D01*
X124745001Y-69930000D01*
X124769505Y-69931204D01*
X124769505Y-69931204D01*
G37*
D13*
X124420000Y-70630000D03*
G04 #@! TD*
D12*
G04 #@! TO.C,C6*
G36*
X129094505Y-71556204D02*
X129118773Y-71559804D01*
X129142572Y-71565765D01*
X129165671Y-71574030D01*
X129187850Y-71584520D01*
X129208893Y-71597132D01*
X129228599Y-71611747D01*
X129246777Y-71628223D01*
X129263253Y-71646401D01*
X129277868Y-71666107D01*
X129290480Y-71687150D01*
X129300970Y-71709329D01*
X129309235Y-71732428D01*
X129315196Y-71756227D01*
X129318796Y-71780495D01*
X129320000Y-71804999D01*
X129320000Y-72455001D01*
X129318796Y-72479505D01*
X129315196Y-72503773D01*
X129309235Y-72527572D01*
X129300970Y-72550671D01*
X129290480Y-72572850D01*
X129277868Y-72593893D01*
X129263253Y-72613599D01*
X129246777Y-72631777D01*
X129228599Y-72648253D01*
X129208893Y-72662868D01*
X129187850Y-72675480D01*
X129165671Y-72685970D01*
X129142572Y-72694235D01*
X129118773Y-72700196D01*
X129094505Y-72703796D01*
X129070001Y-72705000D01*
X128169999Y-72705000D01*
X128145495Y-72703796D01*
X128121227Y-72700196D01*
X128097428Y-72694235D01*
X128074329Y-72685970D01*
X128052150Y-72675480D01*
X128031107Y-72662868D01*
X128011401Y-72648253D01*
X127993223Y-72631777D01*
X127976747Y-72613599D01*
X127962132Y-72593893D01*
X127949520Y-72572850D01*
X127939030Y-72550671D01*
X127930765Y-72527572D01*
X127924804Y-72503773D01*
X127921204Y-72479505D01*
X127920000Y-72455001D01*
X127920000Y-71804999D01*
X127921204Y-71780495D01*
X127924804Y-71756227D01*
X127930765Y-71732428D01*
X127939030Y-71709329D01*
X127949520Y-71687150D01*
X127962132Y-71666107D01*
X127976747Y-71646401D01*
X127993223Y-71628223D01*
X128011401Y-71611747D01*
X128031107Y-71597132D01*
X128052150Y-71584520D01*
X128074329Y-71574030D01*
X128097428Y-71565765D01*
X128121227Y-71559804D01*
X128145495Y-71556204D01*
X128169999Y-71555000D01*
X129070001Y-71555000D01*
X129094505Y-71556204D01*
X129094505Y-71556204D01*
G37*
D13*
X128620000Y-72130000D03*
D12*
G36*
X129094505Y-69506204D02*
X129118773Y-69509804D01*
X129142572Y-69515765D01*
X129165671Y-69524030D01*
X129187850Y-69534520D01*
X129208893Y-69547132D01*
X129228599Y-69561747D01*
X129246777Y-69578223D01*
X129263253Y-69596401D01*
X129277868Y-69616107D01*
X129290480Y-69637150D01*
X129300970Y-69659329D01*
X129309235Y-69682428D01*
X129315196Y-69706227D01*
X129318796Y-69730495D01*
X129320000Y-69754999D01*
X129320000Y-70405001D01*
X129318796Y-70429505D01*
X129315196Y-70453773D01*
X129309235Y-70477572D01*
X129300970Y-70500671D01*
X129290480Y-70522850D01*
X129277868Y-70543893D01*
X129263253Y-70563599D01*
X129246777Y-70581777D01*
X129228599Y-70598253D01*
X129208893Y-70612868D01*
X129187850Y-70625480D01*
X129165671Y-70635970D01*
X129142572Y-70644235D01*
X129118773Y-70650196D01*
X129094505Y-70653796D01*
X129070001Y-70655000D01*
X128169999Y-70655000D01*
X128145495Y-70653796D01*
X128121227Y-70650196D01*
X128097428Y-70644235D01*
X128074329Y-70635970D01*
X128052150Y-70625480D01*
X128031107Y-70612868D01*
X128011401Y-70598253D01*
X127993223Y-70581777D01*
X127976747Y-70563599D01*
X127962132Y-70543893D01*
X127949520Y-70522850D01*
X127939030Y-70500671D01*
X127930765Y-70477572D01*
X127924804Y-70453773D01*
X127921204Y-70429505D01*
X127920000Y-70405001D01*
X127920000Y-69754999D01*
X127921204Y-69730495D01*
X127924804Y-69706227D01*
X127930765Y-69682428D01*
X127939030Y-69659329D01*
X127949520Y-69637150D01*
X127962132Y-69616107D01*
X127976747Y-69596401D01*
X127993223Y-69578223D01*
X128011401Y-69561747D01*
X128031107Y-69547132D01*
X128052150Y-69534520D01*
X128074329Y-69524030D01*
X128097428Y-69515765D01*
X128121227Y-69509804D01*
X128145495Y-69506204D01*
X128169999Y-69505000D01*
X129070001Y-69505000D01*
X129094505Y-69506204D01*
X129094505Y-69506204D01*
G37*
D13*
X128620000Y-70080000D03*
G04 #@! TD*
D12*
G04 #@! TO.C,C7*
G36*
X126844505Y-75856204D02*
X126868773Y-75859804D01*
X126892572Y-75865765D01*
X126915671Y-75874030D01*
X126937850Y-75884520D01*
X126958893Y-75897132D01*
X126978599Y-75911747D01*
X126996777Y-75928223D01*
X127013253Y-75946401D01*
X127027868Y-75966107D01*
X127040480Y-75987150D01*
X127050970Y-76009329D01*
X127059235Y-76032428D01*
X127065196Y-76056227D01*
X127068796Y-76080495D01*
X127070000Y-76104999D01*
X127070000Y-76755001D01*
X127068796Y-76779505D01*
X127065196Y-76803773D01*
X127059235Y-76827572D01*
X127050970Y-76850671D01*
X127040480Y-76872850D01*
X127027868Y-76893893D01*
X127013253Y-76913599D01*
X126996777Y-76931777D01*
X126978599Y-76948253D01*
X126958893Y-76962868D01*
X126937850Y-76975480D01*
X126915671Y-76985970D01*
X126892572Y-76994235D01*
X126868773Y-77000196D01*
X126844505Y-77003796D01*
X126820001Y-77005000D01*
X125919999Y-77005000D01*
X125895495Y-77003796D01*
X125871227Y-77000196D01*
X125847428Y-76994235D01*
X125824329Y-76985970D01*
X125802150Y-76975480D01*
X125781107Y-76962868D01*
X125761401Y-76948253D01*
X125743223Y-76931777D01*
X125726747Y-76913599D01*
X125712132Y-76893893D01*
X125699520Y-76872850D01*
X125689030Y-76850671D01*
X125680765Y-76827572D01*
X125674804Y-76803773D01*
X125671204Y-76779505D01*
X125670000Y-76755001D01*
X125670000Y-76104999D01*
X125671204Y-76080495D01*
X125674804Y-76056227D01*
X125680765Y-76032428D01*
X125689030Y-76009329D01*
X125699520Y-75987150D01*
X125712132Y-75966107D01*
X125726747Y-75946401D01*
X125743223Y-75928223D01*
X125761401Y-75911747D01*
X125781107Y-75897132D01*
X125802150Y-75884520D01*
X125824329Y-75874030D01*
X125847428Y-75865765D01*
X125871227Y-75859804D01*
X125895495Y-75856204D01*
X125919999Y-75855000D01*
X126820001Y-75855000D01*
X126844505Y-75856204D01*
X126844505Y-75856204D01*
G37*
D13*
X126370000Y-76430000D03*
D12*
G36*
X126844505Y-73806204D02*
X126868773Y-73809804D01*
X126892572Y-73815765D01*
X126915671Y-73824030D01*
X126937850Y-73834520D01*
X126958893Y-73847132D01*
X126978599Y-73861747D01*
X126996777Y-73878223D01*
X127013253Y-73896401D01*
X127027868Y-73916107D01*
X127040480Y-73937150D01*
X127050970Y-73959329D01*
X127059235Y-73982428D01*
X127065196Y-74006227D01*
X127068796Y-74030495D01*
X127070000Y-74054999D01*
X127070000Y-74705001D01*
X127068796Y-74729505D01*
X127065196Y-74753773D01*
X127059235Y-74777572D01*
X127050970Y-74800671D01*
X127040480Y-74822850D01*
X127027868Y-74843893D01*
X127013253Y-74863599D01*
X126996777Y-74881777D01*
X126978599Y-74898253D01*
X126958893Y-74912868D01*
X126937850Y-74925480D01*
X126915671Y-74935970D01*
X126892572Y-74944235D01*
X126868773Y-74950196D01*
X126844505Y-74953796D01*
X126820001Y-74955000D01*
X125919999Y-74955000D01*
X125895495Y-74953796D01*
X125871227Y-74950196D01*
X125847428Y-74944235D01*
X125824329Y-74935970D01*
X125802150Y-74925480D01*
X125781107Y-74912868D01*
X125761401Y-74898253D01*
X125743223Y-74881777D01*
X125726747Y-74863599D01*
X125712132Y-74843893D01*
X125699520Y-74822850D01*
X125689030Y-74800671D01*
X125680765Y-74777572D01*
X125674804Y-74753773D01*
X125671204Y-74729505D01*
X125670000Y-74705001D01*
X125670000Y-74054999D01*
X125671204Y-74030495D01*
X125674804Y-74006227D01*
X125680765Y-73982428D01*
X125689030Y-73959329D01*
X125699520Y-73937150D01*
X125712132Y-73916107D01*
X125726747Y-73896401D01*
X125743223Y-73878223D01*
X125761401Y-73861747D01*
X125781107Y-73847132D01*
X125802150Y-73834520D01*
X125824329Y-73824030D01*
X125847428Y-73815765D01*
X125871227Y-73809804D01*
X125895495Y-73806204D01*
X125919999Y-73805000D01*
X126820001Y-73805000D01*
X126844505Y-73806204D01*
X126844505Y-73806204D01*
G37*
D13*
X126370000Y-74380000D03*
G04 #@! TD*
D14*
G04 #@! TO.C,D3*
X140620000Y-77080000D03*
X140620000Y-80380000D03*
G04 #@! TD*
D12*
G04 #@! TO.C,R1*
G36*
X124769505Y-62681204D02*
X124793773Y-62684804D01*
X124817572Y-62690765D01*
X124840671Y-62699030D01*
X124862850Y-62709520D01*
X124883893Y-62722132D01*
X124903599Y-62736747D01*
X124921777Y-62753223D01*
X124938253Y-62771401D01*
X124952868Y-62791107D01*
X124965480Y-62812150D01*
X124975970Y-62834329D01*
X124984235Y-62857428D01*
X124990196Y-62881227D01*
X124993796Y-62905495D01*
X124995000Y-62929999D01*
X124995000Y-63830001D01*
X124993796Y-63854505D01*
X124990196Y-63878773D01*
X124984235Y-63902572D01*
X124975970Y-63925671D01*
X124965480Y-63947850D01*
X124952868Y-63968893D01*
X124938253Y-63988599D01*
X124921777Y-64006777D01*
X124903599Y-64023253D01*
X124883893Y-64037868D01*
X124862850Y-64050480D01*
X124840671Y-64060970D01*
X124817572Y-64069235D01*
X124793773Y-64075196D01*
X124769505Y-64078796D01*
X124745001Y-64080000D01*
X124094999Y-64080000D01*
X124070495Y-64078796D01*
X124046227Y-64075196D01*
X124022428Y-64069235D01*
X123999329Y-64060970D01*
X123977150Y-64050480D01*
X123956107Y-64037868D01*
X123936401Y-64023253D01*
X123918223Y-64006777D01*
X123901747Y-63988599D01*
X123887132Y-63968893D01*
X123874520Y-63947850D01*
X123864030Y-63925671D01*
X123855765Y-63902572D01*
X123849804Y-63878773D01*
X123846204Y-63854505D01*
X123845000Y-63830001D01*
X123845000Y-62929999D01*
X123846204Y-62905495D01*
X123849804Y-62881227D01*
X123855765Y-62857428D01*
X123864030Y-62834329D01*
X123874520Y-62812150D01*
X123887132Y-62791107D01*
X123901747Y-62771401D01*
X123918223Y-62753223D01*
X123936401Y-62736747D01*
X123956107Y-62722132D01*
X123977150Y-62709520D01*
X123999329Y-62699030D01*
X124022428Y-62690765D01*
X124046227Y-62684804D01*
X124070495Y-62681204D01*
X124094999Y-62680000D01*
X124745001Y-62680000D01*
X124769505Y-62681204D01*
X124769505Y-62681204D01*
G37*
D13*
X124420000Y-63380000D03*
D12*
G36*
X122719505Y-62681204D02*
X122743773Y-62684804D01*
X122767572Y-62690765D01*
X122790671Y-62699030D01*
X122812850Y-62709520D01*
X122833893Y-62722132D01*
X122853599Y-62736747D01*
X122871777Y-62753223D01*
X122888253Y-62771401D01*
X122902868Y-62791107D01*
X122915480Y-62812150D01*
X122925970Y-62834329D01*
X122934235Y-62857428D01*
X122940196Y-62881227D01*
X122943796Y-62905495D01*
X122945000Y-62929999D01*
X122945000Y-63830001D01*
X122943796Y-63854505D01*
X122940196Y-63878773D01*
X122934235Y-63902572D01*
X122925970Y-63925671D01*
X122915480Y-63947850D01*
X122902868Y-63968893D01*
X122888253Y-63988599D01*
X122871777Y-64006777D01*
X122853599Y-64023253D01*
X122833893Y-64037868D01*
X122812850Y-64050480D01*
X122790671Y-64060970D01*
X122767572Y-64069235D01*
X122743773Y-64075196D01*
X122719505Y-64078796D01*
X122695001Y-64080000D01*
X122044999Y-64080000D01*
X122020495Y-64078796D01*
X121996227Y-64075196D01*
X121972428Y-64069235D01*
X121949329Y-64060970D01*
X121927150Y-64050480D01*
X121906107Y-64037868D01*
X121886401Y-64023253D01*
X121868223Y-64006777D01*
X121851747Y-63988599D01*
X121837132Y-63968893D01*
X121824520Y-63947850D01*
X121814030Y-63925671D01*
X121805765Y-63902572D01*
X121799804Y-63878773D01*
X121796204Y-63854505D01*
X121795000Y-63830001D01*
X121795000Y-62929999D01*
X121796204Y-62905495D01*
X121799804Y-62881227D01*
X121805765Y-62857428D01*
X121814030Y-62834329D01*
X121824520Y-62812150D01*
X121837132Y-62791107D01*
X121851747Y-62771401D01*
X121868223Y-62753223D01*
X121886401Y-62736747D01*
X121906107Y-62722132D01*
X121927150Y-62709520D01*
X121949329Y-62699030D01*
X121972428Y-62690765D01*
X121996227Y-62684804D01*
X122020495Y-62681204D01*
X122044999Y-62680000D01*
X122695001Y-62680000D01*
X122719505Y-62681204D01*
X122719505Y-62681204D01*
G37*
D13*
X122370000Y-63380000D03*
G04 #@! TD*
D12*
G04 #@! TO.C,R4*
G36*
X129094505Y-75856204D02*
X129118773Y-75859804D01*
X129142572Y-75865765D01*
X129165671Y-75874030D01*
X129187850Y-75884520D01*
X129208893Y-75897132D01*
X129228599Y-75911747D01*
X129246777Y-75928223D01*
X129263253Y-75946401D01*
X129277868Y-75966107D01*
X129290480Y-75987150D01*
X129300970Y-76009329D01*
X129309235Y-76032428D01*
X129315196Y-76056227D01*
X129318796Y-76080495D01*
X129320000Y-76104999D01*
X129320000Y-76755001D01*
X129318796Y-76779505D01*
X129315196Y-76803773D01*
X129309235Y-76827572D01*
X129300970Y-76850671D01*
X129290480Y-76872850D01*
X129277868Y-76893893D01*
X129263253Y-76913599D01*
X129246777Y-76931777D01*
X129228599Y-76948253D01*
X129208893Y-76962868D01*
X129187850Y-76975480D01*
X129165671Y-76985970D01*
X129142572Y-76994235D01*
X129118773Y-77000196D01*
X129094505Y-77003796D01*
X129070001Y-77005000D01*
X128169999Y-77005000D01*
X128145495Y-77003796D01*
X128121227Y-77000196D01*
X128097428Y-76994235D01*
X128074329Y-76985970D01*
X128052150Y-76975480D01*
X128031107Y-76962868D01*
X128011401Y-76948253D01*
X127993223Y-76931777D01*
X127976747Y-76913599D01*
X127962132Y-76893893D01*
X127949520Y-76872850D01*
X127939030Y-76850671D01*
X127930765Y-76827572D01*
X127924804Y-76803773D01*
X127921204Y-76779505D01*
X127920000Y-76755001D01*
X127920000Y-76104999D01*
X127921204Y-76080495D01*
X127924804Y-76056227D01*
X127930765Y-76032428D01*
X127939030Y-76009329D01*
X127949520Y-75987150D01*
X127962132Y-75966107D01*
X127976747Y-75946401D01*
X127993223Y-75928223D01*
X128011401Y-75911747D01*
X128031107Y-75897132D01*
X128052150Y-75884520D01*
X128074329Y-75874030D01*
X128097428Y-75865765D01*
X128121227Y-75859804D01*
X128145495Y-75856204D01*
X128169999Y-75855000D01*
X129070001Y-75855000D01*
X129094505Y-75856204D01*
X129094505Y-75856204D01*
G37*
D13*
X128620000Y-76430000D03*
D12*
G36*
X129094505Y-73806204D02*
X129118773Y-73809804D01*
X129142572Y-73815765D01*
X129165671Y-73824030D01*
X129187850Y-73834520D01*
X129208893Y-73847132D01*
X129228599Y-73861747D01*
X129246777Y-73878223D01*
X129263253Y-73896401D01*
X129277868Y-73916107D01*
X129290480Y-73937150D01*
X129300970Y-73959329D01*
X129309235Y-73982428D01*
X129315196Y-74006227D01*
X129318796Y-74030495D01*
X129320000Y-74054999D01*
X129320000Y-74705001D01*
X129318796Y-74729505D01*
X129315196Y-74753773D01*
X129309235Y-74777572D01*
X129300970Y-74800671D01*
X129290480Y-74822850D01*
X129277868Y-74843893D01*
X129263253Y-74863599D01*
X129246777Y-74881777D01*
X129228599Y-74898253D01*
X129208893Y-74912868D01*
X129187850Y-74925480D01*
X129165671Y-74935970D01*
X129142572Y-74944235D01*
X129118773Y-74950196D01*
X129094505Y-74953796D01*
X129070001Y-74955000D01*
X128169999Y-74955000D01*
X128145495Y-74953796D01*
X128121227Y-74950196D01*
X128097428Y-74944235D01*
X128074329Y-74935970D01*
X128052150Y-74925480D01*
X128031107Y-74912868D01*
X128011401Y-74898253D01*
X127993223Y-74881777D01*
X127976747Y-74863599D01*
X127962132Y-74843893D01*
X127949520Y-74822850D01*
X127939030Y-74800671D01*
X127930765Y-74777572D01*
X127924804Y-74753773D01*
X127921204Y-74729505D01*
X127920000Y-74705001D01*
X127920000Y-74054999D01*
X127921204Y-74030495D01*
X127924804Y-74006227D01*
X127930765Y-73982428D01*
X127939030Y-73959329D01*
X127949520Y-73937150D01*
X127962132Y-73916107D01*
X127976747Y-73896401D01*
X127993223Y-73878223D01*
X128011401Y-73861747D01*
X128031107Y-73847132D01*
X128052150Y-73834520D01*
X128074329Y-73824030D01*
X128097428Y-73815765D01*
X128121227Y-73809804D01*
X128145495Y-73806204D01*
X128169999Y-73805000D01*
X129070001Y-73805000D01*
X129094505Y-73806204D01*
X129094505Y-73806204D01*
G37*
D13*
X128620000Y-74380000D03*
G04 #@! TD*
D12*
G04 #@! TO.C,R5*
G36*
X123094505Y-86056204D02*
X123118773Y-86059804D01*
X123142572Y-86065765D01*
X123165671Y-86074030D01*
X123187850Y-86084520D01*
X123208893Y-86097132D01*
X123228599Y-86111747D01*
X123246777Y-86128223D01*
X123263253Y-86146401D01*
X123277868Y-86166107D01*
X123290480Y-86187150D01*
X123300970Y-86209329D01*
X123309235Y-86232428D01*
X123315196Y-86256227D01*
X123318796Y-86280495D01*
X123320000Y-86304999D01*
X123320000Y-86955001D01*
X123318796Y-86979505D01*
X123315196Y-87003773D01*
X123309235Y-87027572D01*
X123300970Y-87050671D01*
X123290480Y-87072850D01*
X123277868Y-87093893D01*
X123263253Y-87113599D01*
X123246777Y-87131777D01*
X123228599Y-87148253D01*
X123208893Y-87162868D01*
X123187850Y-87175480D01*
X123165671Y-87185970D01*
X123142572Y-87194235D01*
X123118773Y-87200196D01*
X123094505Y-87203796D01*
X123070001Y-87205000D01*
X122169999Y-87205000D01*
X122145495Y-87203796D01*
X122121227Y-87200196D01*
X122097428Y-87194235D01*
X122074329Y-87185970D01*
X122052150Y-87175480D01*
X122031107Y-87162868D01*
X122011401Y-87148253D01*
X121993223Y-87131777D01*
X121976747Y-87113599D01*
X121962132Y-87093893D01*
X121949520Y-87072850D01*
X121939030Y-87050671D01*
X121930765Y-87027572D01*
X121924804Y-87003773D01*
X121921204Y-86979505D01*
X121920000Y-86955001D01*
X121920000Y-86304999D01*
X121921204Y-86280495D01*
X121924804Y-86256227D01*
X121930765Y-86232428D01*
X121939030Y-86209329D01*
X121949520Y-86187150D01*
X121962132Y-86166107D01*
X121976747Y-86146401D01*
X121993223Y-86128223D01*
X122011401Y-86111747D01*
X122031107Y-86097132D01*
X122052150Y-86084520D01*
X122074329Y-86074030D01*
X122097428Y-86065765D01*
X122121227Y-86059804D01*
X122145495Y-86056204D01*
X122169999Y-86055000D01*
X123070001Y-86055000D01*
X123094505Y-86056204D01*
X123094505Y-86056204D01*
G37*
D13*
X122620000Y-86630000D03*
D12*
G36*
X123094505Y-88106204D02*
X123118773Y-88109804D01*
X123142572Y-88115765D01*
X123165671Y-88124030D01*
X123187850Y-88134520D01*
X123208893Y-88147132D01*
X123228599Y-88161747D01*
X123246777Y-88178223D01*
X123263253Y-88196401D01*
X123277868Y-88216107D01*
X123290480Y-88237150D01*
X123300970Y-88259329D01*
X123309235Y-88282428D01*
X123315196Y-88306227D01*
X123318796Y-88330495D01*
X123320000Y-88354999D01*
X123320000Y-89005001D01*
X123318796Y-89029505D01*
X123315196Y-89053773D01*
X123309235Y-89077572D01*
X123300970Y-89100671D01*
X123290480Y-89122850D01*
X123277868Y-89143893D01*
X123263253Y-89163599D01*
X123246777Y-89181777D01*
X123228599Y-89198253D01*
X123208893Y-89212868D01*
X123187850Y-89225480D01*
X123165671Y-89235970D01*
X123142572Y-89244235D01*
X123118773Y-89250196D01*
X123094505Y-89253796D01*
X123070001Y-89255000D01*
X122169999Y-89255000D01*
X122145495Y-89253796D01*
X122121227Y-89250196D01*
X122097428Y-89244235D01*
X122074329Y-89235970D01*
X122052150Y-89225480D01*
X122031107Y-89212868D01*
X122011401Y-89198253D01*
X121993223Y-89181777D01*
X121976747Y-89163599D01*
X121962132Y-89143893D01*
X121949520Y-89122850D01*
X121939030Y-89100671D01*
X121930765Y-89077572D01*
X121924804Y-89053773D01*
X121921204Y-89029505D01*
X121920000Y-89005001D01*
X121920000Y-88354999D01*
X121921204Y-88330495D01*
X121924804Y-88306227D01*
X121930765Y-88282428D01*
X121939030Y-88259329D01*
X121949520Y-88237150D01*
X121962132Y-88216107D01*
X121976747Y-88196401D01*
X121993223Y-88178223D01*
X122011401Y-88161747D01*
X122031107Y-88147132D01*
X122052150Y-88134520D01*
X122074329Y-88124030D01*
X122097428Y-88115765D01*
X122121227Y-88109804D01*
X122145495Y-88106204D01*
X122169999Y-88105000D01*
X123070001Y-88105000D01*
X123094505Y-88106204D01*
X123094505Y-88106204D01*
G37*
D13*
X122620000Y-88680000D03*
G04 #@! TD*
D12*
G04 #@! TO.C,R6*
G36*
X123094505Y-82056204D02*
X123118773Y-82059804D01*
X123142572Y-82065765D01*
X123165671Y-82074030D01*
X123187850Y-82084520D01*
X123208893Y-82097132D01*
X123228599Y-82111747D01*
X123246777Y-82128223D01*
X123263253Y-82146401D01*
X123277868Y-82166107D01*
X123290480Y-82187150D01*
X123300970Y-82209329D01*
X123309235Y-82232428D01*
X123315196Y-82256227D01*
X123318796Y-82280495D01*
X123320000Y-82304999D01*
X123320000Y-82955001D01*
X123318796Y-82979505D01*
X123315196Y-83003773D01*
X123309235Y-83027572D01*
X123300970Y-83050671D01*
X123290480Y-83072850D01*
X123277868Y-83093893D01*
X123263253Y-83113599D01*
X123246777Y-83131777D01*
X123228599Y-83148253D01*
X123208893Y-83162868D01*
X123187850Y-83175480D01*
X123165671Y-83185970D01*
X123142572Y-83194235D01*
X123118773Y-83200196D01*
X123094505Y-83203796D01*
X123070001Y-83205000D01*
X122169999Y-83205000D01*
X122145495Y-83203796D01*
X122121227Y-83200196D01*
X122097428Y-83194235D01*
X122074329Y-83185970D01*
X122052150Y-83175480D01*
X122031107Y-83162868D01*
X122011401Y-83148253D01*
X121993223Y-83131777D01*
X121976747Y-83113599D01*
X121962132Y-83093893D01*
X121949520Y-83072850D01*
X121939030Y-83050671D01*
X121930765Y-83027572D01*
X121924804Y-83003773D01*
X121921204Y-82979505D01*
X121920000Y-82955001D01*
X121920000Y-82304999D01*
X121921204Y-82280495D01*
X121924804Y-82256227D01*
X121930765Y-82232428D01*
X121939030Y-82209329D01*
X121949520Y-82187150D01*
X121962132Y-82166107D01*
X121976747Y-82146401D01*
X121993223Y-82128223D01*
X122011401Y-82111747D01*
X122031107Y-82097132D01*
X122052150Y-82084520D01*
X122074329Y-82074030D01*
X122097428Y-82065765D01*
X122121227Y-82059804D01*
X122145495Y-82056204D01*
X122169999Y-82055000D01*
X123070001Y-82055000D01*
X123094505Y-82056204D01*
X123094505Y-82056204D01*
G37*
D13*
X122620000Y-82630000D03*
D12*
G36*
X123094505Y-84106204D02*
X123118773Y-84109804D01*
X123142572Y-84115765D01*
X123165671Y-84124030D01*
X123187850Y-84134520D01*
X123208893Y-84147132D01*
X123228599Y-84161747D01*
X123246777Y-84178223D01*
X123263253Y-84196401D01*
X123277868Y-84216107D01*
X123290480Y-84237150D01*
X123300970Y-84259329D01*
X123309235Y-84282428D01*
X123315196Y-84306227D01*
X123318796Y-84330495D01*
X123320000Y-84354999D01*
X123320000Y-85005001D01*
X123318796Y-85029505D01*
X123315196Y-85053773D01*
X123309235Y-85077572D01*
X123300970Y-85100671D01*
X123290480Y-85122850D01*
X123277868Y-85143893D01*
X123263253Y-85163599D01*
X123246777Y-85181777D01*
X123228599Y-85198253D01*
X123208893Y-85212868D01*
X123187850Y-85225480D01*
X123165671Y-85235970D01*
X123142572Y-85244235D01*
X123118773Y-85250196D01*
X123094505Y-85253796D01*
X123070001Y-85255000D01*
X122169999Y-85255000D01*
X122145495Y-85253796D01*
X122121227Y-85250196D01*
X122097428Y-85244235D01*
X122074329Y-85235970D01*
X122052150Y-85225480D01*
X122031107Y-85212868D01*
X122011401Y-85198253D01*
X121993223Y-85181777D01*
X121976747Y-85163599D01*
X121962132Y-85143893D01*
X121949520Y-85122850D01*
X121939030Y-85100671D01*
X121930765Y-85077572D01*
X121924804Y-85053773D01*
X121921204Y-85029505D01*
X121920000Y-85005001D01*
X121920000Y-84354999D01*
X121921204Y-84330495D01*
X121924804Y-84306227D01*
X121930765Y-84282428D01*
X121939030Y-84259329D01*
X121949520Y-84237150D01*
X121962132Y-84216107D01*
X121976747Y-84196401D01*
X121993223Y-84178223D01*
X122011401Y-84161747D01*
X122031107Y-84147132D01*
X122052150Y-84134520D01*
X122074329Y-84124030D01*
X122097428Y-84115765D01*
X122121227Y-84109804D01*
X122145495Y-84106204D01*
X122169999Y-84105000D01*
X123070001Y-84105000D01*
X123094505Y-84106204D01*
X123094505Y-84106204D01*
G37*
D13*
X122620000Y-84680000D03*
G04 #@! TD*
M02*
