M48
;DRILL file {KiCad (5.0.2)-1} date 17/07/2019 17:09:00
;FORMAT={-:-/ absolute / inch / decimal}
FMAT,2
INCH,TZ
T1C0.0157
T2C0.0394
T3C0.0472
%
G90
G05
T1
X4.8257Y-3.1395
X4.8258Y-3.2283
T2
X5.2264Y-3.7106
X5.2Y-3.
X5.2Y-2.9
X5.4Y-2.8
X5.4Y-2.9
X5.4Y-3.
X5.4Y-3.1
X5.4Y-3.2
X5.4Y-3.3
X5.4Y-3.4
X5.4Y-3.5
X5.4Y-3.6
X5.4Y-3.7
X4.4Y-2.8
X4.4Y-2.9
X4.4Y-3.
X4.4Y-3.1
X4.4Y-3.2
X4.4Y-3.3
X4.4Y-3.4
X4.4Y-3.5
X4.4Y-3.6
X4.4Y-3.7
X5.2Y-2.8
T3
X4.7638Y-2.7264
X4.7638Y-2.9035
X5.0197Y-2.7264
X5.0197Y-2.9035
X4.6949Y-3.5827
X4.6949Y-3.7598
X4.9508Y-3.5827
X4.9508Y-3.7598
T0
M30
